<svg version="1.1" id="Layer_1" xmlns="http://www.w3.org/2000/svg" xmlns:xlink="http://www.w3.org/1999/xlink" x="0px" y="0px"
	 width="100%" viewBox="0 0 453 1246" enable-background="new 0 0 453 1246" xml:space="preserve">
<path fill="#00B050" opacity="1.000000" stroke="none" 
	d="
M0.999993,1165.000000 
	C1.000000,904.638611 1.000000,644.277283 1.307019,383.684509 
	C2.972775,382.238342 4.393046,381.085205 5.681031,379.799500 
	C24.652508,360.860901 43.558426,341.855988 62.649086,323.038422 
	C64.304237,321.406952 67.149551,320.128113 69.444580,320.124054 
	C152.528717,319.976685 235.613190,319.980103 318.697388,320.113251 
	C320.862793,320.116699 323.451385,321.314056 325.111298,322.781738 
	C330.571289,327.609436 335.694183,332.818329 340.957092,338.356934 
	C340.978821,342.459259 340.978577,346.085510 341.003296,349.711609 
	C341.089417,362.342621 339.715149,361.031647 352.484436,360.899719 
	C355.347107,360.870178 358.196838,359.589172 361.351013,359.038971 
	C368.723083,366.254181 375.652802,373.467987 382.938599,380.302216 
	C385.993927,383.168243 387.089478,386.106781 387.087311,390.273560 
	C386.986328,584.854187 386.999908,779.434814 386.992523,974.015442 
	C386.992432,976.011597 386.888733,978.007751 386.519867,979.840576 
	C383.126678,978.828674 380.047821,977.241089 376.967316,977.237915 
	C255.890656,977.112549 134.813843,977.130920 13.737041,977.131836 
	C3.979864,977.131897 3.134696,977.969055 3.131486,987.610779 
	C3.111804,1046.731079 3.093090,1105.851440 2.686378,1164.880859 
	C1.865797,1164.859985 1.432891,1164.929932 0.999993,1165.000000 
M200.500000,729.135620 
	C185.010086,729.136780 169.519455,729.219421 154.030823,729.078979 
	C150.386215,729.045898 148.891617,730.211365 149.084457,733.954224 
	C149.315567,738.439331 149.133408,742.945496 149.136093,747.442566 
	C149.140701,755.126526 149.142639,755.133606 156.636978,755.133789 
	C229.589310,755.135620 302.541656,755.134888 375.493988,755.134155 
	C376.659882,755.134155 377.830963,755.051880 378.990601,755.134644 
	C381.942535,755.345215 383.235809,754.105469 383.154938,751.070251 
	C383.026337,746.243713 383.135712,741.410889 383.133392,736.580750 
	C383.129822,729.147766 383.125854,729.137512 375.886047,729.137146 
	C317.757355,729.134338 259.628693,729.135742 200.500000,729.135620 
M123.499992,904.135193 
	C127.330788,904.135132 131.161575,904.134949 134.992371,904.134888 
	C168.137390,904.134338 201.282684,904.071045 234.427124,904.210938 
	C238.660614,904.228821 240.549423,903.183167 240.209213,898.631775 
	C239.862564,893.994080 240.143982,889.310242 240.132111,884.646606 
	C240.115570,878.158936 240.108292,878.139343 233.451004,878.138672 
	C178.986557,878.133057 124.522118,878.135254 70.057678,878.135437 
	C50.570404,878.135437 31.082453,878.221375 11.596411,878.066650 
	C7.594718,878.034851 5.801307,879.106873 6.068545,883.389526 
	C6.368778,888.200928 6.477129,893.076294 6.044197,897.867432 
	C5.571630,903.097290 7.650892,904.261353 12.572278,904.236206 
	C49.214062,904.049194 85.857246,904.135132 123.499992,904.135193 
M84.500008,586.135620 
	C59.516346,586.136108 34.532276,586.208191 9.549433,586.065125 
	C5.491370,586.041870 3.779056,587.213745 4.074259,591.436401 
	C4.363930,595.580078 4.134364,599.759827 4.135681,603.923767 
	C4.138276,612.130310 4.139136,612.134216 12.117507,612.134338 
	C84.403419,612.135376 156.689331,612.134949 228.975250,612.134583 
	C230.141144,612.134583 231.315811,612.036499 232.471283,612.145081 
	C235.859940,612.463257 237.340897,611.120178 237.174942,607.588379 
	C236.971893,603.267578 237.157562,598.929565 237.129517,594.599304 
	C237.070251,585.446045 238.023621,586.145813 228.905945,586.142761 
	C181.103973,586.126953 133.301987,586.135742 84.500008,586.135620 
z"/>
<path fill="#2BB4C1" opacity="1.000000" stroke="none" 
	d="
M386.519867,979.840576 
	C387.221893,981.720886 387.948212,983.437500 387.949951,985.154907 
	C388.008820,1043.392822 388.028412,1101.630981 387.881378,1159.868652 
	C387.875977,1162.004883 386.662415,1164.652710 385.135437,1166.193604 
	C359.836426,1191.720825 334.394226,1217.105957 308.996643,1242.535400 
	C307.712189,1243.821411 306.541565,1245.221069 305.658936,1246.783936 
	C232.645767,1247.000000 159.291550,1247.000000 85.805908,1246.790527 
	C84.413879,1245.406616 83.153275,1244.232178 81.746284,1242.800659 
	C81.068710,1242.346313 80.537514,1242.149048 80.023956,1241.952148 
	C80.041595,1241.952515 80.043411,1241.987671 79.995728,1241.715210 
	C79.636070,1241.280640 79.324089,1241.118530 79.024719,1240.959473 
	C79.037323,1240.962524 79.043411,1240.987671 78.995728,1240.715210 
	C78.636070,1240.280640 78.324089,1240.118530 78.024719,1239.959473 
	C78.037323,1239.962524 78.043411,1239.987671 77.995728,1239.715210 
	C77.636070,1239.280640 77.324089,1239.118530 77.024719,1238.959473 
	C77.037323,1238.962524 77.043411,1238.987671 76.995758,1238.715210 
	C76.636124,1238.280640 76.324142,1238.118530 76.024742,1237.959473 
	C76.037323,1237.962524 76.043411,1237.987671 75.995758,1237.715210 
	C75.636116,1237.280640 75.324135,1237.118530 75.024734,1236.959473 
	C75.037323,1236.962524 75.043411,1236.987671 74.995758,1236.715210 
	C74.636116,1236.280640 74.324135,1236.118530 74.024734,1235.959473 
	C74.037323,1235.962524 74.043411,1235.987671 73.995728,1235.715332 
	C73.636055,1235.280762 73.324074,1235.118652 73.024704,1234.959473 
	C73.037323,1234.962524 73.043411,1234.987671 72.995750,1234.715210 
	C72.636108,1234.280640 72.324127,1234.118530 72.024734,1233.959473 
	C72.037323,1233.962524 72.043411,1233.987671 71.995750,1233.715210 
	C71.636108,1233.280640 71.324127,1233.118530 71.024734,1232.959473 
	C71.037323,1232.962524 71.043411,1232.987671 70.995743,1232.715210 
	C70.636101,1232.280640 70.324120,1232.118530 70.024734,1231.959473 
	C70.037323,1231.962524 70.043411,1231.987671 69.995743,1231.715210 
	C69.636101,1231.280640 69.324120,1231.118530 69.024734,1230.959473 
	C69.037323,1230.962524 69.043411,1230.987671 68.995743,1230.715210 
	C68.636101,1230.280640 68.324120,1230.118530 68.024734,1229.959473 
	C68.037323,1229.962524 68.043411,1229.987671 67.995743,1229.715210 
	C67.636093,1229.280640 67.324112,1229.118530 67.024727,1228.959473 
	C67.037323,1228.962524 67.043411,1228.987671 66.995743,1228.715210 
	C66.636093,1228.280640 66.324112,1228.118530 66.024727,1227.959473 
	C66.037323,1227.962524 66.043411,1227.987671 65.995743,1227.715210 
	C65.636093,1227.280640 65.324112,1227.118530 65.024727,1226.959473 
	C65.037323,1226.962524 65.043411,1226.987671 64.995743,1226.715210 
	C64.636086,1226.280640 64.324104,1226.118530 64.024719,1225.959473 
	C64.037323,1225.962524 64.043411,1225.987671 63.995750,1225.715210 
	C63.636112,1225.280640 63.324135,1225.118530 63.024738,1224.959473 
	C63.037323,1224.962524 63.043407,1224.987671 62.995743,1224.715210 
	C62.636105,1224.280640 62.324127,1224.118530 62.024734,1223.959473 
	C62.037323,1223.962524 62.043407,1223.987671 61.995716,1223.715332 
	C61.636047,1223.280762 61.324070,1223.118652 61.024708,1222.959473 
	C61.037323,1222.962524 61.043407,1222.987671 60.995743,1222.715210 
	C60.636105,1222.280640 60.324127,1222.118530 60.024734,1221.959473 
	C60.037323,1221.962524 60.043407,1221.987671 59.995743,1221.715210 
	C59.636105,1221.280640 59.324127,1221.118530 59.024734,1220.959473 
	C59.037323,1220.962524 59.043407,1220.987671 58.995743,1220.715210 
	C58.636105,1220.280640 58.324127,1220.118530 58.024734,1219.959473 
	C58.037323,1219.962524 58.043407,1219.987671 57.995716,1219.715332 
	C57.636047,1219.280762 57.324070,1219.118652 57.024708,1218.959473 
	C57.037323,1218.962524 57.043407,1218.987671 56.995720,1218.715332 
	C56.636051,1218.280762 56.324074,1218.118652 56.024712,1217.959473 
	C56.037323,1217.962524 56.043407,1217.987671 55.995743,1217.715210 
	C55.636105,1217.280640 55.324127,1217.118530 55.024734,1216.959473 
	C55.037323,1216.962524 55.043407,1216.987671 54.995747,1216.715210 
	C54.636108,1216.280640 54.324131,1216.118530 54.024738,1215.959473 
	C54.037323,1215.962524 54.043407,1215.987671 53.995747,1215.715210 
	C53.636108,1215.280640 53.324131,1215.118530 53.024738,1214.959473 
	C53.037323,1214.962524 53.043407,1214.987671 52.995720,1214.715332 
	C52.636051,1214.280762 52.324074,1214.118652 52.024712,1213.959473 
	C52.037323,1213.962524 52.043407,1213.987671 51.995747,1213.715210 
	C51.636108,1213.280640 51.324131,1213.118530 51.024738,1212.959473 
	C51.037323,1212.962524 51.043407,1212.987671 50.995747,1212.715210 
	C50.636108,1212.280640 50.324131,1212.118530 50.024738,1211.959473 
	C50.037323,1211.962524 50.043407,1211.987671 49.995747,1211.715210 
	C49.636108,1211.280640 49.324131,1211.118530 49.024738,1210.959473 
	C49.037323,1210.962524 49.043407,1210.987671 48.995720,1210.715332 
	C48.636055,1210.280762 48.324078,1210.118652 48.024712,1209.959473 
	C48.037323,1209.962524 48.043407,1209.987671 47.995720,1209.715332 
	C47.636055,1209.280762 47.324078,1209.118652 47.024712,1208.959473 
	C47.037323,1208.962524 47.043407,1208.987671 46.995750,1208.715210 
	C46.636112,1208.280640 46.324135,1208.118530 46.024742,1207.959473 
	C46.037323,1207.962524 46.043407,1207.987671 45.995750,1207.715210 
	C45.636112,1207.280640 45.324135,1207.118530 45.024742,1206.959473 
	C45.037323,1206.962524 45.043407,1206.987671 44.995750,1206.715210 
	C44.636112,1206.280640 44.324135,1206.118530 44.024742,1205.959473 
	C44.037323,1205.962524 44.043407,1205.987671 43.995720,1205.715332 
	C43.636055,1205.280762 43.324078,1205.118652 43.024712,1204.959473 
	C43.037323,1204.962524 43.043407,1204.987671 42.995720,1204.715332 
	C42.636055,1204.280762 42.324078,1204.118652 42.024712,1203.959473 
	C42.037323,1203.962524 42.043407,1203.987671 41.995750,1203.715210 
	C41.636112,1203.280640 41.324135,1203.118530 41.024742,1202.959473 
	C41.037323,1202.962524 41.043407,1202.987671 40.995750,1202.715210 
	C40.636112,1202.280640 40.324135,1202.118530 40.024742,1201.959473 
	C40.037323,1201.962524 40.043407,1201.987671 39.995720,1201.715332 
	C39.636059,1201.280762 39.324081,1201.118652 39.024712,1200.959473 
	C39.037323,1200.962524 39.043407,1200.987671 38.995720,1200.715210 
	C38.636059,1200.280640 38.324081,1200.118530 38.024712,1199.959473 
	C38.037323,1199.962524 38.043407,1199.987671 37.995750,1199.715210 
	C37.636116,1199.280640 37.324139,1199.118530 37.024742,1198.959473 
	C37.037323,1198.962524 37.043407,1198.987671 36.995750,1198.715210 
	C36.636116,1198.280640 36.324139,1198.118530 36.024742,1197.959473 
	C36.037323,1197.962524 36.043407,1197.987671 35.995750,1197.715210 
	C35.636116,1197.280640 35.324139,1197.118530 35.024742,1196.959473 
	C35.037323,1196.962524 35.043407,1196.987671 34.995720,1196.715210 
	C34.636059,1196.280640 34.324081,1196.118530 34.024712,1195.959473 
	C34.037323,1195.962524 34.043407,1195.987671 33.995720,1195.715210 
	C33.636059,1195.280640 33.324081,1195.118530 33.024712,1194.959473 
	C33.037323,1194.962524 33.043407,1194.987671 32.995750,1194.715210 
	C32.636116,1194.280640 32.324139,1194.118530 32.024742,1193.959473 
	C32.037323,1193.962524 32.043407,1193.987671 31.995739,1193.715210 
	C31.636091,1193.280640 31.324114,1193.118530 31.024731,1192.959473 
	C31.037329,1192.962524 31.043409,1192.987671 30.995747,1192.715210 
	C30.636106,1192.280640 30.324127,1192.118530 30.024738,1191.959473 
	C30.037331,1191.962524 30.043409,1191.987671 29.995747,1191.715210 
	C29.636105,1191.280640 29.324125,1191.118530 29.024738,1190.959473 
	C29.037331,1190.962524 29.043409,1190.987671 28.995747,1190.715210 
	C28.636103,1190.280640 28.324123,1190.118530 28.024738,1189.959473 
	C28.037331,1189.962524 28.043409,1189.987671 27.995716,1189.715332 
	C27.636045,1189.280762 27.324066,1189.118652 27.024708,1188.959473 
	C27.037331,1188.962524 27.043409,1188.987671 26.995745,1188.715210 
	C26.636101,1188.280640 26.324121,1188.118530 26.024736,1187.959473 
	C26.037331,1187.962524 26.043409,1187.987671 25.995745,1187.715210 
	C25.636101,1187.280640 25.324121,1187.118530 25.024736,1186.959473 
	C25.037331,1186.962524 25.043409,1186.987671 24.995743,1186.715210 
	C24.636099,1186.280640 24.324120,1186.118530 24.024734,1185.959473 
	C24.037331,1185.962524 24.043409,1185.987671 23.995716,1185.715332 
	C23.636042,1185.280762 23.324062,1185.118652 23.024708,1184.959473 
	C23.037331,1184.962524 23.043409,1184.987671 22.995743,1184.715210 
	C22.636097,1184.280640 22.324118,1184.118530 22.024734,1183.959473 
	C22.037331,1183.962524 22.043409,1183.987671 21.995743,1183.715210 
	C21.636095,1183.280640 21.324116,1183.118530 21.024734,1182.959473 
	C21.037331,1182.962524 21.043409,1182.987671 20.995743,1182.715210 
	C20.636095,1182.280640 20.324116,1182.118530 20.024734,1181.959473 
	C20.037331,1181.962524 20.043409,1181.987671 19.995741,1181.715210 
	C19.636093,1181.280640 19.324114,1181.118530 19.024733,1180.959473 
	C19.037331,1180.962524 19.043409,1180.987671 18.995712,1180.715332 
	C18.636036,1180.280762 18.324057,1180.118652 18.024704,1179.959473 
	C18.037331,1179.962524 18.043409,1179.987671 17.995739,1179.715210 
	C17.636091,1179.280640 17.324112,1179.118530 17.024731,1178.959473 
	C17.037331,1178.962524 17.043409,1178.987671 16.995739,1178.715210 
	C16.636089,1178.280640 16.324110,1178.118530 16.024731,1177.959473 
	C16.037331,1177.962524 16.043409,1177.987671 15.995739,1177.715210 
	C15.636090,1177.280640 15.324111,1177.118530 15.024730,1176.959473 
	C15.037328,1176.962524 15.043409,1176.987671 14.995739,1176.715210 
	C14.636089,1176.280640 14.324110,1176.118530 14.024729,1175.959473 
	C14.037328,1175.962524 14.043409,1175.987671 13.995738,1175.715210 
	C13.636087,1175.280640 13.324108,1175.118530 13.024729,1174.959473 
	C13.037328,1174.962524 13.043409,1174.987671 12.995737,1174.715210 
	C12.636086,1174.280640 12.324107,1174.118530 12.024728,1173.959473 
	C12.037328,1173.962524 12.043409,1173.987671 11.995737,1173.715210 
	C11.636086,1173.280640 11.324106,1173.118530 11.024727,1172.959473 
	C11.037328,1172.962524 11.043409,1172.987671 10.995737,1172.715210 
	C10.636085,1172.280640 10.324105,1172.118530 10.024727,1171.959473 
	C10.037328,1171.962524 10.043409,1171.987671 9.995736,1171.715210 
	C9.636084,1171.280640 9.324104,1171.118530 9.024727,1170.959473 
	C9.037328,1170.962524 9.043409,1170.987671 8.995735,1170.715210 
	C8.636083,1170.280640 8.324103,1170.118530 8.024726,1169.959473 
	C8.037328,1169.962524 8.043409,1169.987671 7.995743,1169.715210 
	C7.636097,1169.280640 7.324118,1169.118530 7.024734,1168.959473 
	C7.037328,1168.962524 7.043410,1168.987671 6.995751,1168.715210 
	C6.636112,1168.280640 6.324131,1168.118530 6.024734,1167.959473 
	C6.037319,1167.962524 6.043401,1167.987671 5.995720,1167.715332 
	C5.636049,1167.280762 5.324059,1167.118652 5.024656,1166.959717 
	C5.037243,1166.962646 5.043367,1166.987671 4.995711,1166.715210 
	C4.636041,1166.280640 4.324027,1166.118530 4.024570,1165.959595 
	C4.037129,1165.962646 4.043258,1165.987671 3.995619,1165.715210 
	C3.635922,1165.280762 3.323864,1165.118774 3.030038,1164.950806 
	C3.048272,1164.944824 3.074054,1164.971680 3.074054,1164.971680 
	C3.093090,1105.851440 3.111804,1046.731079 3.131486,987.610779 
	C3.134696,977.969055 3.979864,977.131897 13.737041,977.131836 
	C134.813843,977.130920 255.890656,977.112549 376.967316,977.237915 
	C380.047821,977.241089 383.126678,978.828674 386.519867,979.840576 
z"/>
<path fill="#05BC58" opacity="1.000000" stroke="none" 
	d="
M340.957092,338.356934 
	C340.628296,323.124817 340.357849,308.367615 339.974365,293.613342 
	C339.733276,284.338196 339.211121,275.069916 339.011444,265.794312 
	C338.603821,246.859467 338.311554,227.922028 338.026733,208.984848 
	C337.999237,207.157532 338.357056,205.324417 338.582092,203.022522 
	C328.644043,200.464401 318.155457,197.708160 307.636902,195.071487 
	C294.837158,191.862991 282.013916,188.747787 269.197327,185.606674 
	C262.070557,183.860046 254.961151,182.030197 247.793457,180.469543 
	C245.050232,179.872253 243.945663,178.731552 243.951416,175.819321 
	C244.028473,136.664688 244.015900,97.509842 243.974411,58.355099 
	C243.971542,55.638859 244.683121,54.519318 247.714584,53.798092 
	C269.088959,48.712856 290.385681,43.299057 311.690247,37.923019 
	C325.033325,34.555996 338.339081,31.041327 351.675629,27.648048 
	C371.857422,22.513096 392.037567,17.370394 412.245697,12.340675 
	C423.585114,9.518343 434.976715,6.904839 446.354218,4.237475 
	C447.289978,4.018096 448.298279,4.108362 449.641357,4.034482 
	C449.641357,79.271736 449.641357,154.290756 449.641357,230.758347 
	C419.124390,223.136368 388.942322,215.598022 358.723969,208.050629 
	C358.723969,220.311401 358.716705,232.352539 358.737579,244.393616 
	C358.739288,245.377182 358.995636,246.358337 359.028412,247.344116 
	C359.364258,257.449463 359.815033,267.553406 359.972015,277.661804 
	C360.387787,304.427704 360.673767,331.195587 361.031952,358.423462 
	C358.196838,359.589172 355.347107,360.870178 352.484436,360.899719 
	C339.715149,361.031647 341.089417,362.342621 341.003296,349.711609 
	C340.978577,346.085510 340.978821,342.459259 340.957092,338.356934 
z"/>
<path fill="#595959" opacity="1.000000" stroke="none" 
	d="
M201.000000,729.135742 
	C259.628693,729.135742 317.757355,729.134338 375.886047,729.137146 
	C383.125854,729.137512 383.129822,729.147766 383.133392,736.580750 
	C383.135712,741.410889 383.026337,746.243713 383.154938,751.070251 
	C383.235809,754.105469 381.942535,755.345215 378.990601,755.134644 
	C377.830963,755.051880 376.659882,755.134155 375.493988,755.134155 
	C302.541656,755.134888 229.589310,755.135620 156.636978,755.133789 
	C149.142639,755.133606 149.140701,755.126526 149.136093,747.442566 
	C149.133408,742.945496 149.315567,738.439331 149.084457,733.954224 
	C148.891617,730.211365 150.386215,729.045898 154.030823,729.078979 
	C169.519455,729.219421 185.010086,729.136780 201.000000,729.135742 
z"/>
<path fill="#595959" opacity="1.000000" stroke="none" 
	d="
M122.999985,904.135376 
	C85.857246,904.135132 49.214062,904.049194 12.572278,904.236206 
	C7.650892,904.261353 5.571630,903.097290 6.044197,897.867432 
	C6.477129,893.076294 6.368778,888.200928 6.068545,883.389526 
	C5.801307,879.106873 7.594718,878.034851 11.596411,878.066650 
	C31.082453,878.221375 50.570404,878.135437 70.057678,878.135437 
	C124.522118,878.135254 178.986557,878.133057 233.451004,878.138672 
	C240.108292,878.139343 240.115570,878.158936 240.132111,884.646606 
	C240.143982,889.310242 239.862564,893.994080 240.209213,898.631775 
	C240.549423,903.183167 238.660614,904.228821 234.427124,904.210938 
	C201.282684,904.071045 168.137390,904.134338 134.992371,904.134888 
	C131.161575,904.134949 127.330788,904.135132 122.999985,904.135376 
z"/>
<path fill="#595959" opacity="1.000000" stroke="none" 
	d="
M85.000015,586.135742 
	C133.301987,586.135742 181.103973,586.126953 228.905945,586.142761 
	C238.023621,586.145813 237.070251,585.446045 237.129517,594.599304 
	C237.157562,598.929565 236.971893,603.267578 237.174942,607.588379 
	C237.340897,611.120178 235.859940,612.463257 232.471283,612.145081 
	C231.315811,612.036499 230.141144,612.134583 228.975250,612.134583 
	C156.689331,612.134949 84.403419,612.135376 12.117507,612.134338 
	C4.139136,612.134216 4.138276,612.130310 4.135681,603.923767 
	C4.134364,599.759827 4.363930,595.580078 4.074259,591.436401 
	C3.779056,587.213745 5.491370,586.041870 9.549433,586.065125 
	C34.532276,586.208191 59.516346,586.136108 85.000015,586.135742 
z"/>
<path fill="#00B050" opacity="1.000000" stroke="none" 
	d="
M81.746300,1242.800659 
	C81.326103,1242.882812 80.759521,1242.708008 80.099625,1242.242432 
	C80.537514,1242.149048 81.068710,1242.346313 81.746300,1242.800659 
z"/>
<path fill="#00B050" opacity="1.000000" stroke="none" 
	d="
M52.995705,1214.715332 
	C52.737167,1214.821777 52.430954,1214.655884 52.068420,1214.223267 
	C52.324074,1214.118652 52.636051,1214.280762 52.995705,1214.715332 
z"/>
<path fill="#00B050" opacity="1.000000" stroke="none" 
	d="
M61.995701,1223.715332 
	C61.737164,1223.821777 61.430950,1223.655884 61.068413,1223.223267 
	C61.324070,1223.118652 61.636047,1223.280762 61.995701,1223.715332 
z"/>
<path fill="#00B050" opacity="1.000000" stroke="none" 
	d="
M60.995739,1222.715210 
	C60.737183,1222.821777 60.430969,1222.655884 60.068451,1222.223145 
	C60.324127,1222.118530 60.636105,1222.280640 60.995739,1222.715210 
z"/>
<path fill="#00B050" opacity="1.000000" stroke="none" 
	d="
M59.995750,1221.715210 
	C59.737206,1221.821777 59.430992,1221.655884 59.068466,1221.223145 
	C59.324127,1221.118530 59.636105,1221.280640 59.995750,1221.715210 
z"/>
<path fill="#00B050" opacity="1.000000" stroke="none" 
	d="
M58.995728,1220.715210 
	C58.737164,1220.821777 58.430950,1220.655884 58.068443,1220.223145 
	C58.324127,1220.118530 58.636105,1220.280640 58.995728,1220.715210 
z"/>
<path fill="#00B050" opacity="1.000000" stroke="none" 
	d="
M57.995712,1219.715332 
	C57.737186,1219.821777 57.430973,1219.655884 57.068428,1219.223267 
	C57.324070,1219.118652 57.636047,1219.280762 57.995712,1219.715332 
z"/>
<path fill="#00B050" opacity="1.000000" stroke="none" 
	d="
M56.995724,1218.715332 
	C56.737206,1218.821777 56.430992,1218.655884 56.068436,1218.223267 
	C56.324074,1218.118652 56.636051,1218.280762 56.995724,1218.715332 
z"/>
<path fill="#00B050" opacity="1.000000" stroke="none" 
	d="
M55.995758,1217.715210 
	C55.737225,1217.821777 55.431011,1217.655884 55.068474,1217.223145 
	C55.324127,1217.118530 55.636105,1217.280640 55.995758,1217.715210 
z"/>
<path fill="#00B050" opacity="1.000000" stroke="none" 
	d="
M54.995773,1216.715088 
	C54.737244,1216.821655 54.431030,1216.655762 54.068485,1216.223145 
	C54.324131,1216.118530 54.636108,1216.280640 54.995773,1216.715088 
z"/>
<path fill="#00B050" opacity="1.000000" stroke="none" 
	d="
M53.995750,1215.715210 
	C53.737206,1215.821777 53.430992,1215.655884 53.068466,1215.223145 
	C53.324131,1215.118530 53.636108,1215.280640 53.995750,1215.715210 
z"/>
<path fill="#00B050" opacity="1.000000" stroke="none" 
	d="
M62.995750,1224.715210 
	C62.737202,1224.821777 62.430988,1224.655884 62.068462,1224.223145 
	C62.324127,1224.118530 62.636105,1224.280640 62.995750,1224.715210 
z"/>
<path fill="#00B050" opacity="1.000000" stroke="none" 
	d="
M51.995743,1213.715210 
	C51.737186,1213.821777 51.430973,1213.655884 51.068459,1213.223145 
	C51.324131,1213.118530 51.636108,1213.280640 51.995743,1213.715210 
z"/>
<path fill="#00B050" opacity="1.000000" stroke="none" 
	d="
M50.995750,1212.715210 
	C50.737206,1212.821777 50.430992,1212.655884 50.068466,1212.223145 
	C50.324131,1212.118530 50.636108,1212.280640 50.995750,1212.715210 
z"/>
<path fill="#00B050" opacity="1.000000" stroke="none" 
	d="
M49.995735,1211.715210 
	C49.737167,1211.821777 49.430954,1211.655884 49.068447,1211.223145 
	C49.324131,1211.118530 49.636108,1211.280640 49.995735,1211.715210 
z"/>
<path fill="#00B050" opacity="1.000000" stroke="none" 
	d="
M48.995716,1210.715332 
	C48.737186,1210.821777 48.430973,1210.655884 48.068428,1210.223267 
	C48.324078,1210.118652 48.636055,1210.280762 48.995716,1210.715332 
z"/>
<path fill="#00B050" opacity="1.000000" stroke="none" 
	d="
M47.995728,1209.715332 
	C47.737206,1209.821777 47.430992,1209.655884 47.068439,1209.223267 
	C47.324078,1209.118652 47.636055,1209.280762 47.995728,1209.715332 
z"/>
<path fill="#00B050" opacity="1.000000" stroke="none" 
	d="
M46.995766,1208.715210 
	C46.737225,1208.821777 46.431011,1208.655884 46.068478,1208.223145 
	C46.324135,1208.118530 46.636112,1208.280640 46.995766,1208.715210 
z"/>
<path fill="#00B050" opacity="1.000000" stroke="none" 
	d="
M45.995773,1207.715088 
	C45.737244,1207.821655 45.431030,1207.655762 45.068489,1207.223145 
	C45.324135,1207.118530 45.636112,1207.280640 45.995773,1207.715088 
z"/>
<path fill="#00B050" opacity="1.000000" stroke="none" 
	d="
M44.995728,1206.715332 
	C44.737148,1206.821899 44.430935,1206.656006 44.068439,1206.223267 
	C44.324135,1206.118530 44.636112,1206.280640 44.995728,1206.715332 
z"/>
<path fill="#00B050" opacity="1.000000" stroke="none" 
	d="
M43.995705,1205.715332 
	C43.737167,1205.821777 43.430954,1205.655884 43.068420,1205.223267 
	C43.324078,1205.118652 43.636055,1205.280762 43.995705,1205.715332 
z"/>
<path fill="#00B050" opacity="1.000000" stroke="none" 
	d="
M71.995743,1233.715210 
	C71.737183,1233.821777 71.430969,1233.655884 71.068451,1233.223145 
	C71.324127,1233.118530 71.636108,1233.280640 71.995743,1233.715210 
z"/>
<path fill="#00B050" opacity="1.000000" stroke="none" 
	d="
M3.995625,1165.715210 
	C3.737028,1165.821899 3.430787,1165.656128 3.068176,1165.223633 
	C3.323864,1165.118774 3.635922,1165.280762 3.995625,1165.715210 
z"/>
<path fill="#00B050" opacity="1.000000" stroke="none" 
	d="
M79.995743,1241.715210 
	C79.737221,1241.821777 79.431007,1241.655884 79.068451,1241.223145 
	C79.324089,1241.118530 79.636070,1241.280640 79.995743,1241.715210 
z"/>
<path fill="#00B050" opacity="1.000000" stroke="none" 
	d="
M78.995728,1240.715210 
	C78.737183,1240.821777 78.430962,1240.655884 78.068428,1240.223145 
	C78.324089,1240.118530 78.636070,1240.280640 78.995728,1240.715210 
z"/>
<path fill="#00B050" opacity="1.000000" stroke="none" 
	d="
M77.995728,1239.715210 
	C77.737198,1239.821777 77.430977,1239.655884 77.068436,1239.223145 
	C77.324089,1239.118530 77.636070,1239.280640 77.995728,1239.715210 
z"/>
<path fill="#00B050" opacity="1.000000" stroke="none" 
	d="
M76.995743,1238.715332 
	C76.737152,1238.821899 76.430939,1238.656006 76.068443,1238.223267 
	C76.324142,1238.118530 76.636124,1238.280640 76.995743,1238.715332 
z"/>
<path fill="#00B050" opacity="1.000000" stroke="none" 
	d="
M75.995743,1237.715210 
	C75.737175,1237.821777 75.430954,1237.655884 75.068451,1237.223145 
	C75.324135,1237.118530 75.636116,1237.280640 75.995743,1237.715210 
z"/>
<path fill="#00B050" opacity="1.000000" stroke="none" 
	d="
M74.995750,1236.715210 
	C74.737190,1236.821777 74.430977,1236.655884 74.068451,1236.223145 
	C74.324135,1236.118530 74.636116,1236.280640 74.995750,1236.715210 
z"/>
<path fill="#00B050" opacity="1.000000" stroke="none" 
	d="
M73.995728,1235.715332 
	C73.737206,1235.821777 73.430992,1235.655884 73.068436,1235.223267 
	C73.324074,1235.118652 73.636055,1235.280762 73.995728,1235.715332 
z"/>
<path fill="#00B050" opacity="1.000000" stroke="none" 
	d="
M72.995766,1234.715210 
	C72.737228,1234.821777 72.431007,1234.655884 72.068466,1234.223145 
	C72.324127,1234.118530 72.636108,1234.280640 72.995766,1234.715210 
z"/>
<path fill="#00B050" opacity="1.000000" stroke="none" 
	d="
M42.995716,1204.715332 
	C42.737186,1204.821777 42.430973,1204.655884 42.068428,1204.223267 
	C42.324078,1204.118652 42.636055,1204.280762 42.995716,1204.715332 
z"/>
<path fill="#00B050" opacity="1.000000" stroke="none" 
	d="
M70.995750,1232.715210 
	C70.737198,1232.821777 70.430984,1232.655884 70.068451,1232.223145 
	C70.324120,1232.118530 70.636101,1232.280640 70.995750,1232.715210 
z"/>
<path fill="#00B050" opacity="1.000000" stroke="none" 
	d="
M69.995758,1231.715210 
	C69.737221,1231.821777 69.431000,1231.655884 69.068466,1231.223145 
	C69.324120,1231.118530 69.636101,1231.280640 69.995758,1231.715210 
z"/>
<path fill="#00B050" opacity="1.000000" stroke="none" 
	d="
M68.995743,1230.715210 
	C68.737175,1230.821777 68.430962,1230.655884 68.068443,1230.223145 
	C68.324120,1230.118530 68.636101,1230.280640 68.995743,1230.715210 
z"/>
<path fill="#00B050" opacity="1.000000" stroke="none" 
	d="
M67.995743,1229.715210 
	C67.737198,1229.821777 67.430977,1229.655884 67.068451,1229.223145 
	C67.324112,1229.118530 67.636093,1229.280640 67.995743,1229.715210 
z"/>
<path fill="#00B050" opacity="1.000000" stroke="none" 
	d="
M66.995728,1228.715332 
	C66.737152,1228.821899 66.430939,1228.656006 66.068428,1228.223267 
	C66.324112,1228.118530 66.636093,1228.280640 66.995728,1228.715332 
z"/>
<path fill="#00B050" opacity="1.000000" stroke="none" 
	d="
M65.995728,1227.715210 
	C65.737175,1227.821777 65.430954,1227.655884 65.068436,1227.223145 
	C65.324112,1227.118530 65.636093,1227.280640 65.995728,1227.715210 
z"/>
<path fill="#00B050" opacity="1.000000" stroke="none" 
	d="
M64.995735,1226.715210 
	C64.737190,1226.821777 64.430969,1226.655884 64.068436,1226.223145 
	C64.324104,1226.118530 64.636086,1226.280640 64.995735,1226.715210 
z"/>
<path fill="#00B050" opacity="1.000000" stroke="none" 
	d="
M63.995750,1225.715210 
	C63.737194,1225.821777 63.430981,1225.655884 63.068459,1225.223145 
	C63.324135,1225.118530 63.636112,1225.280640 63.995750,1225.715210 
z"/>
<path fill="#00B050" opacity="1.000000" stroke="none" 
	d="
M13.995728,1175.715210 
	C13.737174,1175.821777 13.430961,1175.655884 13.068438,1175.223145 
	C13.324108,1175.118530 13.636087,1175.280640 13.995728,1175.715210 
z"/>
<path fill="#00B050" opacity="1.000000" stroke="none" 
	d="
M22.995731,1184.715210 
	C22.737173,1184.821777 22.430960,1184.655884 22.068443,1184.223145 
	C22.324118,1184.118530 22.636097,1184.280640 22.995731,1184.715210 
z"/>
<path fill="#00B050" opacity="1.000000" stroke="none" 
	d="
M21.995739,1183.715210 
	C21.737192,1183.821777 21.430979,1183.655884 21.068451,1183.223145 
	C21.324116,1183.118530 21.636095,1183.280640 21.995739,1183.715210 
z"/>
<path fill="#00B050" opacity="1.000000" stroke="none" 
	d="
M20.995750,1182.715210 
	C20.737211,1182.821777 20.430998,1182.655884 20.068460,1182.223145 
	C20.324116,1182.118530 20.636095,1182.280640 20.995750,1182.715210 
z"/>
<path fill="#00B050" opacity="1.000000" stroke="none" 
	d="
M19.995758,1181.715088 
	C19.737232,1181.821655 19.431019,1181.655762 19.068470,1181.223145 
	C19.324114,1181.118530 19.636093,1181.280640 19.995758,1181.715088 
z"/>
<path fill="#00B050" opacity="1.000000" stroke="none" 
	d="
M18.995710,1180.715332 
	C18.737192,1180.821777 18.430979,1180.655884 18.068420,1180.223267 
	C18.324057,1180.118652 18.636036,1180.280762 18.995710,1180.715332 
z"/>
<path fill="#00B050" opacity="1.000000" stroke="none" 
	d="
M17.995720,1179.715332 
	C17.737154,1179.821899 17.430941,1179.656006 17.068430,1179.223267 
	C17.324112,1179.118530 17.636091,1179.280640 17.995720,1179.715332 
z"/>
<path fill="#00B050" opacity="1.000000" stroke="none" 
	d="
M16.995728,1178.715210 
	C16.737173,1178.821777 16.430960,1178.655884 16.068439,1178.223145 
	C16.324110,1178.118530 16.636089,1178.280640 16.995728,1178.715210 
z"/>
<path fill="#00B050" opacity="1.000000" stroke="none" 
	d="
M15.995745,1177.715210 
	C15.737206,1177.821777 15.430994,1177.655884 15.068457,1177.223145 
	C15.324111,1177.118530 15.636090,1177.280640 15.995745,1177.715210 
z"/>
<path fill="#00B050" opacity="1.000000" stroke="none" 
	d="
M14.995748,1176.715210 
	C14.737213,1176.821777 14.431000,1176.655884 14.068459,1176.223145 
	C14.324110,1176.118530 14.636089,1176.280640 14.995748,1176.715210 
z"/>
<path fill="#00B050" opacity="1.000000" stroke="none" 
	d="
M23.995724,1185.715332 
	C23.737211,1185.821777 23.430998,1185.655884 23.068434,1185.223267 
	C23.324062,1185.118652 23.636042,1185.280762 23.995724,1185.715332 
z"/>
<path fill="#00B050" opacity="1.000000" stroke="none" 
	d="
M12.995737,1174.715210 
	C12.737194,1174.821777 12.430981,1174.655884 12.068447,1174.223145 
	C12.324107,1174.118530 12.636086,1174.280640 12.995737,1174.715210 
z"/>
<path fill="#00B050" opacity="1.000000" stroke="none" 
	d="
M11.995746,1173.715210 
	C11.737213,1173.821777 11.431000,1173.655884 11.068457,1173.223145 
	C11.324106,1173.118530 11.636086,1173.280640 11.995746,1173.715210 
z"/>
<path fill="#00B050" opacity="1.000000" stroke="none" 
	d="
M10.995755,1172.715088 
	C10.737233,1172.821655 10.431020,1172.655762 10.068466,1172.223145 
	C10.324105,1172.118530 10.636085,1172.280640 10.995755,1172.715088 
z"/>
<path fill="#00B050" opacity="1.000000" stroke="none" 
	d="
M9.995735,1171.715210 
	C9.737194,1171.821777 9.430981,1171.655884 9.068446,1171.223145 
	C9.324104,1171.118530 9.636084,1171.280640 9.995735,1171.715210 
z"/>
<path fill="#00B050" opacity="1.000000" stroke="none" 
	d="
M8.995716,1170.715332 
	C8.737156,1170.821899 8.430943,1170.656006 8.068426,1170.223267 
	C8.324103,1170.118530 8.636083,1170.280640 8.995716,1170.715332 
z"/>
<path fill="#00B050" opacity="1.000000" stroke="none" 
	d="
M7.995749,1169.715210 
	C7.737209,1169.821777 7.430995,1169.655884 7.068460,1169.223145 
	C7.324118,1169.118530 7.636097,1169.280640 7.995749,1169.715210 
z"/>
<path fill="#00B050" opacity="1.000000" stroke="none" 
	d="
M6.995761,1168.715210 
	C6.737214,1168.821777 6.431000,1168.655884 6.068468,1168.223145 
	C6.324131,1168.118530 6.636112,1168.280640 6.995761,1168.715210 
z"/>
<path fill="#00B050" opacity="1.000000" stroke="none" 
	d="
M5.995724,1167.715332 
	C5.737206,1167.821777 5.431002,1167.656006 5.068434,1167.223389 
	C5.324059,1167.118652 5.636049,1167.280762 5.995724,1167.715332 
z"/>
<path fill="#00B050" opacity="1.000000" stroke="none" 
	d="
M32.995758,1194.715210 
	C32.737209,1194.821777 32.430996,1194.655884 32.068474,1194.223145 
	C32.324139,1194.118530 32.636116,1194.280640 32.995758,1194.715210 
z"/>
<path fill="#00B050" opacity="1.000000" stroke="none" 
	d="
M41.995754,1203.715210 
	C41.737206,1203.821777 41.430992,1203.655884 41.068466,1203.223145 
	C41.324135,1203.118530 41.636112,1203.280640 41.995754,1203.715210 
z"/>
<path fill="#00B050" opacity="1.000000" stroke="none" 
	d="
M40.995735,1202.715210 
	C40.737167,1202.821777 40.430954,1202.655884 40.068451,1202.223145 
	C40.324135,1202.118530 40.636112,1202.280640 40.995735,1202.715210 
z"/>
<path fill="#00B050" opacity="1.000000" stroke="none" 
	d="
M39.995720,1201.715332 
	C39.737186,1201.821777 39.430973,1201.655884 39.068432,1201.223267 
	C39.324081,1201.118652 39.636059,1201.280762 39.995720,1201.715332 
z"/>
<path fill="#00B050" opacity="1.000000" stroke="none" 
	d="
M38.995728,1200.715210 
	C38.737206,1200.821777 38.430992,1200.655884 38.068443,1200.223145 
	C38.324081,1200.118530 38.636059,1200.280640 38.995728,1200.715210 
z"/>
<path fill="#00B050" opacity="1.000000" stroke="none" 
	d="
M37.995766,1199.715210 
	C37.737228,1199.821777 37.431015,1199.655884 37.068481,1199.223145 
	C37.324139,1199.118530 37.636116,1199.280640 37.995766,1199.715210 
z"/>
<path fill="#00B050" opacity="1.000000" stroke="none" 
	d="
M36.995777,1198.715088 
	C36.737247,1198.821655 36.431034,1198.655762 36.068489,1198.223145 
	C36.324139,1198.118530 36.636116,1198.280640 36.995777,1198.715088 
z"/>
<path fill="#00B050" opacity="1.000000" stroke="none" 
	d="
M35.995728,1197.715332 
	C35.737148,1197.821899 35.430935,1197.656006 35.068443,1197.223267 
	C35.324139,1197.118530 35.636116,1197.280640 35.995728,1197.715332 
z"/>
<path fill="#00B050" opacity="1.000000" stroke="none" 
	d="
M34.995708,1196.715210 
	C34.737167,1196.821777 34.430954,1196.655884 34.068420,1196.223145 
	C34.324081,1196.118530 34.636059,1196.280640 34.995708,1196.715210 
z"/>
<path fill="#00B050" opacity="1.000000" stroke="none" 
	d="
M33.995720,1195.715210 
	C33.737190,1195.821777 33.430977,1195.655884 33.068436,1195.223145 
	C33.324081,1195.118530 33.636059,1195.280640 33.995720,1195.715210 
z"/>
<path fill="#00B050" opacity="1.000000" stroke="none" 
	d="
M4.995707,1166.715210 
	C4.737154,1166.821899 4.430950,1166.656006 4.068379,1166.223389 
	C4.324027,1166.118530 4.636041,1166.280640 4.995707,1166.715210 
z"/>
<path fill="#00B050" opacity="1.000000" stroke="none" 
	d="
M31.995728,1193.715210 
	C31.737169,1193.821777 31.430956,1193.655884 31.068439,1193.223145 
	C31.324114,1193.118530 31.636091,1193.280640 31.995728,1193.715210 
z"/>
<path fill="#00B050" opacity="1.000000" stroke="none" 
	d="
M30.995745,1192.715210 
	C30.737190,1192.821777 30.430977,1192.655884 30.068455,1192.223145 
	C30.324127,1192.118530 30.636106,1192.280640 30.995745,1192.715210 
z"/>
<path fill="#00B050" opacity="1.000000" stroke="none" 
	d="
M29.995754,1191.715210 
	C29.737211,1191.821777 29.430998,1191.655884 29.068466,1191.223145 
	C29.324125,1191.118530 29.636105,1191.280640 29.995754,1191.715210 
z"/>
<path fill="#00B050" opacity="1.000000" stroke="none" 
	d="
M28.995762,1190.715088 
	C28.737230,1190.821655 28.431017,1190.655762 28.068474,1190.223145 
	C28.324123,1190.118530 28.636103,1190.280640 28.995762,1190.715088 
z"/>
<path fill="#00B050" opacity="1.000000" stroke="none" 
	d="
M27.995743,1189.715210 
	C27.737249,1189.821655 27.431036,1189.655762 27.068455,1189.223145 
	C27.324066,1189.118652 27.636045,1189.280762 27.995743,1189.715210 
z"/>
<path fill="#00B050" opacity="1.000000" stroke="none" 
	d="
M26.995724,1188.715332 
	C26.737152,1188.821899 26.430939,1188.656006 26.068434,1188.223267 
	C26.324121,1188.118530 26.636101,1188.280640 26.995724,1188.715332 
z"/>
<path fill="#00B050" opacity="1.000000" stroke="none" 
	d="
M25.995733,1187.715210 
	C25.737173,1187.821777 25.430960,1187.655884 25.068443,1187.223145 
	C25.324121,1187.118530 25.636101,1187.280640 25.995733,1187.715210 
z"/>
<path fill="#00B050" opacity="1.000000" stroke="none" 
	d="
M24.995743,1186.715210 
	C24.737192,1186.821777 24.430979,1186.655884 24.068453,1186.223145 
	C24.324120,1186.118530 24.636099,1186.280640 24.995743,1186.715210 
z"/>
</svg>