<svg height="800px" width="800px" version="1.1" id="Layer_1" xmlns="http://www.w3.org/2000/svg" xmlns:xlink="http://www.w3.org/1999/xlink" viewBox="0 0 511.998 511.998" xml:space="preserve">
<polyline style="fill:#F77935;" points="18.745,494.483 499.31,494.483 501.539,90.217 456.618,201.545 412.83,154.829 
	359.739,326.438 330.251,289.732 295.058,326.438 252.962,180.118 206.394,313.659 172,290.005 128.213,361.136 62.532,346.9 
	18.745,494.483 "/>
<polygon style="fill:#D9510D;" points="466.987,175.846 465.23,494.482 499.309,494.482 501.539,90.217 "/>
<path d="M503.186,81.859c-4.012-0.793-8.018,1.38-9.548,5.171l-39.929,98.955l-34.662-36.981c-2.075-2.214-5.174-3.157-8.129-2.476
	c-2.957,0.682-5.329,2.884-6.226,5.784l-22.255,71.934c-1.39,4.495,1.126,9.267,5.621,10.658c4.496,1.392,9.266-1.126,10.658-5.621
	l17.922-57.932l33.764,36.022c1.989,2.122,4.923,3.08,7.781,2.549c2.859-0.535,5.247-2.49,6.335-5.187l28.257-70.024l-1.939,351.252
	H30.16l38.292-129.062l57.957,12.562c3.531,0.768,7.165-0.783,9.061-3.86l39.089-63.498l27.008,18.576
	c2.189,1.506,4.954,1.905,7.479,1.077c2.525-0.827,4.52-2.783,5.394-5.291l37.745-108.239l34.687,120.568
	c0.843,2.93,3.186,5.185,6.145,5.915c2.96,0.728,6.083-0.175,8.193-2.375l28.478-29.703l23.41,29.143
	c1.973,2.456,5.143,3.624,8.237,3.033c3.096-0.591,5.613-2.84,6.544-5.85l22.921-74.087c1.39-4.495-1.126-9.267-5.621-10.658
	c-4.494-1.389-9.266,1.127-10.658,5.621l-18.181,58.768l-19.445-24.207c-1.536-1.911-3.82-3.068-6.27-3.175
	c-2.45-0.11-4.826,0.846-6.523,2.615l-24.949,26.021l-38.003-132.095c-1.026-3.566-4.242-6.058-7.952-6.16
	c-3.716-0.095-7.058,2.208-8.281,5.711l-42.893,123.001l-25.196-17.328c-1.923-1.322-4.305-1.799-6.59-1.315
	c-2.284,0.483-4.27,1.881-5.494,3.869L124.12,351.53l-59.784-12.958c-4.359-0.945-8.705,1.629-9.973,5.903L10.617,491.922
	c-0.008,0.024-0.014,0.048-0.022,0.072l-0.019,0.065c-0.017,0.058-0.027,0.117-0.043,0.176c-0.056,0.203-0.109,0.407-0.15,0.616
	c-0.026,0.133-0.041,0.265-0.06,0.396c-0.02,0.142-0.045,0.282-0.059,0.426c-0.019,0.202-0.026,0.404-0.031,0.605
	c-0.001,0.068-0.01,0.135-0.01,0.203c0,0.01,0.001,0.022,0.001,0.032c0.001,0.231,0.015,0.46,0.035,0.688
	c0.005,0.057,0.005,0.115,0.01,0.172c0.022,0.202,0.056,0.402,0.092,0.601c0.015,0.082,0.023,0.166,0.04,0.247
	c0.028,0.134,0.067,0.265,0.102,0.396c0.036,0.141,0.068,0.284,0.111,0.421c0.001,0.002,0.001,0.005,0.002,0.006
	c0.276,0.877,0.696,1.689,1.223,2.419c0.676,0.938,1.544,1.74,2.57,2.346c0.097,0.058,0.19,0.119,0.29,0.174
	c0.084,0.045,0.174,0.083,0.26,0.125c0.169,0.084,0.339,0.169,0.515,0.242c0.061,0.025,0.125,0.044,0.186,0.068
	c0.206,0.08,0.412,0.156,0.625,0.22c0.011,0.003,0.022,0.008,0.033,0.011c0.027,0.008,0.055,0.01,0.082,0.018
	c0.318,0.091,0.644,0.16,0.976,0.215c0.095,0.016,0.191,0.032,0.287,0.044c0.324,0.041,0.652,0.067,0.986,0.07
	c0.032,0,0.064,0.007,0.095,0.007c0.009,0,0.018-0.002,0.027-0.002h480.534c4.687,0,8.494-3.786,8.52-8.472l2.229-404.264
	C510.081,86.177,507.196,82.648,503.186,81.859z"/>
<path d="M215.108,142.577c4.359,1.76,9.328-0.345,11.091-4.709l23.794-58.902l52.676,147.568c1.022,2.865,3.495,4.968,6.488,5.515
	c0.513,0.094,1.027,0.14,1.537,0.14c2.47,0,4.851-1.076,6.484-2.994l15.385-18.059l9.652,14.559
	c1.803,2.718,4.995,4.167,8.232,3.736c3.233-0.433,5.936-2.675,6.958-5.772l42.52-128.716l31.213,27.634
	c1.879,1.664,4.399,2.415,6.881,2.05c2.484-0.364,4.681-1.803,6.005-3.935l50.865-81.914l0.069,10.919
	c0.03,4.687,3.839,8.466,8.519,8.466c0.018,0,0.037,0,0.055,0c4.705-0.03,8.495-3.868,8.466-8.573l-0.202-31.929
	c-0.03-4.663-3.803-8.437-8.467-8.467l-31.928-0.201c-0.018,0-0.036,0-0.055,0c-4.68,0-8.489,3.779-8.519,8.466
	c-0.03,4.705,3.761,8.544,8.466,8.573l11.406,0.072l-47.826,77.021l-33.335-29.512c-2.147-1.899-5.101-2.593-7.868-1.846
	c-2.766,0.746-4.971,2.833-5.87,5.554l-41.075,124.343l-6.214-9.372c-1.479-2.23-3.919-3.636-6.59-3.796
	c-2.675-0.166-5.262,0.943-6.997,2.979l-13.164,15.453L258.51,52.138c-1.189-3.331-4.312-5.581-7.85-5.654
	c-3.541-0.059-6.75,2.047-8.075,5.327L210.4,131.485C208.638,135.849,210.745,140.814,215.108,142.577z"/>
<path d="M16.722,384.742l27.443-97.351l60.565,10.729c3.516,0.624,7.049-1.013,8.847-4.099l41.416-71.059l22.389,11.194
	c2.128,1.064,4.601,1.188,6.824,0.349c2.223-0.842,3.995-2.573,4.886-4.778l26.255-64.992c1.762-4.362-0.345-9.329-4.709-11.091
	c-4.363-1.762-9.328,0.345-11.091,4.709l-22.799,56.437l-21.282-10.641c-4.019-2.011-8.908-0.552-11.171,3.33l-42.446,72.827
	l-62.305-11.038c-4.316-0.762-8.499,1.864-9.687,6.078L0.322,380.119c-1.277,4.529,1.36,9.236,5.889,10.512
	c0.774,0.218,1.551,0.321,2.316,0.321C12.245,390.951,15.662,388.498,16.722,384.742z"/>
</svg>