<svg version="1.1" id="Layer_1" xmlns="http://www.w3.org/2000/svg" xmlns:xlink="http://www.w3.org/1999/xlink" x="0px" y="0px"
	 width="100%" viewBox="0 0 1278 582" enable-background="new 0 0 1278 582" xml:space="preserve">
<path fill="#7F7F7F" opacity="1.000000" stroke="none" 
	d="
M994.035522,358.876892 
	C1020.662842,358.917938 1047.290161,358.958984 1074.454590,359.418701 
	C1076.531616,360.610229 1078.070190,362.055389 1079.611938,362.058746 
	C1133.181885,362.175812 1186.752075,362.139526 1240.322144,362.207428 
	C1243.093018,362.210938 1245.088623,361.617462 1245.999756,358.833374 
	C1255.894409,358.833374 1265.789062,358.833374 1275.683716,358.833374 
	C1275.813110,359.274353 1275.942627,359.715363 1276.072021,360.156342 
	C1265.519653,369.184601 1254.945435,378.187408 1244.421997,387.249359 
	C1236.297241,394.245758 1228.268188,401.353271 1220.139404,408.344910 
	C1208.775635,418.119049 1197.325317,427.792786 1185.975342,437.582703 
	C1177.729980,444.694733 1169.628784,451.973877 1161.388062,459.091370 
	C1150.044312,468.888916 1138.602661,478.573242 1127.253662,488.364868 
	C1119.009399,495.477783 1110.890747,502.736237 1102.638184,509.839447 
	C1091.529663,519.400879 1080.313110,528.836792 1069.206055,538.399841 
	C1060.954468,545.504211 1052.819214,552.743408 1044.602783,559.888855 
	C1037.265381,566.269836 1029.912476,572.633789 1022.491577,578.916687 
	C1021.706238,579.581665 1020.437927,579.810913 1019.355347,579.955383 
	C1018.045227,580.130249 1016.694275,580.000977 1015.361023,580.000977 
	C764.869751,580.001099 514.378479,579.985962 263.887238,580.121643 
	C259.400970,580.124084 255.902542,578.952148 252.728867,576.178772 
	C241.671051,566.515747 230.722275,556.726807 219.597626,547.141785 
	C206.500000,535.856812 193.227234,524.775269 180.098236,513.526306 
	C171.955841,506.549866 163.974228,499.386047 155.858063,492.378571 
	C144.261200,482.365936 132.585388,472.444763 120.985222,462.435913 
	C112.992584,455.539734 105.108604,448.517548 97.108749,441.629822 
	C85.749878,431.850006 74.309036,422.165375 62.941742,412.395294 
	C55.188179,405.731110 47.491936,399.000092 39.785160,392.281616 
	C28.221262,382.200653 16.665987,372.109772 5.129176,361.997833 
	C4.599548,361.533630 4.286645,360.822113 2.997746,358.964874 
	C97.102646,358.964874 190.087143,358.964874 283.998230,358.983826 
	C287.088013,359.055939 289.251221,359.155609 291.414429,359.155670 
	C522.448120,359.162689 753.481873,359.162842 984.515564,359.153229 
	C986.677002,359.153137 988.838440,359.016968 991.378052,359.007812 
	C992.516052,359.006500 993.275757,358.941681 994.035522,358.876892 
z"/>
<path fill="#DA1B39" opacity="1.000000" stroke="none" 
	d="
M990.999878,358.944305 
	C988.838440,359.016968 986.677002,359.153137 984.515564,359.153229 
	C753.481873,359.162842 522.448120,359.162689 291.414429,359.155670 
	C289.251221,359.155609 287.088013,359.055939 284.462830,358.917480 
	C284.000702,312.514679 283.955109,266.196960 284.127625,219.880096 
	C284.136810,217.427322 285.359863,214.354568 287.078766,212.624527 
	C324.772583,174.685684 362.588867,136.868134 400.521637,99.168190 
	C402.260712,97.439766 405.305267,96.129700 407.743164,96.127449 
	C561.857117,95.985283 715.971191,96.015892 870.085205,95.936340 
	C875.944824,95.933311 878.699585,99.338264 881.192200,104.378883 
	C881.802795,105.377792 882.219482,105.810738 882.636169,106.243683 
	C883.653503,106.667213 884.670898,107.090744 885.806030,107.985214 
	C886.386169,108.860710 886.848450,109.265259 887.310791,109.669815 
	C887.310791,109.669815 887.250061,109.298553 887.250061,109.298553 
	C887.250061,109.298553 887.618286,109.223686 887.736084,109.744804 
	C888.235962,110.843941 888.617981,111.421959 889.278320,111.990707 
	C889.742065,111.973129 889.927490,111.964828 890.112915,111.956512 
	C892.766479,114.518364 895.419983,117.080238 898.278564,120.257263 
	C898.655762,121.581627 898.827881,122.290817 899.352173,122.993492 
	C900.174011,122.976913 900.643616,122.966850 901.113159,122.956871 
	C903.205078,124.823547 905.297119,126.690147 907.389099,128.556747 
	C906.936584,129.042831 906.484070,129.528915 906.031555,130.014999 
	C905.380493,129.485474 904.729431,128.955948 904.926819,128.438354 
	C906.462891,128.882370 907.150513,129.314423 907.838135,129.746460 
	C908.391174,130.322647 908.944153,130.898849 909.898071,131.961365 
	C910.570923,132.617767 910.842773,132.787903 911.114563,132.958038 
	C913.361694,135.253250 915.610779,137.546616 917.842590,139.856674 
	C917.889526,139.905197 917.757080,140.262146 917.673157,140.277039 
	C917.407593,140.324142 917.125305,140.276978 917.281616,140.250885 
	C918.225464,140.688309 918.737244,141.141113 919.248962,141.593903 
	C919.734192,141.992203 920.219360,142.390518 920.814209,143.122498 
	C921.386230,143.860672 921.848511,144.265198 922.310791,144.669724 
	C924.543518,146.689377 926.776245,148.709030 929.290039,151.314911 
	C929.920654,152.257019 930.270203,152.612900 930.619690,152.968796 
	C936.019958,158.148422 941.420227,163.328049 946.972412,169.180206 
	C947.812073,170.241409 948.499695,170.630112 949.187378,171.018799 
	C951.715515,173.632980 954.243713,176.247162 956.803406,179.159821 
	C957.250061,179.756577 957.665100,180.054871 958.080200,180.353149 
	C958.080200,180.353149 957.997375,180.125534 958.076416,180.140640 
	C958.155457,180.155746 958.299683,180.084427 958.299683,180.084442 
	C960.743164,182.435410 963.186646,184.786362 965.763916,187.777344 
	C966.265076,189.278259 966.632507,190.139130 967.440186,190.854706 
	C968.171265,190.604813 968.462158,190.500229 968.752991,190.395645 
	C970.314148,191.939545 971.875244,193.483459 973.720825,195.571518 
	C974.511902,196.476166 975.018433,196.836639 975.524963,197.197144 
	C975.552917,197.381714 975.580811,197.566269 975.607239,198.010620 
	C975.868469,198.650970 976.131104,199.031509 976.393738,199.412064 
	C977.444214,199.967514 978.494629,200.522949 979.657654,201.425430 
	C979.770203,201.772461 979.708069,202.022476 979.708069,202.022476 
	C979.708069,202.022476 980.022827,201.863037 980.022827,201.863052 
	C981.272278,203.006454 982.521790,204.149841 984.075684,205.772156 
	C984.626160,206.487839 984.872192,206.724594 985.118225,206.961365 
	C986.955444,208.707993 988.792664,210.454590 990.241272,211.831787 
	C989.808044,212.174561 989.989075,212.031357 990.252014,212.770874 
	C990.222656,214.102386 990.111328,214.551193 990.144043,215.250244 
	C990.858704,216.000336 991.429382,216.500168 992.000000,217.375000 
	C992.000000,218.500000 992.000000,219.250000 992.000000,220.468658 
	C991.666565,266.939636 991.333191,312.941986 990.999878,358.944305 
z"/>
<path fill="#00B050" opacity="1.000000" stroke="none" 
	d="
M1245.963379,358.430420 
	C1245.088623,361.617462 1243.093018,362.210938 1240.322144,362.207428 
	C1186.752075,362.139526 1133.181885,362.175812 1079.611938,362.058746 
	C1078.070190,362.055389 1076.531616,360.610229 1074.912842,359.418701 
	C1076.223999,347.743713 1077.592529,336.484589 1079.009766,325.231628 
	C1080.611694,312.512146 1082.330933,299.807007 1083.860352,287.078949 
	C1085.019653,277.432831 1085.895630,267.752930 1087.017700,258.102051 
	C1088.213623,247.815414 1089.604614,237.551529 1090.810181,227.265991 
	C1091.941162,217.617676 1092.868896,207.945404 1094.017212,198.299301 
	C1095.571899,185.241058 1097.311890,172.204834 1098.857788,159.145584 
	C1100.000000,149.497086 1100.897827,139.819839 1102.016357,130.168381 
	C1103.208740,119.880562 1104.579834,109.613503 1105.785278,99.327118 
	C1106.916016,89.679588 1107.867432,80.010933 1109.015015,70.365517 
	C1110.568604,57.306320 1112.292480,44.267323 1113.828247,31.206125 
	C1114.674805,24.005827 1115.520996,16.790190 1115.901367,9.556958 
	C1116.084106,6.078125 1117.218384,4.938426 1120.644775,4.950593 
	C1147.143799,5.044696 1173.643433,5.052645 1200.142334,4.940939 
	C1203.634766,4.926218 1204.677246,6.413525 1205.035278,9.574927 
	C1206.923218,26.244020 1209.032837,42.887989 1210.925415,59.556576 
	C1212.392944,72.481819 1213.532593,85.444695 1215.042358,98.364624 
	C1216.510986,110.932846 1218.346436,123.457832 1219.867432,136.020386 
	C1221.035156,145.665100 1221.883423,155.348251 1223.019287,164.997162 
	C1224.537720,177.895370 1226.260742,190.769516 1227.774902,203.668198 
	C1228.946167,213.644547 1229.864502,223.650482 1231.019043,233.628922 
	C1232.171509,243.590256 1233.519287,253.528854 1234.704834,263.486511 
	C1235.853027,273.129364 1236.853638,282.789825 1238.009644,292.431702 
	C1239.594849,305.653656 1241.321655,318.858795 1242.877441,332.084076 
	C1243.705078,339.119446 1244.273193,346.185028 1245.020386,353.230408 
	C1245.191406,354.843353 1245.618042,356.429169 1245.963379,358.430420 
z"/>
<path fill="#DA1B39" opacity="1.000000" stroke="none" 
	d="
M991.378052,359.007812 
	C991.333191,312.941986 991.666565,266.939636 992.243896,220.098587 
	C992.936279,218.495483 993.384766,217.731110 993.833313,216.966751 
	C993.888855,243.796692 993.959290,270.626617 993.995178,297.456573 
	C994.022156,317.623108 994.004761,337.789703 994.021301,358.416565 
	C993.275757,358.941681 992.516052,359.006500 991.378052,359.007812 
z"/>
<path fill="#DA1B39" opacity="1.000000" stroke="none" 
	d="
M993.898804,216.750473 
	C993.384766,217.731110 992.936279,218.495483 992.243896,219.629929 
	C992.000000,219.250000 992.000000,218.500000 992.000000,217.041672 
	C992.000000,215.888901 992.000000,215.444443 992.167114,214.825409 
	C992.334229,214.650803 992.668213,214.301376 992.668213,214.301376 
	C993.100220,215.045639 993.532227,215.789917 993.898804,216.750473 
z"/>
<path fill="#DA1B39" opacity="1.000000" stroke="none" 
	d="
M990.000000,215.000000 
	C990.111328,214.551193 990.222656,214.102386 990.504761,212.981293 
	C991.239319,212.849915 991.803040,213.390839 992.517517,214.116577 
	C992.668213,214.301376 992.334229,214.650803 991.833801,214.825409 
	C990.888916,215.000000 990.444458,215.000000 990.000000,215.000000 
z"/>
<path fill="#DA1B39" opacity="1.000000" stroke="none" 
	d="
M899.000000,123.000000 
	C898.827881,122.290817 898.655762,121.581627 898.457031,120.507301 
	C898.902710,120.554276 899.374939,120.966370 899.784973,121.831367 
	C899.481812,122.522842 899.240906,122.761414 899.000000,123.000000 
z"/>
<path fill="#DA1B39" opacity="1.000000" stroke="none" 
	d="
M967.000000,191.000000 
	C966.632507,190.139130 966.265076,189.278259 965.904907,188.056442 
	C966.321960,188.038147 966.731750,188.380783 967.184692,189.400421 
	C967.151917,190.384949 967.075989,190.692474 967.000000,191.000000 
z"/>
<path fill="#DA1B39" opacity="1.000000" stroke="none" 
	d="
M887.302124,109.338478 
	C886.848450,109.265259 886.386169,108.860710 885.521973,108.207703 
	C885.844604,108.308548 886.569031,108.657852 887.302124,109.338478 
z"/>
<path fill="#DA1B39" opacity="1.000000" stroke="none" 
	d="
M980.036987,201.787842 
	C980.022827,201.863037 979.708069,202.022476 979.708069,202.022476 
	C979.708069,202.022476 979.770203,201.772461 979.836670,201.723145 
	C979.903076,201.673843 980.051086,201.712646 980.036987,201.787842 
z"/>
<path fill="#DA1B39" opacity="1.000000" stroke="none" 
	d="
M975.330994,196.956024 
	C975.018433,196.836639 974.511902,196.476166 973.831482,195.836670 
	C974.150757,195.943405 974.643921,196.329163 975.330994,196.956024 
z"/>
<path fill="#DA1B39" opacity="1.000000" stroke="none" 
	d="
M948.976990,170.655029 
	C948.499695,170.630112 947.812073,170.241409 946.807007,169.373123 
	C947.248657,169.359436 948.007629,169.825348 948.976990,170.655029 
z"/>
<path fill="#DA1B39" opacity="1.000000" stroke="none" 
	d="
M922.302124,144.338440 
	C921.848511,144.265198 921.386230,143.860672 920.522034,143.207703 
	C920.844604,143.308548 921.569092,143.657867 922.302124,144.338440 
z"/>
<path fill="#DA1B39" opacity="1.000000" stroke="none" 
	d="
M919.197266,141.230927 
	C918.737244,141.141113 918.225464,140.688309 917.354980,139.865204 
	C917.712708,139.952576 918.429138,140.410233 919.197266,141.230927 
z"/>
<path fill="#DA1B39" opacity="1.000000" stroke="none" 
	d="
M907.615662,129.375305 
	C907.150513,129.314423 906.462891,128.882370 905.503723,128.152878 
	C905.952515,128.238342 906.672852,128.621231 907.615662,129.375305 
z"/>
<path fill="#DA1B39" opacity="1.000000" stroke="none" 
	d="
M899.352173,122.993484 
	C899.240906,122.761414 899.481812,122.522842 899.915161,122.117889 
	C900.381836,122.129997 900.656128,122.308495 901.021790,122.721893 
	C900.643616,122.966850 900.174011,122.976913 899.352173,122.993484 
z"/>
<path fill="#DA1B39" opacity="1.000000" stroke="none" 
	d="
M889.000000,111.999992 
	C888.617981,111.421959 888.235962,110.843941 887.831543,109.905594 
	C888.126160,109.794662 888.443115,110.044052 888.879639,110.859604 
	C888.999512,111.617180 888.999756,111.808586 889.000000,111.999992 
z"/>
<path fill="#DA1B39" opacity="1.000000" stroke="none" 
	d="
M957.941040,179.914551 
	C957.665100,180.054871 957.250061,179.756577 956.459778,179.331802 
	C956.656982,179.295517 957.229431,179.385727 957.941040,179.914551 
z"/>
<path fill="#DA1B39" opacity="1.000000" stroke="none" 
	d="
M958.286377,180.064453 
	C958.299683,180.084427 958.155457,180.155746 958.190308,180.099472 
	C958.225159,180.043198 958.273010,180.044464 958.286377,180.064453 
z"/>
<path fill="#DA1B39" opacity="1.000000" stroke="none" 
	d="
M930.539917,152.554321 
	C930.270203,152.612900 929.920654,152.257019 929.302002,151.640503 
	C929.508667,151.633194 929.984436,151.886505 930.539917,152.554321 
z"/>
<path fill="#DA1B39" opacity="1.000000" stroke="none" 
	d="
M967.440186,190.854706 
	C967.075989,190.692474 967.151917,190.384949 967.347046,189.617157 
	C967.766663,189.416885 968.067139,189.676880 968.560303,190.166260 
	C968.462158,190.500229 968.171265,190.604813 967.440186,190.854706 
z"/>
<path fill="#DA1B39" opacity="1.000000" stroke="none" 
	d="
M976.529175,198.952515 
	C976.131104,199.031509 975.868469,198.650970 975.330444,198.052612 
	C975.591553,198.054169 976.128052,198.273575 976.529175,198.952515 
z"/>
<path fill="#DA1B39" opacity="1.000000" stroke="none" 
	d="
M910.998535,132.692322 
	C910.842773,132.787903 910.570923,132.617767 909.919800,132.164780 
	C909.987854,132.063492 910.435181,132.245056 910.998535,132.692322 
z"/>
<path fill="#DA1B39" opacity="1.000000" stroke="none" 
	d="
M985.014954,206.712433 
	C984.872192,206.724594 984.626160,206.487839 984.206299,206.062912 
	C984.325623,206.070984 984.618652,206.267242 985.014954,206.712433 
z"/>
<path fill="#DA1B39" opacity="1.000000" stroke="none" 
	d="
M889.278320,111.990723 
	C888.999756,111.808586 888.999512,111.617180 888.998413,111.136848 
	C889.298401,111.048531 889.599182,111.249138 890.006470,111.703133 
	C889.927490,111.964828 889.742065,111.973129 889.278320,111.990723 
z"/>
<path fill="#DA1B39" opacity="1.000000" stroke="none" 
	d="
M882.716064,105.614265 
	C882.219482,105.810738 881.802795,105.377792 881.012329,104.692444 
	C881.357727,104.621651 882.076904,104.803246 882.716064,105.614265 
z"/>
<path fill="#DA1B39" opacity="1.000000" stroke="none" 
	d="
M990.144043,215.250244 
	C990.444458,215.000000 990.888916,215.000000 991.666687,215.000000 
	C992.000000,215.444443 992.000000,215.888901 992.000000,216.666672 
	C991.429382,216.500168 990.858704,216.000336 990.144043,215.250244 
z"/>
</svg>