<svg version="1.1" id="Layer_1" xmlns="http://www.w3.org/2000/svg" xmlns:xlink="http://www.w3.org/1999/xlink" x="0px" y="0px"
	 width="100%" viewBox="0 0 1278 490" enable-background="new 0 0 1278 490" xml:space="preserve">
<path fill="#7F7F7F" opacity="1.000000" stroke="none" 
	d="
M994.068970,266.917755 
	C1047.553833,266.945526 1101.038696,266.980804 1154.523560,266.998657 
	C1193.179932,267.011566 1231.836182,267.001312 1270.492554,267.001434 
	C1272.306152,267.001465 1274.119751,267.001434 1277.513184,267.001434 
	C1272.606445,271.473328 1268.765259,275.140442 1264.746826,278.601715 
	C1256.249756,285.920837 1247.635864,293.104248 1239.113525,300.394440 
	C1225.058228,312.417664 1211.002808,324.441010 1197.015503,336.543030 
	C1188.397461,343.999542 1179.966553,351.672607 1171.342041,359.121521 
	C1160.397217,368.574524 1149.305908,377.857849 1138.344604,387.292023 
	C1129.995117,394.478180 1121.792480,401.835114 1113.448608,409.027802 
	C1099.750000,420.836456 1085.970581,432.551514 1072.262207,444.348907 
	C1064.249146,451.244934 1056.295044,458.209839 1048.337402,465.169861 
	C1040.130859,472.347473 1031.981323,479.590485 1023.719727,486.703827 
	C1022.822144,487.476624 1021.375366,487.768646 1020.135071,487.945312 
	C1018.665100,488.154694 1017.142822,487.998657 1015.643250,487.998657 
	C765.376892,487.998840 515.110535,487.981812 264.844238,488.112000 
	C259.425903,488.114807 254.995056,487.062042 250.959412,483.464752 
	C239.998703,473.694519 228.984238,463.981934 217.862442,454.395691 
	C204.636581,442.995880 191.232056,431.803497 177.990952,420.421143 
	C169.477295,413.102631 161.174286,405.539337 152.676590,398.201843 
	C141.572220,388.613586 130.335876,379.178253 119.218842,369.604462 
	C110.959869,362.492035 102.836235,355.222534 94.588570,348.096802 
	C80.736214,336.128845 66.805107,324.252014 52.960346,312.275330 
	C41.976238,302.773285 31.125166,293.117126 20.110878,283.650543 
	C13.999000,278.397491 7.673610,273.392853 1.222228,268.638123 
	C1.000000,268.555542 1.000000,268.111115 1.000000,267.333313 
	C94.996696,266.995544 188.993393,266.991089 283.815643,267.170532 
	C286.292542,267.488831 287.943878,267.740814 289.595215,267.740936 
	C522.471436,267.758484 755.347717,267.759796 988.223938,267.723083 
	C990.172363,267.722778 992.120605,267.197754 994.068970,266.917755 
z"/>
<path fill="#DA1B39" opacity="1.000000" stroke="none" 
	d="
M994.041016,266.454926 
	C992.120605,267.197754 990.172363,267.722778 988.223938,267.723083 
	C755.347717,267.759796 522.471436,267.758484 289.595215,267.740936 
	C287.943878,267.740814 286.292542,267.488831 284.278320,267.143372 
	C283.943939,220.785507 284.015778,174.638626 283.917603,128.492096 
	C283.909851,124.853493 284.992859,122.383278 287.547943,119.838943 
	C325.087616,82.457092 362.550873,44.998253 399.921539,7.447466 
	C402.502319,4.854216 405.043732,3.930352 408.622009,3.932222 
	C562.225403,4.012494 715.828857,4.013338 869.432251,3.927521 
	C873.035034,3.925508 875.547913,4.912057 878.113342,7.489302 
	C915.605225,45.154358 953.189087,82.727966 990.835144,120.238945 
	C993.140320,122.535805 994.071655,124.803940 994.065125,128.046753 
	C993.972595,174.028381 994.008301,220.010269 994.041016,266.454926 
z"/>
</svg>