<svg version="1.1" id="Layer_1" xmlns="http://www.w3.org/2000/svg" xmlns:xlink="http://www.w3.org/1999/xlink" x="0px" y="0px"
	 width="100%" viewBox="0 0 779 504" enable-background="new 0 0 779 504" xml:space="preserve">
<path fill="#00B050" opacity="1.000000" stroke="none" 
	d="
M610.001587,275.166565 
	C574.338562,275.125244 538.675476,275.082581 503.012421,275.057159 
	C502.541107,275.056824 502.069672,275.275116 501.228149,275.482635 
	C494.913391,337.014679 469.943085,390.011719 425.221649,432.742554 
	C371.841156,483.747009 307.175446,507.500214 233.856277,501.585815 
	C91.243759,490.081665 -7.399607,369.382385 3.312919,232.822052 
	C13.284579,105.706085 113.311104,15.045835 226.013504,4.107492 
	C295.144958,-2.602067 357.438477,15.587469 411.140198,59.879097 
	C464.614929,103.983475 494.079987,161.363388 501.438019,230.958908 
	C537.210754,230.958908 573.141113,230.958908 609.920532,231.053284 
	C611.170715,232.160080 611.914246,233.170273 611.920837,234.185272 
	C612.001892,246.671814 612.028137,259.159637 611.890381,271.645142 
	C611.877380,272.825745 610.659851,273.993073 610.001587,275.166565 
z"/>
<path fill="#595959" opacity="1.000000" stroke="none" 
	d="
M610.001587,275.624359 
	C610.659851,273.993073 611.877380,272.825745 611.890381,271.645142 
	C612.028137,259.159637 612.001892,246.671814 611.920837,234.185272 
	C611.914246,233.170273 611.170715,232.160080 610.385620,230.990509 
	C610.001587,216.199188 610.001587,201.564987 610.001587,185.949036 
	C624.607117,185.949036 638.838074,185.949036 654.001038,185.947357 
	C668.622253,185.911026 682.311523,185.876343 696.000732,185.841660 
	C710.445312,185.841660 724.889954,185.841660 739.663330,185.841660 
	C739.663330,229.200714 739.663330,271.753387 739.663330,314.653137 
	C696.486755,314.653137 653.601074,314.653137 610.001587,314.653137 
	C610.001587,301.628265 610.001587,288.855194 610.001587,275.624359 
z"/>
<path fill="#2BB4C1" opacity="1.000000" stroke="none" 
	d="
M696.000610,185.385437 
	C682.311523,185.876343 668.622253,185.911026 654.466980,185.892609 
	C654.000916,163.729233 654.000916,141.618942 654.000916,119.168335 
	C626.967712,119.168335 600.374939,119.168335 573.392334,119.168335 
	C573.392334,110.120667 573.392334,101.401268 573.392334,92.156868 
	C599.986267,92.156868 626.699341,92.156868 653.940552,92.156868 
	C653.940552,86.263901 653.940552,80.863113 653.940552,75.242096 
	C668.067322,75.242096 681.664490,75.242096 695.794617,75.242096 
	C695.794617,80.588638 695.794617,85.985916 695.794617,92.026703 
	C721.905029,92.026703 747.488586,92.026703 773.536072,92.554939 
	C774.000122,101.666542 774.000183,110.249916 774.000305,118.833282 
	C748.229858,118.833282 722.459473,118.833282 696.000488,118.833282 
	C696.000488,141.149033 696.000488,163.039124 696.000610,185.385437 
z"/>
<path fill="#2BB4C1" opacity="1.000000" stroke="none" 
	d="
M774.434631,118.900063 
	C774.000183,110.249916 774.000122,101.666542 774.000122,92.624954 
	C774.644958,92.439575 775.837830,92.682976 775.854309,92.989578 
	C776.294739,101.188438 776.647034,109.392929 776.863037,117.600456 
	C776.874573,118.038139 775.564087,118.510590 774.434631,118.900063 
z"/>
</svg>