<?xml version="1.0" encoding="UTF-8"?>
<svg version="1.1" xmlns="http://www.w3.org/2000/svg" width="198" height="198">
<path d="M0 0 C4.74375 -0.226875 9.4875 -0.45375 14.375 -0.6875 C15.8501709 -0.78764404 17.3253418 -0.88778809 18.84521484 -0.9909668 C24.45171743 -1.12005642 28.4401505 -1.15129079 33.05639648 2.25585938 C35.64302573 5.04428239 37.85617071 7.86132007 40 11 C40.47308594 11.66265869 40.94617188 12.32531738 41.43359375 13.00805664 C58.37982866 38.36445315 59.88677302 69.74309946 54.2578125 98.8359375 C48.92020999 121.36723305 35.54142014 140.60987515 15.86865234 152.88867188 C-12.76814287 169.91959581 -45.02723933 170.47570095 -77.3548584 170.20599365 C-81.49889448 170.17480995 -85.64298876 170.16149922 -89.78710938 170.14648438 C-97.85824626 170.11470756 -105.92903969 170.06213088 -114 170 C-114 163.4 -114 156.8 -114 150 C-103.44 150 -92.88 150 -82 150 C-82 135.15 -82 120.3 -82 105 C-78.69742188 104.96261719 -75.39484375 104.92523438 -71.9921875 104.88671875 C-68.74847262 104.84033991 -65.50486573 104.78916604 -62.26123047 104.73754883 C-60.02887689 104.70455442 -57.79644499 104.67644565 -55.56396484 104.65356445 C-31.24466477 105.26322592 -31.24466477 105.26322592 -10.0703125 95.17578125 C-2.08406425 86.47706687 -0.51784096 78.50781692 -0.71875 67.05859375 C-1.1048713 58.71644306 -4.96744498 52.43048697 -10 46 C-6.7 46 -3.4 46 0 46 C0 30.82 0 15.64 0 0 Z " fill="#40B9CD" transform="translate(114,28)"/>
<path d="M0 0 C100.26778243 0 100.26778243 0 130 17 C130.99 17.99 131.98 18.98 133 20 C124.09 20 115.18 20 106 20 C106 35.18 106 50.36 106 66 C100.864375 66.0309375 100.864375 66.0309375 95.625 66.0625 C94.60873535 66.071604 93.5924707 66.08070801 92.54541016 66.09008789 C80.33133123 66.12362522 68.24161605 65.47083139 56 65 C56 84.8 56 104.6 56 125 C45.44 125 34.88 125 24 125 C24 139.85 24 154.7 24 170 C16.08 170 8.16 170 0 170 C0 113.9 0 57.8 0 0 Z " fill="#EC1E23" transform="translate(0,0)"/>
</svg>
