<?xml version="1.0" encoding="UTF-8"?>
<svg version="1.1" xmlns="http://www.w3.org/2000/svg" width="567" height="198">
<path d="M0 0 C4.74375 -0.226875 9.4875 -0.45375 14.375 -0.6875 C15.8501709 -0.78764404 17.3253418 -0.88778809 18.84521484 -0.9909668 C24.45171743 -1.12005642 28.4401505 -1.15129079 33.05639648 2.25585938 C35.64302573 5.04428239 37.85617071 7.86132007 40 11 C40.47308594 11.66265869 40.94617188 12.32531738 41.43359375 13.00805664 C58.37982866 38.36445315 59.88677302 69.74309946 54.2578125 98.8359375 C48.92020999 121.36723305 35.54142014 140.60987515 15.86865234 152.88867188 C-12.76814287 169.91959581 -45.02723933 170.47570095 -77.3548584 170.20599365 C-81.49889448 170.17480995 -85.64298876 170.16149922 -89.78710938 170.14648438 C-97.85824626 170.11470756 -105.92903969 170.06213088 -114 170 C-114 163.4 -114 156.8 -114 150 C-103.44 150 -92.88 150 -82 150 C-82 135.15 -82 120.3 -82 105 C-78.69742188 104.96261719 -75.39484375 104.92523438 -71.9921875 104.88671875 C-68.74847262 104.84033991 -65.50486573 104.78916604 -62.26123047 104.73754883 C-60.02887689 104.70455442 -57.79644499 104.67644565 -55.56396484 104.65356445 C-31.24466477 105.26322592 -31.24466477 105.26322592 -10.0703125 95.17578125 C-2.08406425 86.47706687 -0.51784096 78.50781692 -0.71875 67.05859375 C-1.1048713 58.71644306 -4.96744498 52.43048697 -10 46 C-6.7 46 -3.4 46 0 46 C0 30.82 0 15.64 0 0 Z " fill="#40B9CD" transform="translate(114,28)"/>
<path d="M0 0 C100.26778243 0 100.26778243 0 130 17 C130.99 17.99 131.98 18.98 133 20 C124.09 20 115.18 20 106 20 C106 35.18 106 50.36 106 66 C100.864375 66.0309375 100.864375 66.0309375 95.625 66.0625 C94.60873535 66.071604 93.5924707 66.08070801 92.54541016 66.09008789 C80.33133123 66.12362522 68.24161605 65.47083139 56 65 C56 84.8 56 104.6 56 125 C45.44 125 34.88 125 24 125 C24 139.85 24 154.7 24 170 C16.08 170 8.16 170 0 170 C0 113.9 0 57.8 0 0 Z " fill="#EC1E23" transform="translate(0,0)"/>
<path d="M0 0 C8.5086004 7.76811465 13.1971499 16.75013654 14.19411087 28.23640633 C14.28209497 30.55659068 14.31257706 32.86981946 14.31884766 35.19165039 C14.32889328 36.06103241 14.3389389 36.93041443 14.34928894 37.82614136 C14.37989401 40.6666403 14.39709238 43.507046 14.4140625 46.34765625 C14.43279243 48.33020314 14.45236718 50.31274222 14.4727478 52.29527283 C14.5238822 57.48846814 14.56360755 62.68168924 14.60089111 67.875 C14.64104845 73.1843087 14.69208707 78.49351184 14.7421875 83.80273438 C14.83872531 94.20175581 14.92219356 104.60082152 15 115 C5.76 115 -3.48 115 -13 115 C-13.99 109.06 -13.99 109.06 -15 103 C-16.216875 104.19625 -17.43375 105.3925 -18.6875 106.625 C-30.77374121 117.42587905 -43.98703507 118.86996378 -59.43164062 118.21337891 C-69.89410755 117.34415875 -78.25629912 111.85342381 -85 104 C-92.1768203 93.91365796 -93.77244199 83.64645414 -92.58984375 71.48828125 C-90.82722733 61.06433114 -86.0121295 52.87093598 -78 46 C-62.92246526 35.40173287 -44.57046816 34.10245832 -26.82763672 37.07958984 C-23.54107181 37.67319848 -20.26982767 38.32013484 -17 39 C-18.15088542 28.77770579 -18.15088542 28.77770579 -23 20 C-35.4727028 11.91701324 -49.02601277 13.13265223 -63.0390625 16.06640625 C-67.95343364 17.17520973 -72.74267155 18.64676589 -77.5234375 20.23046875 C-80 21 -80 21 -82 21 C-82 13.08 -82 5.16 -82 -3 C-71.83176215 -7.51921682 -71.83176215 -7.51921682 -66.875 -8.6875 C-65.92367188 -8.91824219 -64.97234375 -9.14898437 -63.9921875 -9.38671875 C-42.68380531 -13.75410257 -18.0067636 -13.43235816 0 0 Z M-59.375 68.5625 C-61.67768515 73.43356475 -61.77379561 77.70186881 -61 83 C-58.46037757 88.37227821 -54.64724373 91.54110251 -49.125 93.75 C-38.94437097 94.94772106 -29.99748293 92.64673838 -21.8125 86.3125 C-20.15422776 84.91716101 -18.53197567 83.53197567 -17 82 C-16.91348389 80.58429877 -16.89295096 79.164405 -16.90234375 77.74609375 C-16.90556641 76.89208984 -16.90878906 76.03808594 -16.91210938 75.15820312 C-16.92048828 74.26037109 -16.92886719 73.36253906 -16.9375 72.4375 C-16.94201172 71.53580078 -16.94652344 70.63410156 -16.95117188 69.70507812 C-16.96299775 67.46998686 -16.9794778 65.23502563 -17 63 C-31.18898096 58.81977327 -48.39386029 56.71442821 -59.375 68.5625 Z " fill="#616161" transform="translate(552,80)"/>
<path d="M0 0 C13.50225793 9.86979208 18.54196279 24.62287051 21.20703125 40.61328125 C21.20703125 48.86328125 21.20703125 57.11328125 21.20703125 65.61328125 C-5.52296875 65.61328125 -32.25296875 65.61328125 -59.79296875 65.61328125 C-55.12701086 81.2856925 -55.12701086 81.2856925 -43.79296875 90.98828125 C-26.35774868 99.02952499 -6.76041857 95.2214981 10.9765625 90.41796875 C14.20703125 89.61328125 14.20703125 89.61328125 17.20703125 89.61328125 C17.20703125 97.53328125 17.20703125 105.45328125 17.20703125 113.61328125 C3.89047381 120.27155997 -10.41779548 121.01659258 -25.10546875 121.11328125 C-25.77189392 121.1235434 -26.43831909 121.13380554 -27.12493896 121.14437866 C-45.05723406 121.36422237 -62.3058518 116.75735702 -75.5390625 104.09765625 C-90.0104396 88.14653696 -91.72738974 69.23692613 -90.97949219 48.64501953 C-90.06477064 33.7772026 -84.32861963 18.33897169 -73.890625 7.44921875 C-53.47534701 -10.41890165 -23.49823285 -15.29852639 0 0 Z M-52.23046875 24.42578125 C-55.91228016 29.9537134 -57.79296875 34.87319276 -57.79296875 41.61328125 C-42.28296875 41.61328125 -26.77296875 41.61328125 -10.79296875 41.61328125 C-10.79296875 33.74710048 -11.67318512 28.82323932 -15.98046875 22.30078125 C-21.10567189 17.40336491 -25.5307128 15.389778 -32.66796875 15.05078125 C-40.71906037 15.36591236 -47.1358207 18.07937692 -52.23046875 24.42578125 Z " fill="#616161" transform="translate(285.79296875,77.38671875)"/>
<path d="M0 0 C4.9984832 -0.22353892 9.99402457 -0.38625521 14.99633789 -0.49438477 C16.6950958 -0.53947595 18.39350763 -0.60077273 20.09106445 -0.67895508 C34.12789196 -1.3089447 34.12789196 -1.3089447 38.5078125 1.75341797 C40.32950647 4.07607779 41.65828822 6.37482248 43 9 C43.97576878 10.39558188 44.9727652 11.77660459 45.9921875 13.140625 C46.95551962 14.50873367 47.91642567 15.87855356 48.875 17.25 C49.63828613 18.33655884 49.63828613 18.33655884 50.41699219 19.44506836 C54.97528041 25.94212758 59.49838548 32.46356478 64 39 C69.90334747 32.06222911 75.03362008 24.70412598 80.07885742 17.12963867 C81.13819456 15.55251997 82.21985492 13.99018787 83.32226562 12.44287109 C85.06345458 9.99427484 85.06345458 9.99427484 86.53710938 7.20166016 C88.73466315 3.66540273 90.66568649 0.62358265 94.8840332 -0.5032959 C100.41685637 -1.24454297 105.94419565 -0.91077022 111.5 -0.625 C113.19778555 -0.57477924 114.89571389 -0.52916232 116.59375 -0.48828125 C120.7327206 -0.37866322 124.86477738 -0.20650697 129 0 C127.17140483 3.13585051 125.27044898 6.07731821 123.03125 8.93359375 C122.46599609 9.65740234 121.90074219 10.38121094 121.31835938 11.12695312 C120.71830078 11.88943359 120.11824219 12.65191406 119.5 13.4375 C118.56124023 14.63729492 118.56124023 14.63729492 117.60351562 15.86132812 C115.73866225 18.24324584 113.86998583 20.62211047 112 23 C111.04164531 24.22003531 110.08330991 25.44008577 109.125 26.66015625 C107.81826922 28.3231153 106.51118398 29.98579053 105.203125 31.64770508 C101.28565485 36.62735693 97.39068796 41.62440414 93.5 46.625 C92.89994141 47.39585938 92.29988281 48.16671875 91.68164062 48.9609375 C91.11638672 49.68796875 90.55113281 50.415 89.96875 51.1640625 C89.46794922 51.80811035 88.96714844 52.4521582 88.45117188 53.11572266 C87.97228516 53.73753418 87.49339844 54.3593457 87 55 C86.15272339 56.03954834 86.15272339 56.03954834 85.28833008 57.10009766 C83.71702508 58.93749787 83.71702508 58.93749787 84.41796875 61.234375 C86.68949728 65.20534339 89.45865063 68.68259258 92.3125 72.25 C93.58919146 73.86797706 94.8652181 75.48647891 96.140625 77.10546875 C96.78708984 77.92321777 97.43355469 78.7409668 98.09960938 79.58349609 C100.95630715 83.21602366 103.76181858 86.88671309 106.5625 90.5625 C107.0874707 91.25021484 107.61244141 91.93792969 108.15332031 92.64648438 C109.76951098 94.76384243 111.38476259 96.88191469 113 99 C115.35322549 102.08405298 117.70764565 105.16719067 120.0625 108.25 C120.86699585 109.30489624 120.86699585 109.30489624 121.68774414 110.38110352 C122.19426514 111.04424561 122.70078613 111.7073877 123.22265625 112.390625 C123.69719238 113.01259766 124.17172852 113.63457031 124.66064453 114.27539062 C125.86642035 115.82799733 127.11626458 117.34613785 128.37109375 118.859375 C130 121 130 121 130 123 C99.46773567 125.98648396 99.46773567 125.98648396 91.14648438 121.44140625 C86.68923756 117.31029945 84.07379913 112.16538704 81.44384766 106.75146484 C78.9295651 101.96012828 75.58908491 97.78870408 72.3125 93.5 C71.16145593 91.92803769 70.01161828 90.35519092 68.86328125 88.78125 C67.05896652 86.31152065 65.21140615 84.11536467 63 82 C62.64921387 82.47606689 62.29842773 82.95213379 61.93701172 83.44262695 C60.86850069 84.89274907 59.7999773 86.34286208 58.73144531 87.79296875 C57.48330979 89.48691385 56.23526439 91.18092537 54.98730469 92.875 C51.6681088 97.38045488 48.34740964 101.8847862 45.0234375 106.38671875 C44.07428467 107.67292114 44.07428467 107.67292114 43.10595703 108.98510742 C41.88612961 110.6380201 40.66576786 112.29053861 39.44482422 113.94262695 C38.89068848 114.69374756 38.33655273 115.44486816 37.765625 116.21875 C37.27868164 116.87810547 36.79173828 117.53746094 36.29003906 118.21679688 C35.15577103 119.78467986 34.07343031 121.38985454 33 123 C30.23371085 123.2667616 27.69380369 123.34804189 24.9296875 123.29296875 C24.13345978 123.28872391 23.33723206 123.28447906 22.51687622 123.28010559 C19.96924271 123.26328834 17.42239511 123.22563179 14.875 123.1875 C13.14975099 123.17245705 11.42448961 123.15876796 9.69921875 123.14648438 C5.46584218 123.11337501 1.23305441 123.06157285 -3 123 C0.74220294 117.19184123 4.69458663 111.73571223 9.125 106.4375 C14.12587569 100.37291405 18.9215814 94.19345571 23.60424805 87.88085938 C27.39904199 82.77323438 31.29302485 77.75358788 35.26025391 72.77880859 C36.09423448 71.7288608 36.92159719 70.67361654 37.74169922 69.61279297 C38.63794212 68.46405788 39.55917981 67.33463988 40.49658203 66.21923828 C42.15628865 64.22175128 42.15628865 64.22175128 44 61 C43.33572158 56.33561023 39.70439369 52.91068702 36.75 49.375 C32.02686315 43.60315691 27.51617426 37.71548571 23.125 31.6875 C17.71507953 24.26400471 12.15479429 16.97908206 6.44189453 9.78588867 C5.61214111 8.73365112 5.61214111 8.73365112 4.765625 7.66015625 C4.27868164 7.04793213 3.79173828 6.43570801 3.29003906 5.80493164 C1.96100017 3.9454342 0.96578712 2.06811853 0 0 Z " fill="#616161" transform="translate(320,72)"/>
</svg>
