<svg version="1.1" id="Layer_1" xmlns="http://www.w3.org/2000/svg" xmlns:xlink="http://www.w3.org/1999/xlink" x="0px" y="0px"
	 width="100%" viewBox="0 0 1145 87" enable-background="new 0 0 1145 87" xml:space="preserve">
<path fill="#595959" opacity="1.000000" stroke="none" 
	d="
M1146.000000,4.000000 
	C1146.000000,31.990870 1146.000000,59.981739 1146.000000,87.950470 
	C764.333313,87.950470 382.666656,87.950470 1.000000,87.950470 
	C1.000000,60.243217 1.000000,32.585491 1.443738,4.562753 
	C3.882864,4.131401 5.878249,4.006978 7.873637,4.006936 
	C387.249084,3.998844 766.624573,3.999575 1146.000000,4.000000 
M16.000235,51.499779 
	C16.000235,58.296295 16.000235,65.092812 16.000235,72.106262 
	C387.885773,72.106262 759.268127,72.106262 1130.639160,72.106262 
	C1130.639160,54.131554 1130.639160,36.563183 1130.639160,18.805618 
	C759.019836,18.805618 387.761444,18.805618 16.000235,18.805618 
	C16.000235,29.575703 16.000235,40.037800 16.000235,51.499779 
z"/>
<path fill="#000000" opacity="1.000000" stroke="none" 
	d="
M1146.000000,3.500004 
	C766.624573,3.999575 387.249084,3.998844 7.873637,4.006936 
	C5.878249,4.006978 3.882864,4.131401 1.443738,4.098869 
	C1.048076,2.345619 0.378556,0.128286 3.506575,0.975730 
	C4.127656,1.143994 4.833333,1.000000 5.500000,1.000000 
	C384.166656,1.000000 762.833313,0.996593 1141.500000,1.141227 
	C1142.788818,1.141719 1146.127441,-1.328464 1146.000000,3.500004 
z"/>
<path fill="#D0CECE" opacity="1.000000" stroke="none" 
	d="
M16.000235,50.999840 
	C16.000235,40.037800 16.000235,29.575703 16.000235,18.805618 
	C387.761444,18.805618 759.019836,18.805618 1130.639160,18.805618 
	C1130.639160,36.563183 1130.639160,54.131554 1130.639160,72.106262 
	C759.268127,72.106262 387.885773,72.106262 16.000235,72.106262 
	C16.000235,65.092812 16.000235,58.296295 16.000235,50.999840 
z"/>
</svg>