<svg version="1.1" id="Layer_1" xmlns="http://www.w3.org/2000/svg" xmlns:xlink="http://www.w3.org/1999/xlink" x="0px" y="0px"
	 width="100%" viewBox="0 0 1132 1035" enable-background="new 0 0 1132 1035" xml:space="preserve">

<path fill="#DA1B39" opacity="1.000000" stroke="none" 
	d="
M261.463867,1036.000000 
	C260.988678,947.973816 260.977386,859.947632 260.993622,771.084351 
	C263.567749,769.643799 266.114105,768.513184 268.660950,768.512146 
	C466.613403,768.430237 664.565857,768.438110 862.518372,768.424988 
	C865.177307,768.424805 867.836243,768.243591 870.612183,768.473877 
	C871.153076,769.589355 871.576965,770.377930 872.000732,771.624634 
	C872.000305,860.055237 872.000122,948.027649 872.000000,1036.000000 
	C668.642578,1036.000000 465.285187,1036.000000 261.463867,1036.000000 
z"/>
<path fill="#595959" opacity="1.000000" stroke="none" 
	d="
M1133.000000,769.534973 
	C1133.000000,770.000000 1132.534790,770.016174 1132.141113,769.878418 
	C1131.747559,769.740723 1131.421265,769.400940 1131.591675,769.348022 
	C1131.762085,769.295166 1131.976196,769.587585 1131.976196,769.587585 
	C1131.976196,769.587585 1131.781982,769.890930 1131.586426,769.418213 
	C1131.260498,768.630310 1131.130249,768.315186 1131.000000,767.531372 
	C1131.000000,631.375122 1131.000000,495.687561 1131.139160,359.745880 
	C1131.852173,358.994507 1132.426147,358.497253 1133.000000,358.000000 
	C1133.000000,495.023315 1133.000000,632.046631 1133.000000,769.534973 
z"/>
<path fill="#595959" opacity="1.000000" stroke="none" 
	d="
M1133.000000,357.750000 
	C1132.426147,358.497253 1131.852173,358.994507 1130.912354,359.917480 
	C1130.030884,360.895477 1129.515381,361.447723 1128.531372,362.000000 
	C1110.509888,361.999146 1092.956055,362.088959 1075.405151,361.906158 
	C1072.558716,361.876526 1069.724976,360.637787 1066.932373,359.616272 
	C1067.319824,358.460632 1067.660278,357.646637 1068.000732,356.832642 
	C1089.354736,356.888519 1110.708740,356.944366 1132.531372,357.000122 
	C1133.000000,357.000000 1133.000000,357.500000 1133.000000,357.750000 
z"/>
<path fill="#595959" opacity="1.000000" stroke="none" 
	d="
M1066.885376,359.957947 
	C1069.724976,360.637787 1072.558716,361.876526 1075.405151,361.906158 
	C1092.956055,362.088959 1110.509888,361.999146 1128.531372,362.468658 
	C1128.666626,377.409760 1128.056396,391.881989 1128.044434,406.354675 
	C1127.960571,508.140015 1127.953369,609.925537 1128.045776,711.710815 
	C1128.061157,728.682312 1128.655396,745.653931 1129.060181,762.623596 
	C1129.103027,764.422180 1129.673950,766.208191 1129.531372,768.000000 
	C1062.839600,768.000000 996.616333,767.988831 930.393127,768.006653 
	C910.427124,768.012024 890.461182,768.097839 870.495178,768.146851 
	C867.836243,768.243591 865.177307,768.424805 862.518372,768.424988 
	C664.565857,768.438110 466.613403,768.430237 268.660950,768.512146 
	C266.114105,768.513184 263.567749,769.643799 260.927124,770.624756 
	C175.194595,771.002258 89.556091,771.002258 3.464971,771.002258 
	C3.288388,769.237915 3.020873,767.812744 3.020846,766.387512 
	C3.018300,630.903320 3.036135,495.419159 3.504741,359.567749 
	C7.597674,359.467041 11.238484,359.966339 14.879366,359.966858 
	C308.902740,360.008240 602.926147,360.010712 897.411865,360.121826 
	C898.869507,360.279877 899.864868,360.377686 900.860168,360.377838 
	C954.550049,360.386383 1008.239929,360.390564 1061.929810,360.369873 
	C1063.581665,360.369232 1065.233521,360.101288 1066.885376,359.957947 
M363.612091,594.190979 
	C364.741394,594.794006 365.870697,595.396973 367.386566,596.550659 
	C373.257721,600.033752 379.128845,603.516907 385.515228,607.354370 
	C386.676819,608.236267 387.838409,609.118103 389.278259,610.508301 
	C389.852173,611.005554 390.426086,611.502747 391.711975,612.106323 
	C394.807983,613.737549 397.903992,615.368774 401.225128,617.596985 
	C402.150085,618.398010 403.075043,619.198975 404.612091,620.190979 
	C405.741394,620.793945 406.870697,621.396973 408.386566,622.550659 
	C414.257721,626.033752 420.128876,629.516846 426.515228,633.354370 
	C427.676819,634.236267 428.838409,635.118103 430.278259,636.508301 
	C430.852173,637.005554 431.426086,637.502747 432.711975,638.106323 
	C435.807983,639.737549 438.903992,641.368774 442.225128,643.596985 
	C443.150085,644.398010 444.075043,645.198975 445.612091,646.190979 
	C446.741394,646.794006 447.870697,647.396973 449.386597,648.550659 
	C451.984253,650.493225 454.370728,652.868347 457.234192,654.266602 
	C460.643738,655.931335 464.462738,656.757629 468.527893,658.132935 
	C468.794250,658.317810 468.965271,658.567810 469.215637,659.486633 
	C469.810425,660.324402 470.405212,661.162231 471.278259,662.508301 
	C471.852173,663.005493 472.426086,663.502747 473.707733,664.105164 
	C476.471832,665.736755 479.235931,667.368347 482.278259,669.508301 
	C482.852173,670.005554 483.426086,670.502747 484.711975,671.106323 
	C487.807983,672.737549 490.903992,674.368774 494.225128,676.596985 
	C495.150085,677.398010 496.075043,678.198975 497.612091,679.190979 
	C498.741394,679.794006 499.870697,680.397034 501.386566,681.550659 
	C507.257721,685.033752 513.128845,688.516907 519.515198,692.354370 
	C520.676819,693.236267 521.838379,694.118103 523.278259,695.508301 
	C523.852173,696.005554 524.426086,696.502747 525.712036,697.106323 
	C528.808044,698.737549 531.904053,700.368774 535.225159,702.596985 
	C536.150146,703.397949 537.075073,704.198975 538.612061,705.191040 
	C539.741394,705.794006 540.870667,706.397034 542.391052,707.554016 
	C544.475952,708.799805 546.486450,710.209717 548.684082,711.207092 
	C549.512878,711.583191 550.774963,711.004639 551.839539,710.861267 
	C551.615173,709.909424 551.390808,708.957642 551.052612,707.073792 
	C551.035095,704.742249 551.002197,702.410767 551.002136,700.079224 
	C550.999573,606.974426 551.006165,513.869690 550.962952,420.764923 
	C550.961914,418.523926 550.409607,416.283173 549.331421,414.070251 
	C547.040527,414.946594 544.491211,415.433502 542.497131,416.756958 
	C504.667023,441.864136 466.884399,467.043030 429.173248,492.328308 
	C427.100586,493.718018 425.735413,496.162811 423.718872,498.705994 
	C422.843781,499.458862 422.036133,500.312561 421.083710,500.949860 
	C399.277954,515.541504 377.489471,530.159485 355.623383,544.660400 
	C345.200623,551.572510 334.624664,558.253540 323.579224,565.371277 
	C320.874268,568.523438 323.677032,569.793701 325.722290,570.931091 
	C328.009644,572.203186 330.562622,572.997681 333.515228,574.354370 
	C334.676819,575.236206 335.838409,576.118103 337.278259,577.508301 
	C337.852173,578.005493 338.426086,578.502747 339.707703,579.105225 
	C342.471802,580.736816 345.235901,582.368408 348.278259,584.508301 
	C348.852173,585.005554 349.426086,585.502747 350.711975,586.106323 
	C353.807983,587.737549 356.903992,589.368774 360.225128,591.596985 
	C361.150085,592.398010 362.075043,593.198975 363.612091,594.190979 
M836.525879,541.341492 
	C837.683899,542.227661 838.841980,543.113831 840.331726,544.596741 
	C842.435059,547.033630 844.606689,547.951233 846.968811,544.956177 
	C846.968811,544.956177 846.907410,544.943176 847.645569,544.867310 
	C849.019287,544.314697 850.538879,543.981201 851.745605,543.177795 
	C893.633667,515.289062 935.506775,487.377594 977.298096,459.344330 
	C978.842651,458.308258 979.548218,456.021484 981.174072,454.014465 
	C982.211304,453.534637 983.248474,453.054810 985.096863,452.654816 
	C986.927002,451.971344 988.969177,451.607849 990.555481,450.556519 
	C1015.755981,433.855133 1040.911865,417.086304 1066.020508,400.247070 
	C1067.590454,399.194183 1068.684570,397.432129 1070.731445,395.950500 
	C1071.957886,395.077118 1073.184326,394.203735 1074.410645,393.330322 
	C1073.247437,392.090790 1072.269531,390.114471 1070.882446,389.765778 
	C1068.032227,389.049255 1064.963257,389.026306 1061.984253,389.025635 
	C933.421387,388.995911 804.858582,388.999939 676.295715,389.000092 
	C656.478394,389.000092 636.660522,388.936371 616.844360,389.089508 
	C614.558105,389.107147 612.281250,390.333862 609.333374,391.000000 
	C608.888916,391.000000 608.444458,391.000000 607.608948,391.195557 
	C607.405945,391.797028 607.203003,392.398529 607.000000,393.666656 
	C607.000000,394.111115 607.000000,394.555542 606.858093,395.515594 
	C607.905396,396.343719 608.952698,397.171844 610.534546,398.281097 
	C611.356384,398.854065 612.178162,399.427032 613.278259,400.508240 
	C613.852173,401.005493 614.426086,401.502747 615.712280,402.106445 
	C618.808228,403.737640 621.904114,405.368805 625.335510,407.528687 
	C626.223694,408.019135 627.111816,408.509583 628.525879,409.341461 
	C629.683899,410.227631 630.841980,411.113800 632.320435,412.593140 
	C634.546936,413.728760 636.773499,414.864380 639.525879,416.341492 
	C640.683899,417.227661 641.841919,418.113831 643.320435,419.593170 
	C645.546936,420.728790 647.773438,421.864410 650.525879,423.341461 
	C651.683899,424.227631 652.841980,425.113831 654.278259,426.508240 
	C654.852173,427.005493 655.426086,427.502747 656.712280,428.106506 
	C659.808167,429.737671 662.904053,431.368835 666.335510,433.528687 
	C667.223694,434.019135 668.111816,434.509552 669.561279,435.363922 
	C672.040833,436.909271 674.520447,438.454620 677.335510,440.528687 
	C678.223694,441.019135 679.111816,441.509552 680.525879,442.341461 
	C681.683899,443.227631 682.841980,444.113831 684.320435,445.593140 
	C686.546936,446.728760 688.773499,447.864380 691.525879,449.341461 
	C692.683899,450.227631 693.841980,451.113831 695.278259,452.508240 
	C695.852173,453.005493 696.426086,453.502747 697.709717,454.105835 
	C700.473145,455.737213 703.236572,457.368622 706.278259,459.508240 
	C706.852173,460.005493 707.426086,460.502747 708.712280,461.106476 
	C711.808167,462.737640 714.904114,464.368835 718.335510,466.528687 
	C719.223694,467.019135 720.111816,467.509583 721.525879,468.341461 
	C722.683899,469.227631 723.841980,470.113831 725.320435,471.593140 
	C727.546936,472.728760 729.773499,473.864380 732.525879,475.341461 
	C733.683899,476.227631 734.841980,477.113831 736.320435,478.593140 
	C738.546936,479.728760 740.773499,480.864380 743.525879,482.341431 
	C744.683960,483.227631 745.841980,484.113800 747.278259,485.508240 
	C747.852173,486.005493 748.426086,486.502747 749.712280,487.106476 
	C752.808167,488.737640 755.904114,490.368805 759.335510,492.528687 
	C760.223694,493.019135 761.111816,493.509552 762.525879,494.341461 
	C763.683899,495.227631 764.841980,496.113831 766.320435,497.593140 
	C768.546936,498.728760 770.773499,499.864380 773.525879,501.341461 
	C774.683899,502.227661 775.841980,503.113831 777.320435,504.593140 
	C779.546936,505.728760 781.773499,506.864380 784.525879,508.341461 
	C785.683960,509.227631 786.841980,510.113800 788.278259,511.508209 
	C788.852173,512.005493 789.426086,512.502747 790.712280,513.106445 
	C793.808167,514.737610 796.904114,516.368835 800.335510,518.528687 
	C801.223694,519.019165 802.111816,519.509583 803.561279,520.363892 
	C806.040894,521.909241 808.520447,523.454590 811.335510,525.528687 
	C812.223694,526.019165 813.111816,526.509583 814.525879,527.341492 
	C815.683899,528.227661 816.841980,529.113831 818.320435,530.593140 
	C820.546936,531.728760 822.773499,532.864380 825.525879,534.341492 
	C826.683899,535.227661 827.841980,536.113831 829.320435,537.593140 
	C831.546936,538.728760 833.773499,539.864380 836.525879,541.341492 
M135.674286,447.158081 
	C136.870575,449.987915 138.408264,452.234863 142.754608,451.018158 
	C159.063965,461.307343 175.383698,471.580139 191.680481,481.889191 
	C223.172836,501.810730 254.610809,521.819214 286.237946,541.524231 
	C288.176880,542.732239 291.569244,541.607422 295.093872,541.646545 
	C296.928436,540.963562 298.979370,540.605774 300.566254,539.550415 
	C351.165924,505.898285 401.733337,472.197571 452.233917,438.397125 
	C454.171204,437.100433 455.400085,434.745392 457.367004,432.333801 
	C458.532166,431.724518 459.772064,431.224945 460.851379,430.489594 
	C478.206268,418.664978 495.540771,406.810364 513.392456,394.646088 
	C512.895081,393.514069 512.664856,391.731445 511.841492,391.393463 
	C510.390656,390.797882 508.577820,391.011627 506.916534,391.011505 
	C357.950043,391.000458 208.983536,391.000763 60.017036,391.009094 
	C58.520222,391.009186 56.986485,390.939026 55.534130,391.226166 
	C52.307388,391.864044 51.208668,394.514832 53.609997,396.544312 
	C55.247803,397.928436 57.867874,398.150299 60.716351,399.011292 
	C62.157803,399.968719 63.599255,400.926147 65.241737,402.549652 
	C66.237953,403.830505 66.988190,405.485138 68.271553,406.329620 
	C75.031326,410.777924 81.858383,415.135742 88.825592,419.247894 
	C90.365585,420.156799 92.566742,419.945465 94.647255,420.268524 
	C94.647255,420.268524 94.672913,420.451477 94.674301,421.158081 
	C95.870575,423.987915 97.408241,426.234924 101.716354,425.011292 
	C103.157806,425.968719 104.599266,426.926147 106.237701,428.540222 
	C107.415398,430.973938 108.599365,433.396790 112.716354,432.011292 
	C114.157814,432.968719 115.599266,433.926147 117.241730,435.549652 
	C122.007339,441.344330 127.530602,445.848816 135.647247,446.268524 
	C135.647247,446.268524 135.672913,446.451477 135.674286,447.158081 
M388.681091,647.409424 
	C387.120728,646.606262 385.560364,645.803162 383.484741,644.645691 
	C382.323181,643.763794 381.161591,642.881897 379.613403,641.449402 
	C373.742279,637.966248 367.871124,634.483154 361.484741,630.645691 
	C360.323181,629.763794 359.161591,628.881897 357.721741,627.491699 
	C357.147827,626.994446 356.573914,626.497192 355.296417,625.896118 
	C352.864258,624.597412 350.432129,623.298706 347.681091,621.409424 
	C346.120728,620.606323 344.560364,619.803162 342.484741,618.645691 
	C341.323151,617.763794 340.161560,616.881897 338.613434,615.449341 
	C332.742279,611.966248 326.871155,608.483093 320.484741,604.645691 
	C319.323181,603.763794 318.161591,602.881897 316.721741,601.491699 
	C316.147827,600.994446 315.573914,600.497192 314.292297,599.894897 
	C311.528198,598.263245 308.764099,596.631653 305.721741,594.491699 
	C305.147827,593.994446 304.573914,593.497253 303.296417,592.896118 
	C300.864288,591.597412 298.432129,590.298706 295.723236,588.452393 
	C294.283905,586.240234 292.697693,586.078918 290.304688,588.305420 
	C289.709747,588.593018 289.070618,588.814392 288.526245,589.177734 
	C242.168015,620.121338 195.831894,651.097961 149.459793,682.020691 
	C124.355682,698.761169 99.191139,715.411011 73.448822,731.779236 
	C71.055382,730.871033 68.904602,731.122437 68.796120,734.080444 
	C68.704803,736.570618 70.128922,738.140503 73.937317,737.000000 
	C221.958206,737.000000 369.979095,737.000000 518.590820,737.282898 
	C520.078491,736.643127 521.566162,736.003357 523.053833,735.363586 
	C522.289490,733.715759 521.977356,731.340698 520.687195,730.538574 
	C512.579285,725.497620 504.253632,720.806702 495.484741,715.645691 
	C494.323151,714.763794 493.161591,713.881897 491.721710,712.491699 
	C491.147797,711.994507 490.573883,711.497253 489.296417,710.896118 
	C486.864288,709.597412 484.432159,708.298706 481.703064,706.425598 
	C480.468719,705.617065 479.234344,704.808533 477.379974,703.796143 
	C475.919983,702.864075 474.459991,701.932068 472.613434,700.449341 
	C466.742279,696.966248 460.871155,693.483093 454.484711,689.645691 
	C453.323151,688.763794 452.161560,687.881897 450.721741,686.491699 
	C450.147827,685.994446 449.573914,685.497253 448.292297,684.894897 
	C445.528198,683.263245 442.764099,681.631653 439.721741,679.491699 
	C439.147827,678.994446 438.573914,678.497253 437.296417,677.896118 
	C434.864288,676.597412 432.432159,675.298706 429.742188,673.470032 
	C428.494781,672.980042 427.247406,672.489990 425.474060,671.633545 
	C423.982727,670.422363 422.491364,669.211182 420.613434,667.449341 
	C414.742279,663.966248 408.871124,660.483154 402.484741,656.645691 
	C401.323151,655.763794 400.161560,654.881897 398.721741,653.491699 
	C398.147827,652.994446 397.573914,652.497192 396.296387,651.896179 
	C393.864258,650.597473 391.432129,649.298767 388.681091,647.409424 
M1088.339600,701.564575 
	C1091.165039,703.729797 1093.856079,706.111633 1096.866211,707.979065 
	C1098.671875,709.099365 1101.135742,709.724854 1100.969360,705.013489 
	C1100.979614,612.834900 1100.988525,520.656250 1101.007080,428.477661 
	C1101.007568,425.984406 1101.111084,423.491150 1101.740356,420.742340 
	C1102.089722,419.539917 1102.438965,418.337463 1102.788330,417.135071 
	C1101.547119,417.037628 1100.035645,416.440430 1099.116089,416.937744 
	C1096.497681,418.353851 1094.135986,420.239105 1091.646362,421.899170 
	C1022.835266,467.780731 954.019836,513.655701 885.212708,559.543152 
	C883.556152,560.647949 881.741394,561.662964 880.439636,563.113831 
	C878.947205,564.777283 877.127502,566.829407 880.570190,569.368652 
	C886.799683,573.474792 892.928528,577.749634 899.329590,581.568176 
	C900.925964,582.520447 903.400452,582.000916 905.878784,582.137817 
	C905.878784,582.137817 906.246216,582.315186 906.289429,583.123047 
	C908.250610,589.002441 911.859863,591.141663 916.878845,589.137817 
	C916.878845,589.137817 917.246216,589.315247 917.289307,590.122375 
	C918.812317,592.153625 919.934387,594.786865 921.926453,596.114014 
	C931.561829,602.533325 941.362427,608.715759 951.287292,614.677795 
	C952.872681,615.630188 955.386719,615.036682 957.878845,615.137817 
	C957.878845,615.137817 958.246216,615.315186 958.289429,616.123047 
	C960.250610,622.002441 963.859863,624.141663 968.878845,622.137817 
	C968.878845,622.137817 969.246216,622.315247 969.289307,623.122375 
	C970.666992,625.057739 971.656433,627.553040 973.493042,628.826477 
	C979.718140,633.142822 986.153442,637.182739 992.722290,640.955994 
	C994.192261,641.800415 996.532043,641.130615 998.878845,641.137817 
	C998.878845,641.137817 999.246216,641.315186 999.289429,642.123047 
	C1001.250610,648.002441 1004.859863,650.141663 1009.878845,648.137817 
	C1009.878845,648.137817 1010.246216,648.315247 1010.289307,649.122375 
	C1011.666992,651.057739 1012.656372,653.553101 1014.492981,654.826538 
	C1020.718201,659.142883 1027.153442,663.182861 1033.722290,666.956055 
	C1035.192383,667.800476 1037.532227,667.130615 1039.878906,667.137817 
	C1039.878906,667.137817 1040.246338,667.315125 1040.289551,668.122864 
	C1042.250122,674.001831 1045.860107,676.141541 1050.879028,674.137817 
	C1050.879028,674.137817 1051.246460,674.315125 1051.289429,675.122253 
	C1052.402954,676.874756 1053.110229,679.259705 1054.695435,680.278015 
	C1065.694702,687.344360 1076.876709,694.126648 1088.339600,701.564575 
M34.701359,713.693481 
	C35.427841,713.304443 36.192780,712.973083 36.875347,712.518188 
	C102.921249,668.494873 168.964310,624.467346 234.996063,580.422913 
	C241.876160,575.833740 248.687164,571.141052 255.797562,566.315002 
	C227.464539,548.278564 199.811340,530.621033 172.103409,513.049805 
	C135.746414,489.993652 99.358704,466.985901 62.956326,444.001465 
	C53.374645,437.951569 43.690208,432.064453 33.485725,425.953888 
	C32.657490,428.325043 31.108231,430.695221 31.105043,433.067505 
	C30.982321,524.384644 31.000380,615.701904 31.007265,707.019226 
	C31.007378,708.517212 30.747311,710.153381 31.262749,711.468750 
	C31.661589,712.486511 33.085037,713.102844 34.701359,713.693481 
M908.710693,626.877625 
	C907.187683,624.846375 906.065613,622.213135 904.073608,620.885925 
	C894.438232,614.466675 884.637512,608.284302 874.712646,602.322327 
	C873.127258,601.370056 870.613281,601.963379 868.121155,601.862183 
	C868.121155,601.862183 867.753784,601.684814 867.710571,600.876953 
	C865.749390,594.997559 862.140137,592.858337 857.121216,594.862244 
	C857.121216,594.862244 856.753845,594.684875 856.710388,593.876343 
	C855.038086,591.759460 853.687256,589.218567 851.606201,587.640808 
	C849.363586,585.940491 846.329102,584.690063 844.630920,589.669617 
	C842.705444,590.863464 840.747986,592.008911 838.859436,593.258545 
	C820.339294,605.512878 801.802673,617.742615 783.324341,630.059631 
	C741.855347,657.701660 700.424622,685.401062 658.960205,713.049927 
	C649.382263,719.436523 639.731750,725.714355 629.393066,732.085388 
	C628.210938,732.994385 627.028870,733.903381 625.846802,734.812378 
	C627.055908,735.778076 628.135803,737.233154 629.504456,737.594604 
	C631.547668,738.134033 633.794312,737.987366 635.954407,737.987610 
	C780.206055,738.000977 924.457703,738.000061 1068.709351,737.996338 
	C1070.374512,737.996338 1072.162964,738.317017 1073.672119,737.817688 
	C1075.392822,737.248352 1077.791016,736.195068 1078.179688,734.854797 
	C1078.556152,733.556885 1077.175781,731.036621 1075.834717,730.079346 
	C1070.560059,726.314331 1065.083130,722.804077 1059.471191,719.563110 
	C1058.276001,718.872864 1056.199097,719.709106 1054.121094,719.862183 
	C1054.121094,719.862183 1053.753662,719.684875 1053.710449,718.877136 
	C1051.749878,712.998169 1048.139893,710.858459 1043.120972,712.862183 
	C1043.120972,712.862183 1042.753540,712.684875 1042.710571,711.877747 
	C1041.187622,709.846436 1040.065674,707.213196 1038.073608,705.886047 
	C1028.438232,699.466797 1018.637573,693.284363 1008.712646,687.322388 
	C1007.127258,686.369995 1004.613281,686.963379 1002.121155,686.862183 
	C1002.121155,686.862183 1001.753784,686.684814 1001.710571,685.876953 
	C999.749390,679.997559 996.140137,677.858337 991.121155,679.862183 
	C991.121155,679.862183 990.753784,679.684753 990.710693,678.877625 
	C989.333008,676.942261 988.343567,674.446960 986.506958,673.173523 
	C980.281799,668.857239 973.846558,664.817261 967.277710,661.044128 
	C965.807739,660.199707 963.467957,660.869507 961.121155,660.862183 
	C961.121155,660.862183 960.753784,660.684814 960.710571,659.876953 
	C958.749390,653.997559 955.140137,651.858337 950.121155,653.862183 
	C950.121155,653.862183 949.753784,653.684753 949.710693,652.877625 
	C948.186829,650.845825 947.063843,648.212280 945.070984,646.884460 
	C935.437256,640.466064 925.638184,634.284546 915.714844,628.323669 
	C914.128662,627.370850 911.614014,627.963806 909.121155,627.862183 
	C909.121155,627.862183 908.753784,627.684753 908.710693,626.877625 
M581.485596,420.953827 
	C580.657349,423.323334 579.107971,425.691895 579.104858,428.062439 
	C578.982910,522.656860 579.000732,617.251343 579.004944,711.845886 
	C579.005005,713.177490 578.698425,714.663391 579.181763,715.802856 
	C579.829041,717.328735 581.108704,718.586304 582.668823,720.142883 
	C584.530090,718.784363 586.343140,717.353455 588.259888,716.078369 
	C611.396423,700.687134 634.570068,685.351807 657.691162,669.937500 
	C699.154663,642.294434 740.581116,614.595825 782.041260,586.947815 
	C791.618225,580.561279 801.268677,574.284973 811.518738,567.822388 
	C815.431335,565.191650 812.660706,563.311401 810.565369,561.942078 
	C800.998291,555.689880 791.379028,549.507751 781.588745,543.615906 
	C779.871216,542.582275 777.246765,543.055847 774.565125,542.814209 
	C774.250610,542.678406 774.048218,542.445251 773.867432,541.390198 
	C772.540527,539.603455 771.571533,537.277405 769.827026,536.120056 
	C760.482483,529.920532 751.029846,523.869751 741.403992,518.119995 
	C739.406311,516.926758 736.518616,517.223389 733.565125,516.814209 
	C733.250610,516.678406 733.048218,516.445251 732.865479,515.383362 
	C731.560120,510.370148 728.091309,508.838776 722.847839,509.720245 
	C722.570068,509.537384 722.292236,509.354492 721.907043,508.435272 
	C719.777649,503.075348 699.366333,490.235138 692.848145,490.720123 
	C692.570251,490.537323 692.292419,490.354523 691.905884,489.431244 
	C689.793335,484.044403 687.479187,482.731201 681.565002,483.814117 
	C681.250488,483.678314 681.048157,483.445190 680.867432,482.390289 
	C679.250183,480.431427 677.978516,477.955841 675.955872,476.603027 
	C667.158936,470.719330 658.226257,465.024078 649.148071,459.585541 
	C646.906982,458.242950 643.934631,458.121246 640.848145,457.720123 
	C640.570251,457.537323 640.292419,457.354492 639.905212,456.428467 
	C638.578369,451.423737 635.130066,449.821686 629.847839,450.720276 
	C629.570007,450.537384 629.292236,450.354523 628.907043,449.435272 
	C626.777649,444.075348 606.366333,431.235138 599.848145,431.720123 
	C599.570251,431.537292 599.292419,431.354492 598.905212,430.428467 
	C597.578369,425.423737 594.130066,423.821686 588.847839,424.720215 
	C588.570007,424.537323 588.292114,424.354431 587.916626,423.471771 
	C587.164490,420.969208 586.560425,418.192505 582.545471,420.981079 
	C582.381287,421.021545 582.217102,421.062012 581.485596,420.953827 
M551.679688,731.092285 
	C548.944092,729.920715 547.415955,731.137085 547.484497,733.788574 
	C547.508667,734.721741 549.230896,735.611145 550.177795,736.520569 
	C550.834167,734.876770 551.490540,733.232971 551.679688,731.092285 
z"/>
<path fill="#00B050" opacity="1.000000" stroke="none" 
	d="
M1066.932373,359.616272 
	C1065.233521,360.101288 1063.581665,360.369232 1061.929810,360.369873 
	C1008.239929,360.390564 954.550049,360.386383 900.860168,360.377838 
	C899.864868,360.377686 898.869507,360.279877 897.423462,359.743805 
	C896.926514,358.506226 896.880371,357.752411 896.834167,356.998627 
	C898.868591,341.185608 901.019226,325.386353 902.901184,309.555206 
	C904.436523,296.639465 905.531738,283.671661 907.041443,270.752563 
	C908.510010,258.185638 910.328186,245.659943 911.859070,233.099854 
	C913.014465,223.621002 913.890686,214.108368 915.014282,204.625351 
	C916.580933,191.402542 918.313232,178.199341 919.877869,164.976318 
	C921.000000,155.493073 921.905579,145.984283 923.013794,136.499268 
	C924.234436,126.051163 925.625366,115.622955 926.850891,105.175385 
	C927.963379,95.691254 928.888489,86.185043 930.012878,76.702400 
	C931.580688,63.479870 933.321350,50.277721 934.865967,37.052582 
	C936.012085,27.238976 937.096863,17.413811 937.921387,7.569708 
	C938.170044,4.600835 938.674072,2.948840 942.129456,2.959325 
	C969.782166,3.043232 997.435242,3.006203 1025.806763,3.006203 
	C1026.545898,7.912399 1027.380005,12.684288 1027.967407,17.486334 
	C1030.004272,34.136692 1032.009155,50.791344 1033.921265,67.456398 
	C1035.366211,80.049561 1036.543335,92.673843 1038.034058,105.261238 
	C1039.890137,120.932350 1042.046509,136.568039 1043.885132,152.241074 
	C1045.400635,165.159515 1046.528687,178.123337 1048.037842,191.042587 
	C1049.525146,203.774704 1051.390503,216.462646 1052.878784,229.194656 
	C1054.388916,242.114136 1055.527710,255.076996 1057.037109,267.996582 
	C1058.524536,280.728516 1060.358154,293.419800 1061.878296,306.148224 
	C1063.049683,315.958344 1063.913940,325.804779 1065.022217,335.622894 
	C1065.794678,342.465973 1066.749390,349.288452 1067.811768,356.476379 
	C1067.660278,357.646637 1067.319824,358.460632 1066.932373,359.616272 
z"/>
<path fill="#595959" opacity="1.000000" stroke="none" 
	d="
M896.376587,356.998718 
	C896.880371,357.752411 896.926514,358.506226 896.961121,359.638062 
	C602.926147,360.010712 308.902740,360.008240 14.879366,359.966858 
	C11.238484,359.966339 7.597674,359.467041 3.561766,359.102417 
	C3.888996,358.347809 4.545666,357.240753 5.346588,357.124084 
	C7.305681,356.838776 9.331440,357.000702 11.330372,357.000702 
	C306.193268,356.998993 601.056152,356.998932 896.376587,356.998718 
z"/>
<path fill="#595959" opacity="1.000000" stroke="none" 
	d="
M870.612183,768.473816 
	C890.461182,768.097839 910.427124,768.012024 930.393127,768.006653 
	C996.616333,767.988831 1062.839600,768.000000 1129.781372,768.000000 
	C1130.500000,768.000000 1131.000000,768.000000 1131.000000,768.000000 
	C1131.130249,768.315186 1131.260498,768.630310 1131.432861,769.432739 
	C1131.474854,769.919922 1131.291992,769.675293 1131.291992,769.675293 
	C1131.291992,769.675293 1131.421265,769.400940 1131.421265,769.400940 
	C1131.421265,769.400940 1131.747559,769.740723 1131.910645,769.910583 
	C1129.836914,770.387146 1127.600220,770.960449 1125.363037,770.962158 
	C1041.219482,771.025085 957.075989,771.035400 872.466675,771.109619 
	C871.576965,770.377930 871.153076,769.589355 870.612183,768.473816 
z"/>
<path fill="#595959" opacity="1.000000" stroke="none" 
	d="
M1131.000000,767.531372 
	C1131.000000,768.000000 1130.500000,768.000000 1130.250000,768.000000 
	C1129.673950,766.208191 1129.103027,764.422180 1129.060181,762.623596 
	C1128.655396,745.653931 1128.061157,728.682312 1128.045776,711.710815 
	C1127.953369,609.925537 1127.960571,508.140015 1128.044434,406.354675 
	C1128.056396,391.881989 1128.666626,377.409760 1129.000000,362.468628 
	C1129.515381,361.447723 1130.030884,360.895477 1130.773193,360.171631 
	C1131.000000,495.687561 1131.000000,631.375122 1131.000000,767.531372 
z"/>
<path fill="#595959" opacity="1.000000" stroke="none" 
	d="
M629.753784,732.063843 
	C630.348572,732.662292 630.519287,733.780090 630.827026,733.819153 
	C632.468933,734.027649 634.144958,733.994751 635.809204,733.994812 
	C780.256165,733.999146 924.703186,733.998779 1069.150146,733.998779 
	C1070.905884,733.998779 1072.661621,733.998779 1074.417236,733.998779 
	C1074.498657,733.706421 1074.579956,733.414062 1074.661255,733.121643 
	C1068.090576,728.856812 1061.519897,724.591980 1054.738770,720.084595 
	C1056.199097,719.709106 1058.276001,718.872864 1059.471191,719.563110 
	C1065.083130,722.804077 1070.560059,726.314331 1075.834717,730.079346 
	C1077.175781,731.036621 1078.556152,733.556885 1078.179688,734.854797 
	C1077.791016,736.195068 1075.392822,737.248352 1073.672119,737.817688 
	C1072.162964,738.317017 1070.374512,737.996338 1068.709351,737.996338 
	C924.457703,738.000061 780.206055,738.000977 635.954407,737.987610 
	C633.794312,737.987366 631.547668,738.134033 629.504456,737.594604 
	C628.135803,737.233154 627.055908,735.778076 625.846802,734.812378 
	C627.028870,733.903381 628.210938,732.994385 629.753784,732.063843 
z"/>
<path fill="#595959" opacity="1.000000" stroke="none" 
	d="
M1069.877930,394.964813 
	C1068.323853,394.643921 1066.770020,394.042450 1065.215820,394.041992 
	C914.989990,393.999176 764.764160,394.001770 614.538330,394.007263 
	C613.561462,394.007324 612.584534,394.087769 611.134521,395.024994 
	C619.642578,400.467072 628.150574,405.909180 636.571167,411.769714 
	C634.989197,412.125427 633.494568,412.062714 632.000000,412.000000 
	C630.841980,411.113800 629.683899,410.227631 628.062378,408.938812 
	C626.732544,408.024109 625.866272,407.512054 625.000000,407.000000 
	C621.904114,405.368805 618.808228,403.737640 615.217041,401.799103 
	C614.147827,400.994507 613.573914,400.497253 613.000000,400.000000 
	C612.178162,399.427032 611.356384,398.854065 610.091919,397.890289 
	C608.766235,396.666321 607.883118,395.833160 607.000000,395.000000 
	C607.000000,394.555542 607.000000,394.111115 607.153198,393.098236 
	C607.537598,392.019867 607.768799,391.509918 608.000000,391.000000 
	C608.444458,391.000000 608.888916,391.000000 610.135376,391.000000 
	C761.463867,391.000000 911.990417,390.999268 1062.516968,391.006744 
	C1064.846069,391.006866 1067.199585,390.931396 1069.492188,391.248688 
	C1070.401245,391.374481 1071.175171,392.476471 1072.010620,393.134033 
	C1071.299683,393.744293 1070.588867,394.354553 1069.877930,394.964813 
z"/>
<path fill="#595959" opacity="1.000000" stroke="none" 
	d="
M513.136169,394.804321 
	C511.158325,394.642151 509.436829,394.041656 507.715179,394.041168 
	C358.445282,393.997894 209.175354,394.001038 59.905449,394.000916 
	C58.462383,394.000916 57.019314,394.000885 54.298996,394.000885 
	C56.771526,395.964844 58.252724,397.141388 59.891342,398.604889 
	C57.867874,398.150299 55.247803,397.928436 53.609997,396.544312 
	C51.208668,394.514832 52.307388,391.864044 55.534130,391.226166 
	C56.986485,390.939026 58.520222,391.009186 60.017036,391.009094 
	C208.983536,391.000763 357.950043,391.000458 506.916534,391.011505 
	C508.577820,391.011627 510.390656,390.797882 511.841492,391.393463 
	C512.664856,391.731445 512.895081,393.514069 513.136169,394.804321 
z"/>
<path fill="#595959" opacity="1.000000" stroke="none" 
	d="
M72.107483,733.950562 
	C189.713928,733.966980 307.320404,733.984192 424.926849,733.999268 
	C454.078644,734.002991 483.230469,734.006104 512.382263,733.985718 
	C514.369934,733.984314 516.357544,733.783325 518.846924,733.484497 
	C518.899048,734.529236 518.449524,735.764587 518.000000,737.000000 
	C369.979095,737.000000 221.958206,737.000000 73.302948,736.806030 
	C72.481552,735.724915 72.294518,734.837769 72.107483,733.950562 
z"/>
<path fill="#595959" opacity="1.000000" stroke="none" 
	d="
M1069.656494,395.066223 
	C1070.588867,394.354553 1071.299683,393.744293 1072.010620,393.134033 
	C1071.175171,392.476471 1070.401245,391.374481 1069.492188,391.248688 
	C1067.199585,390.931396 1064.846069,391.006866 1062.516968,391.006744 
	C911.990417,390.999268 761.463867,391.000000 610.468628,391.000000 
	C612.281250,390.333862 614.558105,389.107147 616.844360,389.089508 
	C636.660522,388.936371 656.478394,389.000092 676.295715,389.000092 
	C804.858582,388.999939 933.421387,388.995911 1061.984253,389.025635 
	C1064.963257,389.026306 1068.032227,389.049255 1070.882446,389.765778 
	C1072.269531,390.114471 1073.247437,392.090790 1074.410645,393.330322 
	C1073.184326,394.203735 1071.957886,395.077118 1070.087158,395.964661 
	C1069.257446,395.971741 1069.071777,395.964630 1068.885986,395.957489 
	C1068.984985,395.635773 1069.168091,395.372498 1069.656494,395.066223 
z"/>
<path fill="#595959" opacity="1.000000" stroke="none" 
	d="
M581.769287,421.028168 
	C582.047607,520.411682 582.042297,619.720886 582.076904,719.494629 
	C581.108704,718.586304 579.829041,717.328735 579.181763,715.802856 
	C578.698425,714.663391 579.005005,713.177490 579.004944,711.845886 
	C579.000732,617.251343 578.982910,522.656860 579.104858,428.062439 
	C579.107971,425.691895 580.657349,423.323334 581.769287,421.028168 
z"/>
<path fill="#595959" opacity="1.000000" stroke="none" 
	d="
M33.769352,426.028198 
	C34.040829,521.726501 34.028679,617.350464 34.034756,713.436035 
	C33.085037,713.102844 31.661589,712.486511 31.262749,711.468750 
	C30.747311,710.153381 31.007378,708.517212 31.007265,707.019226 
	C31.000380,615.701904 30.982321,524.384644 31.105043,433.067505 
	C31.108231,430.695221 32.657490,428.325043 33.769352,426.028198 
z"/>
<path fill="#595959" opacity="1.000000" stroke="none" 
	d="
M1101.453369,420.870117 
	C1099.769897,421.150177 1098.063599,420.834167 1097.021851,421.523010 
	C1068.138428,440.620941 1039.310791,459.803253 1010.498718,479.009033 
	C982.094604,497.942841 953.718628,516.918945 925.328552,535.873718 
	C911.343933,545.210632 897.348022,554.530579 883.385132,563.899658 
	C882.497314,564.495300 881.851257,565.451111 880.929260,566.831909 
	C880.510498,567.949646 880.255249,568.474854 880.000000,569.000000 
	C877.127502,566.829407 878.947205,564.777283 880.439636,563.113831 
	C881.741394,561.662964 883.556152,560.647949 885.212708,559.543152 
	C954.019836,513.655701 1022.835266,467.780731 1091.646362,421.899170 
	C1094.135986,420.239105 1096.497681,418.353851 1099.116089,416.937744 
	C1100.035645,416.440430 1101.547119,417.037628 1102.788330,417.135071 
	C1102.438965,418.337463 1102.089722,419.539917 1101.453369,420.870117 
z"/>
<path fill="#595959" opacity="1.000000" stroke="none" 
	d="
M294.689606,541.607300 
	C302.255310,536.022278 310.140900,530.350342 318.209198,524.951477 
	C363.893463,494.381653 409.621307,463.876923 455.340149,433.358795 
	C455.604950,433.182068 455.952942,433.129974 456.610565,432.951599 
	C455.400085,434.745392 454.171204,437.100433 452.233917,438.397125 
	C401.733337,472.197571 351.165924,505.898285 300.566254,539.550415 
	C298.979370,540.605774 296.928436,540.963562 294.689606,541.607300 
z"/>
<path fill="#595959" opacity="1.000000" stroke="none" 
	d="
M847.276489,544.905212 
	C859.110107,536.482788 871.230042,527.899841 883.531799,519.585876 
	C915.653625,497.876953 947.854919,476.285645 980.334717,454.482513 
	C979.548218,456.021484 978.842651,458.308258 977.298096,459.344330 
	C935.506775,487.377594 893.633667,515.289062 851.745605,543.177795 
	C850.538879,543.981201 849.019287,544.314697 847.276489,544.905212 
z"/>
<path fill="#595959" opacity="1.000000" stroke="none" 
	d="
M549.722900,414.056305 
	C539.923828,421.015991 529.801453,428.092010 519.529785,434.944244 
	C487.963196,456.002258 456.339447,476.974640 424.389404,498.048401 
	C425.735413,496.162811 427.100586,493.718018 429.173248,492.328308 
	C466.884399,467.043030 504.667023,441.864136 542.497131,416.756958 
	C544.491211,415.433502 547.040527,414.946594 549.722900,414.056305 
z"/>
<path fill="#595959" opacity="1.000000" stroke="none" 
	d="
M1068.539062,396.001984 
	C1069.071777,395.964630 1069.257446,395.971741 1069.721436,395.989441 
	C1068.684570,397.432129 1067.590454,399.194183 1066.020508,400.247070 
	C1040.911865,417.086304 1015.755981,433.855133 990.555481,450.556519 
	C988.969177,451.607849 986.927002,451.971344 984.691284,452.614868 
	C991.681213,447.391266 998.985962,442.071899 1006.489746,437.049957 
	C1027.012329,423.315125 1047.618774,409.705627 1068.539062,396.001984 
z"/>
<path fill="#595959" opacity="1.000000" stroke="none" 
	d="
M917.267761,589.718811 
	C930.514343,597.767822 943.782471,606.220337 957.260986,614.915405 
	C955.386719,615.036682 952.872681,615.630188 951.287292,614.677795 
	C941.362427,608.715759 931.561829,602.533325 921.926453,596.114014 
	C919.934387,594.786865 918.812317,592.153625 917.267761,589.718811 
z"/>
<path fill="#595959" opacity="1.000000" stroke="none" 
	d="
M1042.732056,712.281372 
	C1029.485474,704.232300 1016.217407,695.779724 1002.739014,687.084656 
	C1004.613281,686.963379 1007.127258,686.369995 1008.712646,687.322388 
	C1018.637573,693.284363 1028.438232,699.466797 1038.073608,705.886047 
	C1040.065674,707.213196 1041.187622,709.846436 1042.732056,712.281372 
z"/>
<path fill="#595959" opacity="1.000000" stroke="none" 
	d="
M908.732239,627.281189 
	C895.485657,619.232178 882.217529,610.779602 868.739014,602.084595 
	C870.613281,601.963379 873.127258,601.370056 874.712646,602.322327 
	C884.637512,608.284302 894.438232,614.466675 904.073608,620.885925 
	C906.065613,622.213135 907.187683,624.846375 908.732239,627.281189 
z"/>
<path fill="#595959" opacity="1.000000" stroke="none" 
	d="
M949.732239,653.281189 
	C936.485657,645.232178 923.217529,636.779663 909.739014,628.084595 
	C911.614014,627.963806 914.128662,627.370850 915.714844,628.323669 
	C925.638184,634.284546 935.437256,640.466064 945.070984,646.884460 
	C947.063843,648.212280 948.186829,650.845825 949.732239,653.281189 
z"/>
<path fill="#595959" opacity="1.000000" stroke="none" 
	d="
M1051.267944,674.718689 
	C1064.860229,682.899475 1078.473877,691.483765 1091.830322,700.332764 
	C1090.381958,700.731567 1089.190918,700.865784 1088.000000,701.000000 
	C1076.876709,694.126648 1065.694702,687.344360 1054.695435,680.278015 
	C1053.110229,679.259705 1052.402954,676.874756 1051.267944,674.718689 
z"/>
<path fill="#595959" opacity="1.000000" stroke="none" 
	d="
M773.912720,541.752441 
	C760.854004,533.802612 747.750061,525.490479 734.343628,517.005859 
	C736.518616,517.223389 739.406311,516.926758 741.403992,518.119995 
	C751.029846,523.869751 760.482483,529.920532 769.827026,536.120056 
	C771.571533,537.277405 772.540527,539.603455 773.912720,541.752441 
z"/>
<path fill="#595959" opacity="1.000000" stroke="none" 
	d="
M811.202026,567.890137 
	C810.121582,566.668823 809.671326,564.898010 808.545471,564.165283 
	C797.643799,557.070129 786.628784,550.149109 775.343628,543.005859 
	C777.246765,543.055847 779.871216,542.582275 781.588745,543.615906 
	C791.379028,549.507751 800.998291,555.689880 810.565369,561.942078 
	C812.660706,563.311401 815.431335,565.191650 811.202026,567.890137 
z"/>
<path fill="#595959" opacity="1.000000" stroke="none" 
	d="
M680.912720,482.752533 
	C667.865173,474.746796 654.772461,466.378815 641.489075,457.724579 
	C643.934631,458.121246 646.906982,458.242950 649.148071,459.585541 
	C658.226257,465.024078 667.158936,470.719330 675.955872,476.603027 
	C677.978516,477.955841 679.250183,480.431427 680.912720,482.752533 
z"/>
<path fill="#595959" opacity="1.000000" stroke="none" 
	d="
M691.032715,445.874573 
	C703.908020,454.033447 716.783325,462.192352 729.571167,470.769684 
	C727.989197,471.125397 726.494568,471.062714 725.000000,471.000000 
	C723.841980,470.113831 722.683899,469.227631 721.062378,467.938843 
	C719.732544,467.024139 718.866272,466.512085 718.000000,466.000000 
	C714.904114,464.368835 711.808167,462.737640 708.217041,460.799133 
	C707.147827,459.994507 706.573914,459.497253 706.000000,459.000000 
	C703.236572,457.368622 700.473145,455.737213 697.215698,453.798798 
	C696.147827,452.994507 695.573914,452.497253 695.000000,452.000000 
	C693.841980,451.113831 692.683899,450.227631 691.265808,448.780060 
	C691.014709,447.437286 691.023743,446.655945 691.032715,445.874573 
z"/>
<path fill="#595959" opacity="1.000000" stroke="none" 
	d="
M650.032715,419.874573 
	C662.908020,428.033447 675.783325,436.192352 688.571167,444.769714 
	C686.989197,445.125427 685.494568,445.062714 684.000000,445.000000 
	C682.841980,444.113831 681.683899,443.227631 680.062378,441.938812 
	C678.732544,441.024109 677.866272,440.512054 677.000000,440.000000 
	C674.520447,438.454620 672.040833,436.909271 669.080078,434.950043 
	C667.732544,434.024109 666.866272,433.512054 666.000000,433.000000 
	C662.904053,431.368835 659.808167,429.737671 656.217041,427.799133 
	C655.147827,426.994537 654.573914,426.497284 654.000000,426.000000 
	C652.841980,425.113831 651.683899,424.227631 650.265747,422.780060 
	C650.014709,421.437286 650.023743,420.655945 650.032715,419.874573 
z"/>
<path fill="#595959" opacity="1.000000" stroke="none" 
	d="
M784.032715,504.874573 
	C796.908020,513.033447 809.783325,521.192261 822.571228,529.769653 
	C820.989197,530.125427 819.494629,530.062683 818.000000,530.000000 
	C816.841980,529.113831 815.683899,528.227661 814.062317,526.938843 
	C812.732483,526.024109 811.866272,525.512085 811.000000,525.000000 
	C808.520447,523.454590 806.040894,521.909241 803.080017,519.950073 
	C801.732483,519.024109 800.866272,518.512085 800.000000,518.000000 
	C796.904114,516.368835 793.808167,514.737610 790.217041,512.799072 
	C789.147827,511.994507 788.573914,511.497253 788.000000,511.000000 
	C786.841980,510.113800 785.683960,509.227631 784.265747,507.780060 
	C784.014709,506.437286 784.023743,505.655945 784.032715,504.874573 
z"/>
<path fill="#595959" opacity="1.000000" stroke="none" 
	d="
M969.267761,622.718811 
	C978.847656,628.434448 988.449158,634.553711 998.260986,640.915405 
	C996.532043,641.130615 994.192261,641.800415 992.722290,640.955994 
	C986.153442,637.182739 979.718140,633.142822 973.493042,628.826477 
	C971.656433,627.553040 970.666992,625.057739 969.267761,622.718811 
z"/>
<path fill="#595959" opacity="1.000000" stroke="none" 
	d="
M990.732239,679.281189 
	C981.152344,673.565552 971.550842,667.446289 961.739014,661.084595 
	C963.467957,660.869507 965.807739,660.199707 967.277710,661.044128 
	C973.846558,664.817261 980.281799,668.857239 986.506958,673.173523 
	C988.343567,674.446960 989.333008,676.942261 990.732239,679.281189 
z"/>
<path fill="#595959" opacity="1.000000" stroke="none" 
	d="
M518.295410,737.141479 
	C518.449524,735.764587 518.899048,734.529236 519.111572,733.163330 
	C511.350952,728.261108 503.827423,723.489319 496.138641,718.063782 
	C495.982269,716.940002 495.991150,716.470032 496.000000,716.000000 
	C504.253632,720.806702 512.579285,725.497620 520.687195,730.538574 
	C521.977356,731.340698 522.289490,733.715759 523.053833,735.363647 
	C521.566162,736.003357 520.078491,736.643127 518.295410,737.141479 
z"/>
<path fill="#595959" opacity="1.000000" stroke="none" 
	d="
M1010.267761,648.718872 
	C1019.847717,654.434509 1029.449219,660.553711 1039.261230,666.915405 
	C1037.532227,667.130615 1035.192383,667.800476 1033.722290,666.956055 
	C1027.153442,663.182861 1020.718201,659.142883 1014.492981,654.826538 
	C1012.656372,653.553101 1011.666992,651.057739 1010.267761,648.718872 
z"/>
<path fill="#595959" opacity="1.000000" stroke="none" 
	d="
M721.960754,508.803467 
	C712.569519,503.118042 703.124634,497.064423 693.489075,490.724579 
	C699.366333,490.235138 719.777649,503.075348 721.960754,508.803467 
z"/>
<path fill="#595959" opacity="1.000000" stroke="none" 
	d="
M628.960754,449.803467 
	C619.569580,444.118011 610.124634,438.064392 600.489075,431.724548 
	C606.366333,431.235138 626.777649,444.075348 628.960754,449.803467 
z"/>
<path fill="#595959" opacity="1.000000" stroke="none" 
	d="
M454.965637,692.123291 
	C442.622467,684.400818 430.279297,676.678345 418.221191,668.676819 
	C419.337494,668.265198 420.168762,668.132568 421.000000,668.000000 
	C422.491364,669.211182 423.982727,670.422363 425.986969,672.020325 
	C427.666565,672.938110 428.833282,673.469055 430.000000,674.000000 
	C432.432159,675.298706 434.864288,676.597412 437.787354,678.202209 
	C438.852173,679.005554 439.426086,679.502808 440.000000,680.000000 
	C442.764099,681.631653 445.528198,683.263245 448.785278,685.201599 
	C449.852203,686.005493 450.426117,686.502747 451.000000,687.000000 
	C452.161560,687.881897 453.323151,688.763794 454.737061,690.176758 
	C454.981476,691.179626 454.973541,691.651428 454.965637,692.123291 
z"/>
<path fill="#595959" opacity="1.000000" stroke="none" 
	d="
M880.285095,569.184326 
	C880.255249,568.474854 880.510498,567.949646 880.932861,567.184204 
	C889.083435,571.853516 897.066956,576.763184 905.260925,581.915344 
	C903.400452,582.000916 900.925964,582.520447 899.329590,581.568176 
	C892.928528,577.749634 886.799683,573.474792 880.285095,569.184326 
z"/>
<path fill="#595959" opacity="1.000000" stroke="none" 
	d="
M743.032715,478.874573 
	C752.241333,484.700165 761.450012,490.525726 770.571167,496.769684 
	C768.989197,497.125397 767.494568,497.062683 766.000000,497.000000 
	C764.841980,496.113831 763.683899,495.227631 762.062378,493.938812 
	C760.732544,493.024109 759.866272,492.512054 759.000000,492.000000 
	C755.904114,490.368805 752.808167,488.737640 749.217041,486.799133 
	C748.147827,485.994507 747.573914,485.497253 747.000000,485.000000 
	C745.841980,484.113800 744.683960,483.227631 743.265747,481.780029 
	C743.014709,480.437286 743.023682,479.655945 743.032715,478.874573 
z"/>
<path fill="#595959" opacity="1.000000" stroke="none" 
	d="
M65.141235,402.216614 
	C72.933472,406.712097 80.828918,411.536224 88.716934,416.372467 
	C90.513794,417.474152 92.284950,418.617828 94.265686,419.996094 
	C92.566742,419.945465 90.365585,420.156799 88.825592,419.247894 
	C81.858383,415.135742 75.031326,410.777924 68.271553,406.329620 
	C66.988190,405.485138 66.237953,403.830505 65.141235,402.216614 
z"/>
<path fill="#595959" opacity="1.000000" stroke="none" 
	d="
M333.036133,571.878113 
	C342.936890,578.026855 352.837646,584.175598 362.864136,590.666992 
	C362.989838,591.009766 362.902618,591.097351 362.540588,591.077759 
	C361.452393,591.038757 360.726196,591.019409 360.000000,591.000000 
	C356.903992,589.368774 353.807983,587.737549 350.216858,585.799011 
	C349.147827,584.994446 348.573914,584.497253 348.000000,584.000000 
	C345.235901,582.368408 342.471802,580.736816 339.214722,578.798462 
	C338.147827,577.994507 337.573914,577.497253 337.000000,577.000000 
	C335.838409,576.118103 334.676819,575.236206 333.263214,573.823547 
	C333.019501,572.821167 333.027832,572.349670 333.036133,571.878113 
z"/>
<path fill="#595959" opacity="1.000000" stroke="none" 
	d="
M469.128296,659.184814 
	C471.241425,659.886292 473.575714,660.672485 475.618103,661.931946 
	C482.712860,666.307495 489.706390,670.847107 496.864136,675.667053 
	C496.989838,676.009766 496.902618,676.097351 496.540588,676.077759 
	C495.452393,676.038757 494.726196,676.019409 494.000000,676.000000 
	C490.903992,674.368774 487.807983,672.737549 484.216858,670.799011 
	C483.147827,669.994446 482.573914,669.497253 482.000000,669.000000 
	C479.235931,667.368347 476.471832,665.736755 473.214722,663.798462 
	C472.147827,662.994446 471.573914,662.497253 471.000000,662.000000 
	C470.405212,661.162231 469.810425,660.324402 469.128296,659.184814 
z"/>
<path fill="#595959" opacity="1.000000" stroke="none" 
	d="
M320.965637,607.123291 
	C312.091278,601.632202 303.216949,596.141113 294.383759,590.208069 
	C294.949921,589.510742 295.474976,589.255371 296.000000,589.000000 
	C298.432129,590.298706 300.864288,591.597412 303.787354,593.202209 
	C304.852203,594.005554 305.426117,594.502747 306.000000,595.000000 
	C308.764099,596.631653 311.528198,598.263245 314.785278,600.201599 
	C315.852203,601.005554 316.426086,601.502747 317.000000,602.000000 
	C318.161591,602.881897 319.323181,603.763794 320.737061,605.176758 
	C320.981445,606.179626 320.973541,606.651428 320.965637,607.123291 
z"/>
<path fill="#595959" opacity="1.000000" stroke="none" 
	d="
M495.742371,715.822876 
	C495.991150,716.470032 495.982269,716.940002 495.965912,717.762573 
	C487.731140,712.973999 479.503845,707.832886 471.350708,702.229004 
	C471.949921,701.510742 472.474976,701.255371 473.000000,701.000000 
	C474.459991,701.932068 475.919983,702.864075 477.838440,704.185303 
	C479.531311,705.382935 480.765656,706.191467 482.000000,707.000000 
	C484.432159,708.298706 486.864288,709.597412 489.787354,711.202209 
	C490.852203,712.005493 491.426117,712.502747 492.000000,713.000000 
	C493.161591,713.881897 494.323151,714.763794 495.742371,715.822876 
z"/>
<path fill="#595959" opacity="1.000000" stroke="none" 
	d="
M361.965637,633.123291 
	C353.735931,627.979492 345.506226,622.835693 337.350708,617.229004 
	C337.949921,616.510742 338.474976,616.255371 339.000000,616.000000 
	C340.161560,616.881897 341.323151,617.763794 342.953674,619.074097 
	C344.948425,620.334961 346.474213,621.167480 348.000000,622.000000 
	C350.432129,623.298706 352.864258,624.597412 355.787354,626.202209 
	C356.852173,627.005554 357.426086,627.502747 358.000000,628.000000 
	C359.161591,628.881897 360.323181,629.763794 361.737061,631.176758 
	C361.981445,632.179626 361.973541,632.651428 361.965637,633.123291 
z"/>
<path fill="#595959" opacity="1.000000" stroke="none" 
	d="
M402.963898,659.121277 
	C394.734772,653.978149 386.505676,648.834961 378.350708,643.229004 
	C378.949921,642.510742 379.474976,642.255371 380.000000,642.000000 
	C381.161591,642.881897 382.323181,643.763794 383.953674,645.074097 
	C385.948425,646.335022 387.474213,647.167480 389.000000,648.000000 
	C391.432129,649.298767 393.864258,650.597473 396.787354,652.202271 
	C397.852203,653.005554 398.426086,653.502747 399.000000,654.000000 
	C400.161560,654.881897 401.323151,655.763794 402.736755,657.176392 
	C402.980499,658.178467 402.972198,658.649902 402.963898,659.121277 
z"/>
<path fill="#595959" opacity="1.000000" stroke="none" 
	d="
M472.806702,700.724670 
	C472.474976,701.255371 471.949921,701.510742 471.184631,701.933167 
	C465.732910,698.974792 460.521454,695.849365 455.137817,692.423584 
	C454.973541,691.651428 454.981476,691.179626 454.994690,690.353882 
	C460.871155,693.483093 466.742279,696.966248 472.806702,700.724670 
z"/>
<path fill="#595959" opacity="1.000000" stroke="none" 
	d="
M379.806702,641.724731 
	C379.474976,642.255371 378.949921,642.510742 378.184631,642.933167 
	C372.732941,639.974792 367.521484,636.849365 362.137817,633.423584 
	C361.973541,632.651428 361.981445,632.179626 361.994659,631.353882 
	C367.871124,634.483154 373.742279,637.966248 379.806702,641.724731 
z"/>
<path fill="#595959" opacity="1.000000" stroke="none" 
	d="
M338.806702,615.724670 
	C338.474976,616.255371 337.949921,616.510742 337.184662,616.933105 
	C331.732971,613.974731 326.521515,610.849304 321.137848,607.423584 
	C320.973541,606.651428 320.981445,606.179626 320.994690,605.353882 
	C326.871155,608.483093 332.742279,611.966248 338.806702,615.724670 
z"/>
<path fill="#595959" opacity="1.000000" stroke="none" 
	d="
M451.049255,646.892151 
	C453.013367,648.234192 454.929504,649.654175 456.952209,650.901123 
	C460.518097,653.099426 464.149048,655.192078 467.928528,657.638062 
	C464.462738,656.757629 460.643738,655.931335 457.234192,654.266602 
	C454.370728,652.868347 451.984253,650.493225 449.464966,648.167053 
	C450.045288,647.486328 450.547272,647.189270 451.049255,646.892151 
z"/>
<path fill="#595959" opacity="1.000000" stroke="none" 
	d="
M403.136230,659.421875 
	C402.972198,658.649902 402.980499,658.178467 402.994385,657.353516 
	C408.871124,660.483154 414.742279,663.966248 420.806702,667.724670 
	C420.168762,668.132568 419.337494,668.265198 417.875916,668.486755 
	C412.599915,665.624634 407.954224,662.673523 403.136230,659.421875 
z"/>
<path fill="#595959" opacity="1.000000" stroke="none" 
	d="
M410.049255,620.892151 
	C411.607208,621.733215 413.205872,622.507568 414.714935,623.428711 
	C418.391632,625.672729 422.026764,627.984863 425.852661,630.929626 
	C426.017822,632.059753 426.008911,632.529907 426.000000,633.000000 
	C420.128876,629.516846 414.257721,626.033752 408.464935,622.167053 
	C409.045288,621.486328 409.547272,621.189209 410.049255,620.892151 
z"/>
<path fill="#595959" opacity="1.000000" stroke="none" 
	d="
M503.049255,679.892151 
	C504.607208,680.733215 506.205872,681.507568 507.714996,682.428650 
	C511.391632,684.672668 515.026733,686.984802 518.852661,689.929565 
	C519.017822,691.059753 519.008911,691.529907 519.000000,692.000000 
	C513.128845,688.516907 507.257721,685.033752 501.464935,681.167053 
	C502.045288,680.486328 502.547272,680.189270 503.049255,679.892151 
z"/>
<path fill="#595959" opacity="1.000000" stroke="none" 
	d="
M369.049255,594.892151 
	C370.607178,595.733215 372.205902,596.507568 373.714966,597.428650 
	C377.391632,599.672729 381.026764,601.984863 384.852661,604.929626 
	C385.017853,606.059753 385.008942,606.529907 385.000000,607.000000 
	C379.128845,603.516907 373.257721,600.033752 367.464935,596.167053 
	C368.045288,595.486328 368.547272,595.189270 369.049255,594.892151 
z"/>
<path fill="#595959" opacity="1.000000" stroke="none" 
	d="
M1088.169800,701.282288 
	C1089.190918,700.865784 1090.381958,700.731567 1092.178711,700.531494 
	C1095.286255,702.204041 1097.788086,703.942383 1100.596436,705.811096 
	C1101.135742,709.724854 1098.671875,709.099365 1096.866211,707.979065 
	C1093.856079,706.111633 1091.165039,703.729797 1088.169800,701.282288 
z"/>
<path fill="#595959" opacity="1.000000" stroke="none" 
	d="
M385.257629,607.177185 
	C385.008942,606.529907 385.017853,606.059753 385.034241,605.237061 
	C391.273956,608.697815 397.506195,612.511047 403.864136,616.666992 
	C403.989838,617.009766 403.902618,617.097351 403.540588,617.077759 
	C402.452393,617.038757 401.726196,617.019348 401.000000,617.000000 
	C397.903992,615.368774 394.807983,613.737549 391.216858,611.799011 
	C390.147827,610.994446 389.573914,610.497253 389.000000,610.000000 
	C387.838409,609.118103 386.676819,608.236267 385.257629,607.177185 
z"/>
<path fill="#595959" opacity="1.000000" stroke="none" 
	d="
M117.141220,435.216614 
	C123.049782,438.503113 129.058853,442.122650 135.265686,445.996094 
	C127.530602,445.848816 122.007339,441.344330 117.141220,435.216614 
z"/>
<path fill="#595959" opacity="1.000000" stroke="none" 
	d="
M426.257599,633.177185 
	C426.008911,632.529907 426.017822,632.059753 426.034241,631.237061 
	C432.273987,634.697754 438.506195,638.511047 444.864136,642.666992 
	C444.989838,643.009766 444.902618,643.097351 444.540588,643.077759 
	C443.452393,643.038757 442.726196,643.019348 442.000000,643.000000 
	C438.903992,641.368774 435.807983,639.737549 432.216858,637.799011 
	C431.147827,636.994507 430.573914,636.497253 430.000000,636.000000 
	C428.838409,635.118103 427.676819,634.236267 426.257599,633.177185 
z"/>
<path fill="#595959" opacity="1.000000" stroke="none" 
	d="
M519.257568,692.177185 
	C519.008911,691.529907 519.017822,691.059753 519.034241,690.237061 
	C525.273987,693.697754 531.506165,697.511047 537.864197,701.667114 
	C537.989990,702.009888 537.902649,702.097351 537.540649,702.077759 
	C536.452393,702.038757 535.726196,702.019348 535.000000,702.000000 
	C531.904053,700.368774 528.808044,698.737549 525.216919,696.799011 
	C524.147827,695.994446 523.573914,695.497253 523.000000,695.000000 
	C521.838379,694.118103 520.676819,693.236267 519.257568,692.177185 
z"/>
<path fill="#595959" opacity="1.000000" stroke="none" 
	d="
M856.732117,594.280640 
	C853.042664,592.747192 849.331543,590.809570 845.331360,588.993164 
	C846.329102,584.690063 849.363586,585.940491 851.606201,587.640808 
	C853.687256,589.218567 855.038086,591.759460 856.732117,594.280640 
z"/>
<path fill="#595959" opacity="1.000000" stroke="none" 
	d="
M551.913269,731.340698 
	C551.490540,733.232971 550.834167,734.876770 550.177795,736.520569 
	C549.230896,735.611145 547.508667,734.721741 547.484497,733.788574 
	C547.415955,731.137085 548.944092,729.920715 551.913269,731.340698 
z"/>
<path fill="#595959" opacity="1.000000" stroke="none" 
	d="
M958.267822,615.719116 
	C961.514221,617.434326 964.782288,619.553528 968.260864,621.915283 
	C963.859863,624.141663 960.250610,622.002441 958.267822,615.719116 
z"/>
<path fill="#595959" opacity="1.000000" stroke="none" 
	d="
M1001.732178,686.280884 
	C998.485718,684.565674 995.217712,682.446533 991.739136,680.084717 
	C996.140137,677.858337 999.749390,679.997559 1001.732178,686.280884 
z"/>
<path fill="#595959" opacity="1.000000" stroke="none" 
	d="
M999.267822,641.719116 
	C1002.514221,643.434387 1005.782227,645.553528 1009.260864,647.915283 
	C1004.859863,650.141663 1001.250610,648.002441 999.267822,641.719116 
z"/>
<path fill="#595959" opacity="1.000000" stroke="none" 
	d="
M960.732178,660.280884 
	C957.485779,658.565674 954.217712,656.446472 950.739136,654.084717 
	C955.140137,651.858337 958.749390,653.997559 960.732178,660.280884 
z"/>
<path fill="#595959" opacity="1.000000" stroke="none" 
	d="
M867.732178,601.280884 
	C864.485779,599.565674 861.217712,597.446472 857.739136,595.084717 
	C862.140137,592.858337 865.749390,594.997559 867.732178,601.280884 
z"/>
<path fill="#595959" opacity="1.000000" stroke="none" 
	d="
M906.267822,582.719116 
	C909.514221,584.434326 912.782288,586.553528 916.260864,588.915283 
	C911.859863,591.141663 908.250610,589.002441 906.267822,582.719116 
z"/>
<path fill="#595959" opacity="1.000000" stroke="none" 
	d="
M1053.732056,719.281006 
	C1050.485596,717.565674 1047.217651,715.446533 1043.739014,713.084717 
	C1048.139893,710.858459 1051.749878,712.998169 1053.732056,719.281006 
z"/>
<path fill="#595959" opacity="1.000000" stroke="none" 
	d="
M1040.267944,667.718994 
	C1043.514404,669.434326 1046.782349,671.553467 1050.260986,673.915283 
	C1045.860107,676.141541 1042.250122,674.001831 1040.267944,667.718994 
z"/>
<path fill="#595959" opacity="1.000000" stroke="none" 
	d="
M332.855469,571.571899 
	C333.027832,572.349670 333.019501,572.821167 333.005615,573.646362 
	C330.562622,572.997681 328.009644,572.203186 325.722290,570.931091 
	C323.677032,569.793701 320.874268,568.523438 323.848633,565.205261 
	C326.970306,567.114746 329.822571,569.190186 332.855469,571.571899 
z"/>
<path fill="#595959" opacity="1.000000" stroke="none" 
	d="
M544.049255,705.892212 
	C546.282471,706.771484 548.515686,707.650757 550.957642,708.267944 
	C551.390808,708.957642 551.615173,709.909424 551.839539,710.861267 
	C550.774963,711.004639 549.512878,711.583191 548.684082,711.207092 
	C546.486450,710.209717 544.475952,708.799805 542.467163,707.168762 
	C543.045288,706.486389 543.547302,706.189270 544.049255,705.892212 
z"/>
<path fill="#595959" opacity="1.000000" stroke="none" 
	d="
M691.960205,489.801453 
	C688.891174,488.173553 685.767822,486.175415 682.342651,484.005310 
	C687.479187,482.731201 689.793335,484.044403 691.960205,489.801453 
z"/>
<path fill="#595959" opacity="1.000000" stroke="none" 
	d="
M598.959839,430.800049 
	C595.902527,429.117676 592.790466,427.063690 589.488281,424.724243 
	C594.130066,423.821686 597.578369,425.423737 598.959839,430.800049 
z"/>
<path fill="#595959" opacity="1.000000" stroke="none" 
	d="
M639.959839,456.800110 
	C636.902466,455.117737 633.790405,453.063751 630.488281,450.724243 
	C635.130066,449.821686 638.578369,451.423737 639.959839,456.800110 
z"/>
<path fill="#595959" opacity="1.000000" stroke="none" 
	d="
M732.911743,515.749023 
	C729.864685,514.079712 726.771423,512.044678 723.488220,509.724243 
	C728.091309,508.838776 731.560120,510.370148 732.911743,515.749023 
z"/>
<path fill="#595959" opacity="1.000000" stroke="none" 
	d="
M72.203766,733.684814 
	C72.294518,734.837769 72.481552,735.724915 72.834290,736.806030 
	C70.128922,738.140503 68.704803,736.570618 68.796120,734.080444 
	C68.904602,731.122437 71.055382,730.871033 73.751335,731.940430 
	C73.469254,732.540833 72.884651,732.979919 72.203766,733.684814 
z"/>
<path fill="#595959" opacity="1.000000" stroke="none" 
	d="
M732.034973,471.877197 
	C734.910278,473.702393 737.785645,475.527588 740.572388,477.770477 
	C738.989197,478.125427 737.494568,478.062714 736.000000,478.000000 
	C734.841980,477.113831 733.683899,476.227631 732.265991,474.780396 
	C732.015747,473.438599 732.025330,472.657898 732.034973,471.877197 
z"/>
<path fill="#595959" opacity="1.000000" stroke="none" 
	d="
M639.034973,412.877197 
	C641.910278,414.702423 644.785645,416.527618 647.572388,418.770477 
	C645.989197,419.125427 644.494568,419.062714 643.000000,419.000000 
	C641.841919,418.113831 640.683899,417.227661 639.265991,415.780396 
	C639.015747,414.438599 639.025330,413.657898 639.034973,412.877197 
z"/>
<path fill="#595959" opacity="1.000000" stroke="none" 
	d="
M825.035034,530.877258 
	C827.910278,532.702454 830.785583,534.527588 833.572388,536.770386 
	C831.989197,537.125427 830.494629,537.062683 829.000000,537.000000 
	C827.841980,536.113831 826.683899,535.227661 825.266052,533.780396 
	C825.015808,532.438660 825.025391,531.657959 825.035034,530.877258 
z"/>
<path fill="#595959" opacity="1.000000" stroke="none" 
	d="
M773.034973,497.877197 
	C775.910278,499.702393 778.785645,501.527618 781.572388,503.770477 
	C779.989197,504.125427 778.494568,504.062714 777.000000,504.000000 
	C775.841980,503.113831 774.683899,502.227661 773.265991,500.780396 
	C773.015808,499.438599 773.025391,498.657898 773.034973,497.877197 
z"/>
<path fill="#595959" opacity="1.000000" stroke="none" 
	d="
M836.034973,537.877258 
	C838.602417,539.689209 841.169861,541.501160 843.629150,543.723022 
	C842.347290,544.088623 841.173645,544.044312 840.000000,544.000000 
	C838.841980,543.113831 837.683899,542.227661 836.265991,540.780396 
	C836.015747,539.438660 836.025330,538.657959 836.034973,537.877258 
z"/>
<path fill="#595959" opacity="1.000000" stroke="none" 
	d="
M835.875366,537.633667 
	C836.025330,538.657959 836.015747,539.438660 836.003052,540.609680 
	C833.773499,539.864380 831.546936,538.728760 829.160217,537.296570 
	C830.494629,537.062683 831.989197,537.125427 833.770142,537.044556 
	C834.609558,537.064026 835.162720,537.227051 835.875366,537.633667 
z"/>
<path fill="#595959" opacity="1.000000" stroke="none" 
	d="
M736.160217,478.296570 
	C737.494568,478.062714 738.989197,478.125427 740.770142,478.044556 
	C741.608948,478.063385 742.161438,478.225739 742.873291,478.631348 
	C743.023682,479.655945 743.014709,480.437286 743.002808,481.609314 
	C740.773499,480.864380 738.546936,479.728760 736.160217,478.296570 
z"/>
<path fill="#595959" opacity="1.000000" stroke="none" 
	d="
M643.160217,419.296570 
	C644.494568,419.062714 645.989197,419.125427 647.770142,419.044586 
	C648.608948,419.063385 649.161438,419.225769 649.873291,419.631348 
	C650.023743,420.655945 650.014709,421.437286 650.002808,422.609344 
	C647.773438,421.864410 645.546936,420.728790 643.160217,419.296570 
z"/>
<path fill="#595959" opacity="1.000000" stroke="none" 
	d="
M94.673599,420.804779 
	C96.689034,421.736176 98.705154,423.020874 100.885010,424.598694 
	C97.408241,426.234924 95.870575,423.987915 94.673599,420.804779 
z"/>
<path fill="#595959" opacity="1.000000" stroke="none" 
	d="
M638.875366,412.633606 
	C639.025330,413.657898 639.015747,414.438599 639.003052,415.609650 
	C636.773499,414.864380 634.546936,413.728760 632.160217,412.296570 
	C633.494568,412.062714 634.989197,412.125427 636.770142,412.044556 
	C637.609619,412.064026 638.162659,412.227020 638.875366,412.633606 
z"/>
<path fill="#595959" opacity="1.000000" stroke="none" 
	d="
M684.160217,445.296570 
	C685.494568,445.062714 686.989197,445.125427 688.770142,445.044586 
	C689.608948,445.063416 690.161438,445.225769 690.873291,445.631348 
	C691.023743,446.655945 691.014709,447.437286 691.002869,448.609314 
	C688.773499,447.864380 686.546936,446.728760 684.160217,445.296570 
z"/>
<path fill="#595959" opacity="1.000000" stroke="none" 
	d="
M135.673599,446.804779 
	C137.689026,447.736176 139.705154,449.020874 141.885010,450.598694 
	C138.408264,452.234863 136.870575,449.987915 135.673599,446.804779 
z"/>
<path fill="#595959" opacity="1.000000" stroke="none" 
	d="
M731.875366,471.633606 
	C732.025330,472.657898 732.015747,473.438599 732.003052,474.609650 
	C729.773499,473.864380 727.546936,472.728760 725.160217,471.296570 
	C726.494568,471.062714 727.989197,471.125397 729.770142,471.044556 
	C730.609619,471.063995 731.162659,471.226990 731.875366,471.633606 
z"/>
<path fill="#595959" opacity="1.000000" stroke="none" 
	d="
M772.875366,497.633575 
	C773.025391,498.657898 773.015808,499.438599 773.003052,500.609650 
	C770.773499,499.864380 768.546936,498.728760 766.160217,497.296570 
	C767.494568,497.062683 768.989197,497.125397 770.770142,497.044556 
	C771.609619,497.063995 772.162659,497.226990 772.875366,497.633575 
z"/>
<path fill="#595959" opacity="1.000000" stroke="none" 
	d="
M777.160217,504.296570 
	C778.494568,504.062714 779.989197,504.125427 781.770142,504.044586 
	C782.608948,504.063385 783.161438,504.225739 783.873291,504.631348 
	C784.023743,505.655945 784.014709,506.437286 784.002808,507.609314 
	C781.773499,506.864380 779.546936,505.728760 777.160217,504.296570 
z"/>
<path fill="#595959" opacity="1.000000" stroke="none" 
	d="
M824.875427,530.633667 
	C825.025391,531.657959 825.015808,532.438660 825.003113,533.609680 
	C822.773499,532.864380 820.546936,531.728760 818.160217,530.296570 
	C819.494629,530.062683 820.989197,530.125427 822.770142,530.044556 
	C823.609558,530.064026 824.162720,530.226990 824.875427,530.633667 
z"/>
<path fill="#595959" opacity="1.000000" stroke="none" 
	d="
M502.887573,679.600830 
	C502.547272,680.189270 502.045288,680.486328 501.271667,680.891724 
	C499.870697,680.397034 498.741394,679.794006 497.299744,678.731934 
	C496.959106,677.547729 496.930878,676.822571 496.902649,676.097351 
	C496.902618,676.097351 496.989838,676.009766 497.033447,675.966003 
	C498.959991,677.051331 500.842926,678.180420 502.887573,679.600830 
z"/>
<path fill="#595959" opacity="1.000000" stroke="none" 
	d="
M543.887573,705.600830 
	C543.547302,706.189270 543.045288,706.486389 542.271667,706.891724 
	C540.870667,706.397034 539.741394,705.794006 538.299744,704.731995 
	C537.959167,703.547729 537.930908,702.822571 537.902710,702.097351 
	C537.902649,702.097351 537.989990,702.009888 538.033508,701.966064 
	C539.959961,703.051270 541.842896,704.180359 543.887573,705.600830 
z"/>
<path fill="#595959" opacity="1.000000" stroke="none" 
	d="
M409.887573,620.600830 
	C409.547272,621.189209 409.045288,621.486328 408.271667,621.891724 
	C406.870697,621.396973 405.741394,620.793945 404.299713,619.731934 
	C403.959106,618.547729 403.930878,617.822571 403.902618,617.097351 
	C403.902618,617.097351 403.989838,617.009766 404.033447,616.966003 
	C405.959991,618.051331 407.842926,619.180420 409.887573,620.600830 
z"/>
<path fill="#595959" opacity="1.000000" stroke="none" 
	d="
M450.887573,646.600830 
	C450.547272,647.189270 450.045288,647.486328 449.271667,647.891724 
	C447.870697,647.396973 446.741394,646.794006 445.299713,645.731934 
	C444.959106,644.547729 444.930847,643.822571 444.902618,643.097351 
	C444.902618,643.097351 444.989838,643.009766 445.033447,642.966003 
	C446.960022,644.051270 448.842957,645.180359 450.887573,646.600830 
z"/>
<path fill="#595959" opacity="1.000000" stroke="none" 
	d="
M368.887573,594.600830 
	C368.547272,595.189270 368.045288,595.486328 367.271667,595.891724 
	C365.870697,595.396973 364.741394,594.794006 363.299713,593.731934 
	C362.959076,592.547729 362.930847,591.822571 362.902618,591.097351 
	C362.902618,591.097351 362.989838,591.009766 363.033447,590.966003 
	C364.959991,592.051331 366.842926,593.180359 368.887573,594.600830 
z"/>
<path fill="#595959" opacity="1.000000" stroke="none" 
	d="
M106.139206,428.211914 
	C107.935066,429.024963 109.829422,430.166321 111.886261,431.599792 
	C108.599365,433.396790 107.415398,430.973938 106.139206,428.211914 
z"/>
<path fill="#595959" opacity="1.000000" stroke="none" 
	d="
M840.165894,544.298340 
	C841.173645,544.044312 842.347290,544.088623 843.789368,544.017578 
	C844.813049,544.243835 845.568237,544.585571 846.640198,544.910889 
	C844.606689,547.951233 842.435059,547.033630 840.165894,544.298340 
z"/>
<path fill="#595959" opacity="1.000000" stroke="none" 
	d="
M587.965454,423.821655 
	C586.544922,423.171722 585.075623,422.171906 583.318481,421.002594 
	C586.560425,418.192505 587.164490,420.969208 587.965454,423.821655 
z"/>
<path fill="#595959" opacity="1.000000" stroke="none" 
	d="
M295.861633,588.726196 
	C295.474976,589.255371 294.949921,589.510742 294.184631,589.933167 
	C293.046906,589.622864 292.149445,589.145508 291.103210,588.389526 
	C292.697693,586.078918 294.283905,586.240234 295.861633,588.726196 
z"/>
<path fill="#595959" opacity="1.000000" stroke="none" 
	d="
M388.840546,647.704712 
	C387.474213,647.167480 385.948425,646.335022 384.211304,645.251221 
	C385.560364,645.803162 387.120728,646.606262 388.840546,647.704712 
z"/>
<path fill="#595959" opacity="1.000000" stroke="none" 
	d="
M347.840546,621.704712 
	C346.474213,621.167480 344.948425,620.334961 343.211304,619.251221 
	C344.560364,619.803162 346.120728,620.606323 347.840546,621.704712 
z"/>
<path fill="#595959" opacity="1.000000" stroke="none" 
	d="
M481.851532,706.712769 
	C480.765656,706.191467 479.531311,705.382935 478.148468,704.287231 
	C479.234344,704.808533 480.468719,705.617065 481.851532,706.712769 
z"/>
<path fill="#595959" opacity="1.000000" stroke="none" 
	d="
M362.540588,591.077759 
	C362.930847,591.822571 362.959076,592.547729 362.993652,593.636475 
	C362.075043,593.198975 361.150085,592.398010 360.112549,591.298462 
	C360.726196,591.019409 361.452393,591.038757 362.540588,591.077759 
z"/>
<path fill="#595959" opacity="1.000000" stroke="none" 
	d="
M496.540619,676.077759 
	C496.930878,676.822571 496.959106,677.547729 496.993683,678.636475 
	C496.075043,678.198975 495.150085,677.398010 494.112549,676.298462 
	C494.726196,676.019409 495.452393,676.038757 496.540619,676.077759 
z"/>
<path fill="#595959" opacity="1.000000" stroke="none" 
	d="
M429.871094,673.734985 
	C428.833282,673.469055 427.666565,672.938110 426.249939,672.203552 
	C427.247406,672.489990 428.494781,672.980042 429.871094,673.734985 
z"/>
<path fill="#595959" opacity="1.000000" stroke="none" 
	d="
M403.540588,617.077759 
	C403.930878,617.822571 403.959106,618.547729 403.993652,619.636475 
	C403.075043,619.198975 402.150085,618.398010 401.112549,617.298462 
	C401.726196,617.019348 402.452393,617.038757 403.540588,617.077759 
z"/>
<path fill="#595959" opacity="1.000000" stroke="none" 
	d="
M606.929077,395.257812 
	C607.883118,395.833160 608.766235,396.666321 609.824707,397.749756 
	C608.952698,397.171844 607.905396,396.343719 606.929077,395.257812 
z"/>
<path fill="#595959" opacity="1.000000" stroke="none" 
	d="
M537.540649,702.077759 
	C537.930908,702.822571 537.959167,703.547729 537.993713,704.636475 
	C537.075073,704.198975 536.150146,703.397949 535.112549,702.298462 
	C535.726196,702.019348 536.452393,702.038757 537.540649,702.077759 
z"/>
<path fill="#595959" opacity="1.000000" stroke="none" 
	d="
M444.540588,643.077759 
	C444.930847,643.822571 444.959106,644.547729 444.993652,645.636475 
	C444.075043,645.198975 443.150085,644.398010 442.112549,643.298462 
	C442.726196,643.019348 443.452393,643.038757 444.540588,643.077759 
z"/>
<path fill="#595959" opacity="1.000000" stroke="none" 
	d="
M677.167725,440.264343 
	C677.866272,440.512054 678.732544,441.024109 679.799438,441.768066 
	C679.111816,441.509552 678.223694,441.019135 677.167725,440.264343 
z"/>
<path fill="#595959" opacity="1.000000" stroke="none" 
	d="
M800.167725,518.264343 
	C800.866272,518.512085 801.732483,519.024109 802.799377,519.768066 
	C802.111816,519.509583 801.223694,519.019165 800.167725,518.264343 
z"/>
<path fill="#595959" opacity="1.000000" stroke="none" 
	d="
M666.167725,433.264343 
	C666.866272,433.512054 667.732544,434.024109 668.799438,434.768066 
	C668.111816,434.509552 667.223694,434.019135 666.167725,433.264343 
z"/>
<path fill="#595959" opacity="1.000000" stroke="none" 
	d="
M811.167725,525.264343 
	C811.866272,525.512085 812.732483,526.024109 813.799377,526.768066 
	C813.111816,526.509583 812.223694,526.019165 811.167725,525.264343 
z"/>
<path fill="#595959" opacity="1.000000" stroke="none" 
	d="
M759.167725,492.264343 
	C759.866272,492.512054 760.732544,493.024109 761.799438,493.768066 
	C761.111816,493.509552 760.223694,493.019135 759.167725,492.264343 
z"/>
<path fill="#595959" opacity="1.000000" stroke="none" 
	d="
M718.167725,466.264343 
	C718.866272,466.512085 719.732544,467.024139 720.799438,467.768097 
	C720.111816,467.509583 719.223694,467.019135 718.167725,466.264343 
z"/>
<path fill="#595959" opacity="1.000000" stroke="none" 
	d="
M625.167725,407.264343 
	C625.866272,407.512054 626.732544,408.024109 627.799438,408.768066 
	C627.111816,408.509583 626.223694,408.019135 625.167725,407.264343 
z"/>
<path fill="#595959" opacity="1.000000" stroke="none" 
	d="
M613.139160,400.254120 
	C613.573914,400.497253 614.147827,400.994507 614.860840,401.745880 
	C614.426086,401.502747 613.852173,401.005493 613.139160,400.254120 
z"/>
<path fill="#595959" opacity="1.000000" stroke="none" 
	d="
M491.860870,712.745850 
	C491.426117,712.502747 490.852203,712.005493 490.139160,711.254150 
	C490.573883,711.497253 491.147797,711.994507 491.860870,712.745850 
z"/>
<path fill="#595959" opacity="1.000000" stroke="none" 
	d="
M747.139160,485.254120 
	C747.573914,485.497253 748.147827,485.994507 748.860840,486.745880 
	C748.426086,486.502747 747.852173,486.005493 747.139160,485.254120 
z"/>
<path fill="#595959" opacity="1.000000" stroke="none" 
	d="
M337.139130,577.254150 
	C337.573914,577.497253 338.147827,577.994507 338.860870,578.745850 
	C338.426086,578.502747 337.852173,578.005493 337.139130,577.254150 
z"/>
<path fill="#595959" opacity="1.000000" stroke="none" 
	d="
M706.139160,459.254120 
	C706.573914,459.497253 707.147827,459.994507 707.860840,460.745880 
	C707.426086,460.502747 706.852173,460.005493 706.139160,459.254120 
z"/>
<path fill="#595959" opacity="1.000000" stroke="none" 
	d="
M695.139160,452.254120 
	C695.573914,452.497253 696.147827,452.994507 696.860840,453.745880 
	C696.426086,453.502747 695.852173,453.005493 695.139160,452.254120 
z"/>
<path fill="#595959" opacity="1.000000" stroke="none" 
	d="
M654.139160,426.254150 
	C654.573914,426.497284 655.147827,426.994537 655.860840,427.745911 
	C655.426086,427.502747 654.852173,427.005493 654.139160,426.254150 
z"/>
<path fill="#595959" opacity="1.000000" stroke="none" 
	d="
M607.804443,391.097778 
	C607.768799,391.509918 607.537598,392.019867 607.153198,392.764893 
	C607.203003,392.398529 607.405945,391.797028 607.804443,391.097778 
z"/>
<path fill="#595959" opacity="1.000000" stroke="none" 
	d="
M788.139160,511.254089 
	C788.573914,511.497253 789.147827,511.994507 789.860840,512.745850 
	C789.426086,512.502747 788.852173,512.005493 788.139160,511.254089 
z"/>
<path fill="#595959" opacity="1.000000" stroke="none" 
	d="
M523.139160,695.254150 
	C523.573914,695.497253 524.147827,695.994446 524.860840,696.745850 
	C524.426086,696.502747 523.852173,696.005554 523.139160,695.254150 
z"/>
<path fill="#595959" opacity="1.000000" stroke="none" 
	d="
M348.139130,584.254150 
	C348.573914,584.497253 349.147827,584.994446 349.860870,585.745850 
	C349.426086,585.502747 348.852173,585.005554 348.139130,584.254150 
z"/>
<path fill="#595959" opacity="1.000000" stroke="none" 
	d="
M450.860870,686.745850 
	C450.426117,686.502747 449.852203,686.005493 449.139160,685.254150 
	C449.573914,685.497253 450.147827,685.994446 450.860870,686.745850 
z"/>
<path fill="#595959" opacity="1.000000" stroke="none" 
	d="
M439.860840,679.745850 
	C439.426086,679.502808 438.852173,679.005554 438.139130,678.254150 
	C438.573914,678.497253 439.147827,678.994446 439.860840,679.745850 
z"/>
<path fill="#595959" opacity="1.000000" stroke="none" 
	d="
M305.860870,594.745850 
	C305.426117,594.502747 304.852203,594.005554 304.139160,593.254150 
	C304.573914,593.497253 305.147827,593.994446 305.860870,594.745850 
z"/>
<path fill="#595959" opacity="1.000000" stroke="none" 
	d="
M316.860870,601.745850 
	C316.426086,601.502747 315.852203,601.005554 315.139160,600.254150 
	C315.573914,600.497192 316.147827,600.994446 316.860870,601.745850 
z"/>
<path fill="#595959" opacity="1.000000" stroke="none" 
	d="
M482.139130,669.254150 
	C482.573914,669.497253 483.147827,669.994446 483.860870,670.745850 
	C483.426086,670.502747 482.852173,670.005554 482.139130,669.254150 
z"/>
<path fill="#595959" opacity="1.000000" stroke="none" 
	d="
M389.139130,610.254150 
	C389.573914,610.497253 390.147827,610.994446 390.860870,611.745850 
	C390.426086,611.502747 389.852173,611.005554 389.139130,610.254150 
z"/>
<path fill="#595959" opacity="1.000000" stroke="none" 
	d="
M471.139130,662.254150 
	C471.573914,662.497253 472.147827,662.994446 472.860870,663.745850 
	C472.426086,663.502747 471.852173,663.005493 471.139130,662.254150 
z"/>
<path fill="#595959" opacity="1.000000" stroke="none" 
	d="
M357.860870,627.745850 
	C357.426086,627.502747 356.852173,627.005554 356.139160,626.254150 
	C356.573914,626.497192 357.147827,626.994446 357.860870,627.745850 
z"/>
<path fill="#595959" opacity="1.000000" stroke="none" 
	d="
M430.139130,636.254150 
	C430.573914,636.497253 431.147827,636.994507 431.860870,637.745850 
	C431.426086,637.502747 430.852173,637.005554 430.139130,636.254150 
z"/>
<path fill="#595959" opacity="1.000000" stroke="none" 
	d="
M398.860870,653.745850 
	C398.426086,653.502747 397.852203,653.005554 397.139160,652.254150 
	C397.573914,652.497192 398.147827,652.994446 398.860870,653.745850 
z"/>
</svg>