<svg version="1.1" id="Layer_1" xmlns="http://www.w3.org/2000/svg" xmlns:xlink="http://www.w3.org/1999/xlink" x="0px" y="0px"
	 width="100%" viewBox="0 0 1136 770" enable-background="new 0 0 1136 770" xml:space="preserve">
<path fill="#595959" opacity="1.000000" stroke="none" 
	d="
M3.453632,771.000000 
	C3.017541,770.248108 3.035082,769.496277 3.567558,768.372375 
	C379.388336,768.000244 754.694153,768.000122 1130.280029,768.108948 
	C1131.317627,768.478577 1132.075073,768.739258 1132.832642,768.999939 
	C1132.758179,769.466980 1132.683594,769.933960 1132.804443,770.700500 
	C756.635742,771.000000 380.271515,771.000000 3.453632,771.000000 
z"/>
<path fill="#595959" opacity="1.000000" stroke="none" 
	d="
M1130.000000,768.000000 
	C754.694153,768.000122 379.388336,768.000244 3.624514,768.000610 
	C3.111062,765.837036 3.007161,763.673157 3.007035,761.509277 
	C2.999321,629.356201 3.000116,497.203094 3.000106,365.050018 
	C3.000106,362.597565 3.000107,360.145111 3.000107,356.998383 
	C74.385628,356.998383 145.151474,356.998383 216.433960,357.403076 
	C216.885086,360.684570 218.182098,362.088043 221.166855,361.999817 
	C224.657303,361.896637 228.165527,362.142792 231.639893,361.885101 
	C232.855377,361.794952 233.993301,360.659088 235.624420,360.000549 
	C456.410858,360.000244 676.739502,360.004578 897.068176,359.961304 
	C900.701172,359.960571 904.334106,359.380280 908.424194,359.193787 
	C924.646301,359.374969 940.411316,359.487732 956.176208,359.467499 
	C964.129333,359.457275 972.082275,359.206024 980.424744,359.188293 
	C983.788025,359.541748 986.761658,359.967529 989.735657,359.970215 
	C1036.490479,360.012268 1083.245239,359.999878 1130.000000,360.468658 
	C1130.000000,496.624878 1130.000000,632.312439 1130.000000,768.000000 
M680.807678,440.079742 
	C682.108337,444.199158 685.007141,445.595276 689.709534,445.024170 
	C690.470703,445.624817 691.231934,446.225464 692.207397,447.503113 
	C692.939026,448.582306 693.433167,450.026001 694.440308,450.682281 
	C701.643555,455.375824 708.892334,460.008026 716.277344,464.406769 
	C717.692322,465.249573 719.773987,464.973175 721.687378,465.240143 
	C721.687378,465.240143 721.725586,465.376801 721.807678,466.079742 
	C723.108337,470.199158 726.007141,471.595276 730.709534,471.024170 
	C731.470764,471.624817 732.231934,472.225494 733.204163,473.497375 
	C734.652466,477.084686 737.172791,478.769318 741.709534,478.024170 
	C742.470703,478.624847 743.231934,479.225494 744.207397,480.503174 
	C748.933167,486.449677 754.671204,490.662689 762.687378,491.240143 
	C762.687378,491.240143 762.725586,491.376801 762.807678,492.079742 
	C764.108337,496.199158 767.007141,497.595276 771.709534,497.024139 
	C772.470764,497.624817 773.231995,498.225494 774.204163,499.497375 
	C775.652466,503.084686 778.172791,504.769318 782.709534,504.024170 
	C783.470703,504.624847 784.231873,505.225494 785.207397,506.503204 
	C789.932983,512.450012 795.671448,516.662354 803.687256,517.240051 
	C803.687256,517.240051 803.725464,517.376709 803.809937,518.085083 
	C805.714417,523.062683 809.679993,524.428650 814.687378,524.240112 
	C814.687378,524.240112 814.725586,524.376770 814.807678,525.079651 
	C816.108398,529.198914 819.007019,530.595398 823.709534,530.024170 
	C824.470703,530.624756 825.231812,531.225403 826.204041,532.497253 
	C827.652466,536.084412 830.172546,537.769592 834.709534,537.024170 
	C835.470642,537.624817 836.231812,538.225403 837.206055,539.500122 
	C838.707825,542.947937 841.012939,544.960693 845.755554,543.905457 
	C848.444885,542.369202 851.235168,540.984802 853.808411,539.273804 
	C889.769470,515.362976 925.695190,491.398987 961.644043,467.469696 
	C969.158264,462.467773 976.730713,457.553192 985.073669,452.549164 
	C987.064880,451.795105 989.282043,451.382202 991.013306,450.235657 
	C1015.950195,433.721466 1040.840576,417.136810 1065.660400,400.447327 
	C1067.097046,399.481293 1067.832764,397.472717 1069.103027,395.511261 
	C1069.293457,395.229767 1069.553101,395.046448 1070.281616,394.564728 
	C1069.671265,393.452606 1069.306396,391.738220 1068.394165,391.366302 
	C1066.942749,390.774597 1065.126587,391.012207 1063.464600,391.012085 
	C914.743896,391.002045 766.023193,391.001221 617.302490,391.019348 
	C615.313660,391.019592 613.257874,390.997253 611.352112,391.467285 
	C608.648376,392.134125 607.486023,394.614624 609.605896,396.275269 
	C615.257263,400.702362 620.526245,406.192810 628.687378,406.240143 
	C628.687378,406.240143 628.725586,406.376801 628.807678,407.079742 
	C630.108337,411.199158 633.007141,412.595276 637.709534,412.024170 
	C638.470764,412.624847 639.231934,413.225494 640.204163,414.497375 
	C641.652466,418.084686 644.172791,419.769318 648.709534,419.024170 
	C649.470703,419.624817 650.231934,420.225464 651.207397,421.503174 
	C655.933167,427.449677 661.671204,431.662689 669.687256,432.240082 
	C669.687256,432.240082 669.725464,432.376709 669.809937,433.085052 
	C671.714417,438.062653 675.679932,439.428711 680.687378,439.240112 
	C680.687378,439.240112 680.725586,439.376801 680.807678,440.079742 
M918.192322,632.920349 
	C916.891663,628.801086 913.993042,627.404602 909.290527,627.975891 
	C908.529358,627.375244 907.768188,626.774658 906.792664,625.497009 
	C906.061035,624.417786 905.567017,622.973999 904.559814,622.317749 
	C897.356567,617.624207 890.107605,612.992126 882.722656,608.593384 
	C881.307678,607.750549 879.226013,608.026855 877.312622,607.759888 
	C877.312622,607.759888 877.274414,607.623230 877.192322,606.920349 
	C875.891663,602.801086 872.993042,601.404602 868.290527,601.975891 
	C867.529358,601.375305 866.768188,600.774658 865.795959,599.502747 
	C864.347534,595.915588 861.827454,594.230469 857.290527,594.975891 
	C856.529358,594.375244 855.768188,593.774597 854.793945,592.499878 
	C853.292053,589.052246 850.987122,587.039246 846.314758,588.327576 
	C832.721558,597.468689 819.162231,606.660583 805.528137,615.740356 
	C776.262939,635.229858 746.953308,654.652527 717.673035,674.119324 
	C688.147888,693.748718 658.636169,713.398254 628.718811,733.435425 
	C629.329529,734.547546 629.694824,736.262024 630.607239,736.633789 
	C632.059204,737.225464 633.875916,736.987915 635.538330,736.987976 
	C779.971375,736.997925 924.404480,736.998108 1068.837524,736.983582 
	C1070.663696,736.983398 1072.544678,737.027527 1074.304077,736.627808 
	C1077.586304,735.882141 1078.537476,733.061951 1075.795288,731.326050 
	C1072.023438,728.938293 1067.597534,727.583862 1063.312622,725.759827 
	C1063.312622,725.759827 1063.274536,725.623291 1063.192383,724.920410 
	C1061.891968,720.800598 1058.992920,719.404846 1054.290527,719.975830 
	C1053.529297,719.375122 1052.768066,718.774475 1051.795776,717.502625 
	C1050.347534,713.915405 1047.827148,712.230713 1043.290527,712.975830 
	C1042.529297,712.375122 1041.768066,711.774475 1040.792603,710.496826 
	C1040.061035,709.417603 1039.566772,707.973999 1038.559692,707.317688 
	C1031.356445,702.624146 1024.107666,697.992004 1016.722595,693.593323 
	C1015.307556,692.750549 1013.226013,693.026794 1011.312622,692.759888 
	C1011.312622,692.759888 1011.274414,692.623230 1011.192322,691.920349 
	C1009.891663,687.801086 1006.993042,686.404602 1002.290527,686.975891 
	C1001.529358,686.375305 1000.768188,685.774658 999.795959,684.502747 
	C998.347534,680.915588 995.827454,679.230469 991.290527,679.975891 
	C990.529358,679.375305 989.768188,678.774658 988.792664,677.497009 
	C984.067078,671.550110 978.328613,667.337646 970.312622,666.759888 
	C970.312622,666.759888 970.274414,666.623230 970.192322,665.920349 
	C968.891663,661.801086 965.993042,660.404602 961.290527,660.975891 
	C960.529358,660.375244 959.768188,659.774597 958.795959,658.502747 
	C957.347534,654.915588 954.827454,653.230469 950.290527,653.975891 
	C949.529358,653.375244 948.768188,652.774597 947.792664,651.497009 
	C943.067078,645.550110 937.328613,641.337646 929.312744,640.759949 
	C929.312744,640.759949 929.274536,640.623291 929.190063,639.914917 
	C927.285583,634.937317 923.320007,633.571350 918.312622,633.759888 
	C918.312622,633.759888 918.274414,633.623230 918.192322,632.920349 
M30.781733,710.630981 
	C31.166096,712.268860 31.550459,713.906677 31.934822,715.544556 
	C32.942825,714.991150 33.950832,714.437805 35.357327,713.338379 
	C101.150017,669.491211 166.943161,625.644775 232.734818,581.796021 
	C240.333237,576.731812 247.923340,571.655151 255.854340,566.359131 
	C227.505524,548.305664 199.856506,530.639343 172.148041,513.066711 
	C135.780807,490.002838 99.379280,466.992920 62.964317,444.004425 
	C53.379723,437.953674 43.691387,432.067291 33.548347,425.810211 
	C33.032234,425.540131 32.516121,425.270050 31.565090,425.431580 
	C31.376728,426.954376 31.188366,428.477203 31.000000,430.937317 
	C31.000000,523.958191 31.000000,616.979126 30.781733,710.630981 
M580.611023,719.000244 
	C581.018372,719.000549 581.425720,719.000793 582.294373,719.372559 
	C583.584656,718.678711 584.942322,718.085876 586.155396,717.276428 
	C638.443115,682.387451 690.700623,647.453125 743.002563,612.585510 
	C765.917175,597.309265 788.919556,582.164734 812.220032,566.614563 
	C811.090820,564.719910 810.411926,562.156372 808.757202,561.042175 
	C799.847290,555.042664 790.753845,549.306091 781.566162,543.738708 
	C780.105469,542.853516 777.845398,543.287598 775.377441,542.998596 
	C774.904236,542.703979 774.431030,542.409302 773.805359,541.409912 
	C772.450867,539.602905 771.456665,537.249023 769.681946,536.079956 
	C760.110352,529.774963 750.400208,523.672668 740.587280,517.749939 
	C739.117004,516.862549 736.852173,517.291626 734.377441,516.998596 
	C733.904236,516.703979 733.431030,516.409363 732.804504,515.408325 
	C731.388428,511.080109 728.857056,508.615417 723.377441,509.998596 
	C722.904236,509.703979 722.431030,509.409332 721.805359,508.409912 
	C720.315002,506.515900 719.165405,504.128174 717.270508,502.820221 
	C711.547913,498.870209 705.618225,495.195190 699.578430,491.747253 
	C698.073486,490.888092 695.848816,491.289642 693.377441,490.998596 
	C692.904236,490.703979 692.431030,490.409332 691.804504,489.408295 
	C690.388367,485.080231 687.857117,482.615356 682.377441,483.998596 
	C681.904236,483.703949 681.431030,483.409332 680.805359,482.409912 
	C679.450928,480.602844 678.456665,478.248962 676.681946,477.079956 
	C667.110352,470.774963 657.400208,464.672638 647.587280,458.750000 
	C646.117004,457.862610 643.852234,458.291687 641.377441,457.998596 
	C640.904236,457.703979 640.431030,457.409363 639.804504,456.408295 
	C638.388367,452.080231 635.857117,449.615356 630.377441,450.998596 
	C629.904236,450.703979 629.431030,450.409332 628.805359,449.409912 
	C627.315002,447.515869 626.165466,445.128174 624.270569,443.820282 
	C618.547913,439.870209 612.618164,436.195190 606.578430,432.747223 
	C605.073486,431.888062 602.848816,432.289673 600.377441,431.998627 
	C599.904236,431.703979 599.431030,431.409363 598.804504,430.408295 
	C597.388367,426.080231 594.857117,423.615356 589.377441,424.998596 
	C588.904236,424.703949 588.431030,424.409332 587.821472,423.461212 
	C587.088013,421.005432 586.197144,418.836914 582.541138,420.981995 
	C582.377563,421.023193 582.214050,421.064362 581.548279,420.810242 
	C581.032227,420.540161 580.516113,420.270081 579.565063,420.431549 
	C579.376709,421.954376 579.188354,423.477173 579.000000,425.937317 
	C579.000000,522.624878 579.000000,619.312439 578.826172,716.458130 
	C579.217468,717.305420 579.608704,718.152710 580.611023,719.000244 
M918.194641,590.590088 
	C919.549133,592.397095 920.543335,594.751038 922.318054,595.920105 
	C931.889587,602.225098 941.599792,608.327332 951.412720,614.250000 
	C952.882935,615.137451 955.147827,614.708374 957.622559,615.001404 
	C958.095764,615.296021 958.568970,615.590637 959.195496,616.591675 
	C960.611572,620.919861 963.143005,623.384583 968.622559,622.001404 
	C969.095764,622.296082 969.568970,622.590698 970.194641,623.590088 
	C971.684998,625.484070 972.834595,627.871765 974.729492,629.179688 
	C980.452209,633.129700 986.381836,636.804749 992.421631,640.252747 
	C993.926575,641.111877 996.151245,640.710388 998.622559,641.001404 
	C999.095764,641.296021 999.568970,641.590637 1000.195496,642.591675 
	C1001.611572,646.919861 1004.143005,649.384583 1009.622559,648.001343 
	C1010.095764,648.296021 1010.568970,648.590637 1011.194702,649.590088 
	C1012.684998,651.484070 1013.834595,653.871704 1015.729431,655.179688 
	C1021.452087,659.129700 1027.381714,662.804749 1033.421509,666.252747 
	C1034.926514,667.111938 1037.151123,666.710449 1039.622559,667.001404 
	C1040.095703,667.296021 1040.568970,667.590637 1041.195435,668.591614 
	C1042.611328,672.920166 1045.143066,675.384277 1050.622559,674.001404 
	C1051.095703,674.296021 1051.568970,674.590637 1052.194580,675.590088 
	C1053.548950,677.397156 1054.543213,679.751160 1056.317871,680.920166 
	C1065.889526,687.225098 1075.599609,693.327271 1085.412598,699.249878 
	C1086.882935,700.137329 1089.147705,699.708374 1091.622559,700.001404 
	C1092.095703,700.296021 1092.568970,700.590637 1093.192017,701.583313 
	C1094.509888,704.550171 1095.323730,708.320312 1100.672363,705.338867 
	C1100.781616,703.018433 1100.985840,700.697998 1100.986328,698.377563 
	C1101.002441,608.610352 1100.994141,518.843201 1101.021362,429.075989 
	C1101.022339,425.511047 1101.337646,421.946167 1101.567261,417.098816 
	C1099.020386,419.147766 1097.343628,420.720490 1095.457764,421.980164 
	C1069.438354,439.359497 1043.397461,456.706757 1017.347351,474.040100 
	C974.152710,502.781036 930.929504,531.479187 887.792358,560.306030 
	C885.228577,562.019348 883.319397,564.712158 881.037598,567.489868 
	C881.388794,568.371887 881.481201,569.644470 882.131287,570.075256 
	C888.277832,574.148071 894.462830,578.172119 900.790039,581.953857 
	C901.825439,582.572693 903.607910,581.941650 905.622559,582.001404 
	C906.095764,582.296021 906.568970,582.590698 907.195496,583.591675 
	C908.611572,587.919861 911.143005,590.384583 916.622559,589.001404 
	C917.095764,589.296021 917.568970,589.590698 918.194641,590.590088 
M423.719452,498.704803 
	C422.843842,499.457703 422.036285,500.312653 421.082672,500.948608 
	C398.020050,516.329041 374.935455,531.676453 351.869629,547.052124 
	C342.732239,553.143127 333.630249,559.287231 324.038300,565.725159 
	C399.755066,613.746643 474.872131,661.387756 550.708191,709.484863 
	C550.840515,706.800964 550.989258,705.190735 550.989441,703.580505 
	C551.000610,608.815308 551.004456,514.050110 550.959900,419.284912 
	C550.959045,417.559204 550.365112,415.833740 549.455383,413.942261 
	C547.617126,414.532928 545.525696,414.742279 543.977661,415.770142 
	C505.521545,441.304749 467.106201,466.901062 428.762573,492.604187 
	C426.827179,493.901520 425.599182,496.254120 423.719452,498.704803 
M294.195587,541.787842 
	C296.642120,540.848572 299.364594,540.324585 301.494812,538.909180 
	C351.800446,505.484833 402.055054,471.983490 452.247650,438.389618 
	C454.180267,437.096161 455.404053,434.743622 457.280518,432.295166 
	C458.006378,431.615173 458.653442,430.816895 459.469940,430.272858 
	C472.652466,421.489563 485.864838,412.751038 499.051025,403.973206 
	C503.448883,401.045624 507.792023,398.035889 513.065491,394.447754 
	C359.715851,394.447754 207.706131,394.447754 55.696430,394.447754 
	C58.205524,397.029694 61.027248,398.679657 63.786011,400.428894 
	C104.889374,426.491882 145.992371,452.555420 187.078934,478.644867 
	C219.947342,499.515900 252.760345,520.474670 285.733398,541.178894 
	C287.656250,542.386230 290.793854,541.658997 294.195587,541.787842 
M452.500000,733.998474 
	C474.299988,733.998474 496.100006,733.998474 517.900024,733.998474 
	C516.679932,731.867371 515.377136,730.884888 514.004639,730.012024 
	C489.358093,714.339844 464.715881,698.660828 440.046844,683.024109 
	C407.432800,662.351257 374.792206,641.720276 342.171326,621.058228 
	C326.000397,610.815430 309.833710,600.565735 293.702667,590.260437 
	C291.241699,588.688293 289.483978,588.650330 286.785339,590.456543 
	C216.819168,637.285889 146.751526,683.963623 76.706993,730.675842 
	C75.565659,731.436951 74.493828,732.302246 72.200409,733.998474 
	C199.678711,733.998474 325.589355,733.998474 452.500000,733.998474 
z"/>
<path fill="#00B050" opacity="1.000000" stroke="none" 
	d="
M235.166656,360.000763 
	C233.993301,360.659088 232.855377,361.794952 231.639893,361.885101 
	C228.165527,362.142792 224.657303,361.896637 221.166855,361.999817 
	C218.182098,362.088043 216.885086,360.684570 216.892197,357.403076 
	C216.887146,344.668365 217.090836,332.336670 216.951828,320.008850 
	C216.811478,307.561798 216.289322,295.119507 216.010284,282.673431 
	C215.634140,265.896271 215.435425,249.114410 214.949921,232.340652 
	C214.720551,224.416092 214.001434,216.505707 213.446945,207.676956 
	C182.461227,215.401489 151.562210,223.104385 120.309151,230.895554 
	C120.309151,155.555267 120.309151,80.490219 120.309151,5.091084 
	C144.338303,11.092978 168.181351,17.025616 192.012482,23.005819 
	C234.311127,33.620281 276.612854,44.223217 318.868164,55.007668 
	C321.107910,55.579285 322.929901,57.787521 324.661499,59.906082 
	C323.918213,63.308964 323.067291,66.038681 323.060730,68.770439 
	C322.971771,105.791199 323.000031,142.812241 322.999329,179.833221 
	C311.300049,182.890549 299.618256,186.016632 287.897644,188.989899 
	C267.771332,194.095535 247.620834,199.105728 227.507477,204.751892 
	C229.172577,204.916718 230.837677,205.081543 232.644379,205.260376 
	C232.766464,206.154541 232.959198,206.961060 232.975021,207.771027 
	C233.328323,225.857224 233.683487,243.943451 233.994049,262.030426 
	C234.353195,282.945923 234.612961,303.863281 235.028870,324.777557 
	C235.236343,335.210724 235.695709,345.638855 235.953125,356.823425 
	C235.632294,358.385315 235.399475,359.193024 235.166656,360.000763 
z"/>
<path fill="#C00000" opacity="1.000000" stroke="none" 
	d="
M980.035278,359.063782 
	C972.082275,359.206024 964.129333,359.457275 956.176208,359.467499 
	C940.411316,359.487732 924.646301,359.374969 908.428955,358.846924 
	C907.928833,357.917480 907.881104,357.458282 907.833374,356.999084 
	C907.888977,354.669769 907.992920,352.340424 907.993103,350.011108 
	C908.001221,255.053009 908.000000,160.094894 908.000000,65.136795 
	C908.000000,63.000175 908.000000,60.863556 908.000000,58.365646 
	C983.758301,58.365646 1059.098145,58.365646 1134.718750,58.365646 
	C1134.718750,86.825172 1134.718750,115.061806 1134.718750,143.792145 
	C1083.657349,143.792145 1032.758911,143.792145 980.999512,143.792145 
	C980.999512,214.826660 980.999512,285.371582 980.732178,356.559814 
	C980.321655,357.823334 980.178467,358.443573 980.035278,359.063782 
z"/>
<path fill="#595959" opacity="1.000000" stroke="none" 
	d="
M907.375305,356.999084 
	C907.881104,357.458282 907.928833,357.917480 907.971802,358.723572 
	C904.334106,359.380280 900.701172,359.960571 897.068176,359.961304 
	C676.739502,360.004578 456.410858,360.000244 235.624420,360.000549 
	C235.399475,359.193024 235.632294,358.385315 236.015900,357.288330 
	C459.750183,356.999084 683.333740,356.999084 907.375305,356.999084 
z"/>
<path fill="#595959" opacity="1.000000" stroke="none" 
	d="
M1130.280029,768.108948 
	C1130.000000,632.312439 1130.000000,496.624878 1130.108887,360.188477 
	C1130.478027,358.681824 1130.738159,357.923981 1130.998291,357.166138 
	C1131.664307,358.561310 1132.923340,359.964569 1132.904297,361.350403 
	C1132.727783,374.305847 1132.052734,387.258118 1132.043579,400.211670 
	C1131.966431,509.044220 1131.966187,617.876831 1132.041626,726.709473 
	C1132.051147,740.496033 1132.630981,754.282288 1132.889648,768.534302 
	C1132.075073,768.739258 1131.317627,768.478577 1130.280029,768.108948 
z"/>
<path fill="#595959" opacity="1.000000" stroke="none" 
	d="
M1130.532715,357.109314 
	C1130.738159,357.923981 1130.478027,358.681824 1130.108887,359.719849 
	C1083.245239,359.999878 1036.490479,360.012268 989.735657,359.970215 
	C986.761658,359.967529 983.788025,359.541748 980.424744,359.188293 
	C980.178467,358.443573 980.321655,357.823334 980.732300,357.017975 
	C1006.591125,356.888275 1032.182373,356.957153 1057.773682,356.995300 
	C1081.871582,357.031250 1105.969360,357.034729 1130.532715,357.109314 
z"/>
<path fill="#00B050" opacity="1.000000" stroke="none" 
	d="
M323.403076,179.854523 
	C323.000031,142.812241 322.971771,105.791199 323.060730,68.770439 
	C323.067291,66.038681 323.918213,63.308964 324.604980,60.289345 
	C325.222198,64.850151 325.932373,69.698883 325.947845,74.549828 
	C326.048950,106.280411 326.065613,138.011810 325.903625,169.741898 
	C325.886353,173.123367 324.537781,176.498016 323.403076,179.854523 
z"/>
<path fill="#595959" opacity="1.000000" stroke="none" 
	d="
M1070.081787,394.763000 
	C1068.159302,394.641418 1066.436890,394.041901 1064.714111,394.041412 
	C915.189026,393.998260 765.664001,394.001312 616.138916,394.001129 
	C614.676636,394.001129 613.214417,394.001099 611.752136,394.001099 
	C611.583923,394.390533 611.415710,394.779938 611.247437,395.169373 
	C616.865356,398.687561 622.483276,402.205719 628.324585,405.968506 
	C620.526245,406.192810 615.257263,400.702362 609.605896,396.275269 
	C607.486023,394.614624 608.648376,392.134125 611.352112,391.467285 
	C613.257874,390.997253 615.313660,391.019592 617.302490,391.019348 
	C766.023193,391.001221 914.743896,391.002045 1063.464600,391.012085 
	C1065.126587,391.012207 1066.942749,390.774597 1068.394165,391.366302 
	C1069.306396,391.738220 1069.671265,393.452606 1070.081787,394.763000 
z"/>
<path fill="#595959" opacity="1.000000" stroke="none" 
	d="
M628.918701,733.237183 
	C630.841858,733.358765 632.565063,733.958191 634.288391,733.958679 
	C779.531799,734.001892 924.775146,733.999329 1070.018555,733.989441 
	C1071.442993,733.989380 1072.867310,733.847107 1075.726685,733.694763 
	C1071.011353,730.737183 1067.454956,728.506470 1063.675171,726.031250 
	C1067.597534,727.583862 1072.023438,728.938293 1075.795288,731.326050 
	C1078.537476,733.061951 1077.586304,735.882141 1074.304077,736.627808 
	C1072.544678,737.027527 1070.663696,736.983398 1068.837524,736.983582 
	C924.404480,736.998108 779.971375,736.997925 635.538330,736.987976 
	C633.875916,736.987915 632.059204,737.225464 630.607239,736.633789 
	C629.694824,736.262024 629.329529,734.547546 628.918701,733.237183 
z"/>
<path fill="#595959" opacity="1.000000" stroke="none" 
	d="
M581.799438,420.957886 
	C582.033569,516.927490 582.017090,612.749451 581.997437,708.571472 
	C581.996826,711.737549 581.964355,714.903564 581.889893,718.535400 
	C581.425720,719.000793 581.018372,719.000549 580.231323,718.691895 
	C579.567749,717.589050 579.283875,716.794495 579.000000,716.000000 
	C579.000000,619.312439 579.000000,522.624878 579.127197,425.127747 
	C579.502930,422.878784 579.751465,421.439392 580.000000,420.000000 
	C580.516113,420.270081 581.032227,420.540161 581.799438,420.957886 
z"/>
<path fill="#595959" opacity="1.000000" stroke="none" 
	d="
M33.799519,425.957825 
	C34.046120,521.746887 34.041546,617.388306 33.828232,713.300171 
	C32.746323,712.380371 31.873156,711.190186 30.999994,710.000000 
	C31.000000,616.979126 31.000000,523.958191 31.127171,430.127747 
	C31.502895,427.878754 31.751451,426.439392 32.000008,425.000000 
	C32.516121,425.270050 33.032234,425.540131 33.799519,425.957825 
z"/>
<path fill="#595959" opacity="1.000000" stroke="none" 
	d="
M293.780884,541.809937 
	C310.040283,530.586731 326.666534,519.269653 343.398315,508.110748 
	C380.991455,483.038879 418.636932,458.045471 456.609619,432.952362 
	C455.404053,434.743622 454.180267,437.096161 452.247650,438.389618 
	C402.055054,471.983490 351.800446,505.484833 301.494812,538.909180 
	C299.364594,540.324585 296.642120,540.848572 293.780884,541.809937 
z"/>
<path fill="#595959" opacity="1.000000" stroke="none" 
	d="
M549.751648,414.025238 
	C538.898682,421.709961 527.812378,429.406036 516.588196,436.895447 
	C486.002899,457.303558 455.359314,477.624390 424.390381,498.047607 
	C425.599182,496.254120 426.827179,493.901520 428.762573,492.604187 
	C467.106201,466.901062 505.521545,441.304749 543.977661,415.770142 
	C545.525696,414.742279 547.617126,414.532928 549.751648,414.025238 
z"/>
<path fill="#595959" opacity="1.000000" stroke="none" 
	d="
M984.674988,452.573730 
	C991.670593,447.410645 998.972473,442.084930 1006.476929,437.061829 
	C1027.005615,423.320923 1047.619751,409.707520 1068.547363,395.996460 
	C1067.832764,397.472717 1067.097046,399.481293 1065.660400,400.447327 
	C1040.840576,417.136810 1015.950195,433.721466 991.013306,450.235657 
	C989.282043,451.382202 987.064880,451.795105 984.674988,452.573730 
z"/>
<path fill="#595959" opacity="1.000000" stroke="none" 
	d="
M1052.118408,675.237671 
	C1064.910278,683.037292 1077.778564,691.189331 1090.845947,699.614807 
	C1089.147705,699.708374 1086.882935,700.137329 1085.412598,699.249878 
	C1075.599609,693.327271 1065.889526,687.225098 1056.317871,680.920166 
	C1054.543213,679.751160 1053.548950,677.397156 1052.118408,675.237671 
z"/>
<path fill="#595959" opacity="1.000000" stroke="none" 
	d="
M918.118408,590.237671 
	C930.910400,598.037292 943.778564,606.189331 956.845947,614.614807 
	C955.147827,614.708374 952.882935,615.137451 951.412720,614.250000 
	C941.599792,608.327332 931.889587,602.225098 922.318054,595.920105 
	C920.543335,594.751038 919.549133,592.397095 918.118408,590.237671 
z"/>
<path fill="#595959" opacity="1.000000" stroke="none" 
	d="
M773.881592,541.762329 
	C761.089661,533.962646 748.221436,525.810669 735.154053,517.385193 
	C736.852173,517.291626 739.117004,516.862549 740.587280,517.749939 
	C750.400208,523.672668 760.110352,529.774963 769.681946,536.079956 
	C771.456665,537.249023 772.450867,539.602905 773.881592,541.762329 
z"/>
<path fill="#595959" opacity="1.000000" stroke="none" 
	d="
M680.881592,482.762329 
	C668.089661,474.962738 655.221436,466.810760 642.154114,458.385254 
	C643.852234,458.291687 646.117004,457.862610 647.587280,458.750000 
	C657.400208,464.672638 667.110352,470.774963 676.681946,477.079956 
	C678.456665,478.248962 679.450928,480.602844 680.881592,482.762329 
z"/>
<path fill="#595959" opacity="1.000000" stroke="none" 
	d="
M812.051025,566.787476 
	C803.753723,561.576477 795.636108,556.176392 787.492249,550.815979 
	C783.805969,548.389587 780.067810,546.041992 776.154053,543.385193 
	C777.845398,543.287598 780.105469,542.853516 781.566162,543.738708 
	C790.753845,549.306091 799.847290,555.042664 808.757202,561.042175 
	C810.411926,562.156372 811.090820,564.719910 812.051025,566.787476 
z"/>
<path fill="#595959" opacity="1.000000" stroke="none" 
	d="
M970.118408,623.237671 
	C979.243713,628.703979 988.445251,634.522644 997.845947,640.614807 
	C996.151245,640.710388 993.926575,641.111877 992.421631,640.252747 
	C986.381836,636.804749 980.452209,633.129700 974.729492,629.179688 
	C972.834595,627.871765 971.684998,625.484070 970.118408,623.237671 
z"/>
<path fill="#595959" opacity="1.000000" stroke="none" 
	d="
M721.881592,508.762299 
	C712.756287,503.296051 703.554810,497.477386 694.154114,491.385254 
	C695.848816,491.289642 698.073486,490.888092 699.578430,491.747253 
	C705.618225,495.195190 711.547913,498.870209 717.270508,502.820221 
	C719.165405,504.128174 720.315002,506.515900 721.881592,508.762299 
z"/>
<path fill="#595959" opacity="1.000000" stroke="none" 
	d="
M1011.118408,649.237671 
	C1020.243713,654.703918 1029.445190,660.522583 1038.845947,666.614807 
	C1037.151123,666.710449 1034.926514,667.111938 1033.421509,666.252747 
	C1027.381714,662.804749 1021.452087,659.129700 1015.729431,655.179688 
	C1013.834595,653.871704 1012.684998,651.484070 1011.118408,649.237671 
z"/>
<path fill="#595959" opacity="1.000000" stroke="none" 
	d="
M628.881592,449.762329 
	C619.756287,444.296082 610.554749,438.477417 601.154114,432.385284 
	C602.848816,432.289673 605.073486,431.888062 606.578430,432.747223 
	C612.618164,436.195190 618.547913,439.870209 624.270569,443.820282 
	C626.165466,445.128174 627.315002,447.515869 628.881592,449.762329 
z"/>
<path fill="#595959" opacity="1.000000" stroke="none" 
	d="
M906.899841,625.835510 
	C899.097229,621.326111 891.185913,616.480652 883.278870,611.628296 
	C881.478027,610.523193 879.691711,609.394165 877.675354,608.031494 
	C879.226013,608.026855 881.307678,607.750549 882.722656,608.593384 
	C890.107605,612.992126 897.356567,617.624207 904.559814,622.317749 
	C905.567017,622.973999 906.061035,624.417786 906.899841,625.835510 
z"/>
<path fill="#595959" opacity="1.000000" stroke="none" 
	d="
M692.100220,447.164612 
	C699.902832,451.674011 707.814087,456.519348 715.721130,461.371643 
	C717.522034,462.476776 719.308228,463.605835 721.324585,464.968506 
	C719.773987,464.973175 717.692322,465.249573 716.277344,464.406769 
	C708.892334,460.008026 701.643555,455.375824 694.440308,450.682281 
	C693.433167,450.026001 692.939026,448.582306 692.100220,447.164612 
z"/>
<path fill="#595959" opacity="1.000000" stroke="none" 
	d="
M1040.899658,710.835327 
	C1033.097046,706.325989 1025.185791,701.480591 1017.278809,696.628235 
	C1015.477905,695.523193 1013.691711,694.394104 1011.675354,693.031433 
	C1013.226013,693.026794 1015.307556,692.750549 1016.722595,693.593323 
	C1024.107666,697.992004 1031.356445,702.624146 1038.559692,707.317688 
	C1039.566772,707.973999 1040.061035,709.417603 1040.899658,710.835327 
z"/>
<path fill="#595959" opacity="1.000000" stroke="none" 
	d="
M881.071594,567.219482 
	C888.952637,571.746521 896.799744,576.543884 904.845947,581.614807 
	C903.607910,581.941650 901.825439,582.572693 900.790039,581.953857 
	C894.462830,578.172119 888.277832,574.148071 882.131287,570.075256 
	C881.481201,569.644470 881.388794,568.371887 881.071594,567.219482 
z"/>
<path fill="#595959" opacity="1.000000" stroke="none" 
	d="
M947.899841,651.835510 
	C941.970886,648.541382 935.934814,644.908752 929.675354,641.031433 
	C937.328613,641.337646 943.067078,645.550110 947.899841,651.835510 
z"/>
<path fill="#595959" opacity="1.000000" stroke="none" 
	d="
M744.100220,480.164673 
	C750.029114,483.458710 756.065186,487.091309 762.324585,490.968506 
	C754.671204,490.662689 748.933167,486.449677 744.100220,480.164673 
z"/>
<path fill="#595959" opacity="1.000000" stroke="none" 
	d="
M651.100220,421.164673 
	C657.029114,424.458740 663.065125,428.091309 669.324585,431.968506 
	C661.671204,431.662689 655.933167,427.449677 651.100220,421.164673 
z"/>
<path fill="#595959" opacity="1.000000" stroke="none" 
	d="
M785.100220,506.164673 
	C791.029114,509.458710 797.065186,513.091309 803.324585,516.968567 
	C795.671448,516.662354 789.932983,512.450012 785.100220,506.164673 
z"/>
<path fill="#595959" opacity="1.000000" stroke="none" 
	d="
M988.899841,677.835510 
	C982.970947,674.541321 976.934814,670.908691 970.675354,667.031433 
	C978.328613,667.337646 984.067078,671.550110 988.899841,677.835510 
z"/>
<path fill="#595959" opacity="1.000000" stroke="none" 
	d="
M929.232300,640.269104 
	C925.815857,638.507446 922.357178,636.391602 918.675232,634.031250 
	C923.320007,633.571350 927.285583,634.937317 929.232300,640.269104 
z"/>
<path fill="#595959" opacity="1.000000" stroke="none" 
	d="
M803.767700,517.730896 
	C807.184143,519.492554 810.642822,521.608398 814.324768,523.968750 
	C809.679993,524.428650 805.714417,523.062683 803.767700,517.730896 
z"/>
<path fill="#595959" opacity="1.000000" stroke="none" 
	d="
M669.767700,432.730896 
	C673.184143,434.492523 676.642822,436.608337 680.324768,438.968628 
	C675.679932,439.428711 671.714417,438.062653 669.767700,432.730896 
z"/>
<path fill="#595959" opacity="1.000000" stroke="none" 
	d="
M1041.118774,668.238403 
	C1043.911133,669.704468 1046.780151,671.523682 1049.847168,673.615601 
	C1045.143066,675.384277 1042.611328,672.920166 1041.118774,668.238403 
z"/>
<path fill="#595959" opacity="1.000000" stroke="none" 
	d="
M732.881165,515.761475 
	C730.088867,514.295532 727.219849,512.476318 724.152954,510.384460 
	C728.857056,508.615417 731.388428,511.080109 732.881165,515.761475 
z"/>
<path fill="#595959" opacity="1.000000" stroke="none" 
	d="
M907.118835,583.238525 
	C909.911194,584.704529 912.780212,586.523682 915.847168,588.615601 
	C911.143005,590.384583 908.611572,587.919861 907.118835,583.238525 
z"/>
<path fill="#595959" opacity="1.000000" stroke="none" 
	d="
M1000.118835,642.238525 
	C1002.911194,643.704468 1005.780212,645.523682 1008.847168,647.615601 
	C1004.143005,649.384583 1001.611572,646.919861 1000.118835,642.238525 
z"/>
<path fill="#595959" opacity="1.000000" stroke="none" 
	d="
M598.881165,430.761505 
	C596.088867,429.295532 593.219849,427.476349 590.152954,425.384460 
	C594.857117,423.615356 597.388367,426.080231 598.881165,430.761505 
z"/>
<path fill="#595959" opacity="1.000000" stroke="none" 
	d="
M691.881165,489.761505 
	C689.088867,488.295532 686.219849,486.476349 683.152954,484.384460 
	C687.857117,482.615356 690.388367,485.080231 691.881165,489.761505 
z"/>
<path fill="#595959" opacity="1.000000" stroke="none" 
	d="
M959.118835,616.238525 
	C961.911194,617.704529 964.780212,619.523682 967.847168,621.615601 
	C963.143005,623.384583 960.611572,620.919861 959.118835,616.238525 
z"/>
<path fill="#595959" opacity="1.000000" stroke="none" 
	d="
M639.881165,456.761505 
	C637.088867,455.295532 634.219849,453.476349 631.152954,451.384460 
	C635.857117,449.615356 638.388367,452.080231 639.881165,456.761505 
z"/>
<path fill="#595959" opacity="1.000000" stroke="none" 
	d="
M1093.117065,701.234253 
	C1095.265381,702.355469 1097.488770,703.825684 1099.874023,705.586670 
	C1095.323730,708.320312 1094.509888,704.550171 1093.117065,701.234253 
z"/>
<path fill="#595959" opacity="1.000000" stroke="none" 
	d="
M970.233398,666.271851 
	C967.614258,664.951416 964.954102,663.279541 962.094727,661.329468 
	C965.993042,660.404602 968.891663,661.801086 970.233398,666.271851 
z"/>
<path fill="#595959" opacity="1.000000" stroke="none" 
	d="
M1011.233398,692.271790 
	C1008.614258,690.951355 1005.954102,689.279541 1003.094727,687.329468 
	C1006.993042,686.404602 1009.891663,687.801086 1011.233398,692.271790 
z"/>
<path fill="#595959" opacity="1.000000" stroke="none" 
	d="
M1063.233398,725.271851 
	C1060.614380,723.951416 1057.954102,722.279541 1055.094727,720.329407 
	C1058.992920,719.404846 1061.891968,720.800598 1063.233398,725.271851 
z"/>
<path fill="#595959" opacity="1.000000" stroke="none" 
	d="
M628.766602,406.728271 
	C631.385742,408.048645 634.045959,409.720490 636.905396,411.670593 
	C633.007141,412.595276 630.108337,411.199158 628.766602,406.728271 
z"/>
<path fill="#595959" opacity="1.000000" stroke="none" 
	d="
M877.233398,607.271790 
	C874.614258,605.951416 871.954102,604.279541 869.094727,602.329468 
	C872.993042,601.404602 875.891663,602.801086 877.233398,607.271790 
z"/>
<path fill="#595959" opacity="1.000000" stroke="none" 
	d="
M680.766602,439.728271 
	C683.385742,441.048645 686.045959,442.720490 688.905396,444.670593 
	C685.007141,445.595276 682.108337,444.199158 680.766602,439.728271 
z"/>
<path fill="#595959" opacity="1.000000" stroke="none" 
	d="
M721.766602,465.728271 
	C724.385742,467.048676 727.045898,468.720520 729.905396,470.670593 
	C726.007141,471.595276 723.108337,470.199158 721.766602,465.728271 
z"/>
<path fill="#595959" opacity="1.000000" stroke="none" 
	d="
M814.766602,524.728210 
	C817.385742,526.048645 820.045898,527.720520 822.905396,529.670593 
	C819.007019,530.595398 816.108398,529.198914 814.766602,524.728210 
z"/>
<path fill="#595959" opacity="1.000000" stroke="none" 
	d="
M762.766602,491.728271 
	C765.385742,493.048645 768.045959,494.720490 770.905396,496.670593 
	C767.007141,497.595276 764.108337,496.199158 762.766602,491.728271 
z"/>
<path fill="#595959" opacity="1.000000" stroke="none" 
	d="
M918.233398,633.271790 
	C915.614258,631.951355 912.954102,630.279541 910.094727,628.329468 
	C913.993042,627.404602 916.891663,628.801086 918.233398,633.271790 
z"/>
<path fill="#595959" opacity="1.000000" stroke="none" 
	d="
M854.900513,592.836914 
	C852.455078,591.668457 849.903076,590.162903 847.153076,588.384583 
	C850.987122,587.039246 853.292053,589.052246 854.900513,592.836914 
z"/>
<path fill="#595959" opacity="1.000000" stroke="none" 
	d="
M837.099487,539.163086 
	C839.544922,540.331543 842.096924,541.837158 844.846924,543.615479 
	C841.012939,544.960693 838.707825,542.947937 837.099487,539.163086 
z"/>
<path fill="#595959" opacity="1.000000" stroke="none" 
	d="
M774.098633,499.161774 
	C776.563965,500.348083 779.134766,501.869995 781.905090,503.670349 
	C778.172791,504.769318 775.652466,503.084686 774.098633,499.161774 
z"/>
<path fill="#595959" opacity="1.000000" stroke="none" 
	d="
M640.098633,414.161774 
	C642.563965,415.348083 645.134766,416.869995 647.905090,418.670349 
	C644.172791,419.769318 641.652466,418.084686 640.098633,414.161774 
z"/>
<path fill="#595959" opacity="1.000000" stroke="none" 
	d="
M1051.901367,717.838257 
	C1049.436035,716.651978 1046.865356,715.130066 1044.094971,713.329651 
	C1047.827148,712.230713 1050.347534,713.915405 1051.901367,717.838257 
z"/>
<path fill="#595959" opacity="1.000000" stroke="none" 
	d="
M733.098633,473.161774 
	C735.563965,474.348083 738.134766,475.869965 740.905090,477.670349 
	C737.172791,478.769318 734.652466,477.084686 733.098633,473.161774 
z"/>
<path fill="#595959" opacity="1.000000" stroke="none" 
	d="
M999.901489,684.838379 
	C997.436218,683.652100 994.865356,682.130127 992.094971,680.329712 
	C995.827454,679.230469 998.347534,680.915588 999.901489,684.838379 
z"/>
<path fill="#595959" opacity="1.000000" stroke="none" 
	d="
M826.098511,532.161621 
	C828.563843,533.347900 831.134705,534.869873 833.905090,536.670349 
	C830.172546,537.769592 827.652466,536.084412 826.098511,532.161621 
z"/>
<path fill="#595959" opacity="1.000000" stroke="none" 
	d="
M958.901489,658.838379 
	C956.436218,657.652100 953.865356,656.130188 951.094971,654.329712 
	C954.827454,653.230469 957.347534,654.915588 958.901489,658.838379 
z"/>
<path fill="#595959" opacity="1.000000" stroke="none" 
	d="
M865.901489,599.838379 
	C863.436218,598.652039 860.865417,597.130127 858.094971,595.329712 
	C861.827454,594.230469 864.347534,595.915588 865.901489,599.838379 
z"/>
<path fill="#595959" opacity="1.000000" stroke="none" 
	d="
M30.890862,710.315491 
	C31.873156,711.190186 32.746323,712.380371 33.867882,713.764709 
	C34.116280,713.958862 34.539661,713.945435 34.749249,713.914917 
	C33.950832,714.437805 32.942825,714.991150 31.934822,715.544556 
	C31.550459,713.906677 31.166096,712.268860 30.890862,710.315491 
z"/>
<path fill="#595959" opacity="1.000000" stroke="none" 
	d="
M587.889648,423.787964 
	C586.504639,423.132141 585.051514,422.149567 583.311462,421.000122 
	C586.197144,418.836914 587.088013,421.005432 587.889648,423.787964 
z"/>
<path fill="#595959" opacity="1.000000" stroke="none" 
	d="
M579.782532,420.215759 
	C579.751465,421.439392 579.502930,422.878784 579.127136,424.659088 
	C579.188354,423.477173 579.376709,421.954376 579.782532,420.215759 
z"/>
<path fill="#595959" opacity="1.000000" stroke="none" 
	d="
M31.782549,425.215790 
	C31.751451,426.439392 31.502895,427.878754 31.127171,429.659058 
	C31.188366,428.477203 31.376728,426.954376 31.782549,425.215790 
z"/>
<path fill="#595959" opacity="1.000000" stroke="none" 
	d="
M578.913086,716.229065 
	C579.283875,716.794495 579.567749,717.589050 579.925781,718.691772 
	C579.608704,718.152710 579.217468,717.305420 578.913086,716.229065 
z"/>
</svg>