<svg version="1.1" id="Layer_1" xmlns="http://www.w3.org/2000/svg" xmlns:xlink="http://www.w3.org/1999/xlink" x="0px" y="0px"
	 width="100%" viewBox="0 0 1333 779" enable-background="new 0 0 1333 779" xml:space="preserve">
<path fill="#00B050" opacity="1.000000" stroke="none" 
	d="
M328.833435,354.999908 
	C328.555817,350.406189 328.105835,345.815338 328.029541,341.218262 
	C327.632935,317.322144 327.377319,293.423706 326.979919,269.527588 
	C326.740173,255.109863 326.434296,240.691559 325.955780,226.280212 
	C325.715393,219.040283 325.023132,211.815369 324.473053,203.662201 
	C319.028137,204.896896 313.674683,206.003403 308.376556,207.330795 
	C285.046570,213.175919 261.733032,219.086609 238.409393,224.957214 
	C237.937119,225.076080 237.415100,224.997314 236.256439,224.767181 
	C234.731461,220.558228 233.122284,216.594757 233.112396,212.627274 
	C232.954300,149.177109 232.937561,85.726273 233.087860,22.276075 
	C233.104660,15.182580 234.333344,8.091956 235.000000,1.000000 
	C235.750000,1.000000 236.500000,1.000000 237.625000,0.999999 
	C238.808441,1.673513 239.519577,2.733366 240.439316,2.965040 
	C283.031738,13.693525 325.638641,24.364672 368.252380,35.008274 
	C389.879333,40.410011 411.515747,45.774181 433.164825,51.086391 
	C436.730499,51.961330 438.110504,53.712284 438.093933,57.623463 
	C437.934967,95.106766 437.949036,132.591187 438.074280,170.074753 
	C438.087158,173.923828 436.954834,175.280853 433.062775,176.223526 
	C402.483276,183.629883 371.987396,191.381668 341.471344,199.049316 
	C340.081085,199.398651 338.744537,199.961685 336.376434,200.767822 
	C339.348145,200.937515 341.269043,201.047211 343.440826,201.171234 
	C343.623138,201.956299 343.938873,202.713196 343.955658,203.476639 
	C344.323669,220.247330 344.693298,237.018143 344.990845,253.790176 
	C345.362274,274.725769 345.625519,295.663330 346.019592,316.598450 
	C346.266327,329.706207 346.667908,342.811035 346.550171,356.426392 
	C341.697784,357.285339 337.291809,357.891296 332.894684,357.832764 
	C331.528595,357.814606 330.186493,355.994904 328.833435,354.999908 
z"/>
<path fill="#595959" opacity="1.000000" stroke="none" 
	d="
M5.450905,780.000000 
	C5.099306,779.733948 5.227306,779.473877 5.285347,779.199097 
	C5.312799,779.069214 5.206304,778.911011 5.060422,778.132812 
	C4.959427,777.294922 4.958506,777.089905 4.957585,776.884949 
	C4.957585,776.884949 4.954669,776.473999 5.405950,776.260498 
	C9.523233,776.031372 13.189237,776.001953 16.855240,776.001892 
	C382.963867,775.999817 749.072510,775.999939 1115.181152,776.000000 
	C1183.170410,776.000000 1251.159668,775.967468 1319.148804,776.085876 
	C1323.044800,776.092651 1326.938721,777.332336 1330.833618,777.998230 
	C1330.245361,778.462769 1329.657104,778.927246 1329.034424,779.695923 
	C887.967285,780.000000 446.934540,780.000000 5.450905,780.000000 
z"/>
<path fill="#00B050" opacity="1.000000" stroke="none" 
	d="
M234.600006,1.000000 
	C234.333344,8.091956 233.104660,15.182580 233.087860,22.276075 
	C232.937561,85.726273 232.954300,149.177109 233.112396,212.627274 
	C233.122284,216.594757 234.731461,220.558228 235.849869,224.788086 
	C234.607254,225.426376 233.111359,225.800156 231.243561,226.266846 
	C231.143616,224.208298 231.009750,222.735504 231.009537,221.262695 
	C230.999420,149.470108 230.999451,77.677521 231.011459,5.884932 
	C231.011688,4.559279 231.170044,3.233653 231.127319,1.454007 
	C232.066666,1.000000 233.133347,1.000000 234.600006,1.000000 
z"/>
<path fill="#595959" opacity="1.000000" stroke="none" 
	d="
M1330.890625,777.532715 
	C1326.938721,777.332336 1323.044800,776.092651 1319.148804,776.085876 
	C1251.159668,775.967468 1183.170410,776.000000 1115.181152,776.000000 
	C749.072510,775.999939 382.963867,775.999817 16.855240,776.001892 
	C13.189237,776.001953 9.523233,776.031372 5.382574,776.056396 
	C4.907917,776.065796 4.955056,776.048950 5.069156,775.661011 
	C5.455560,764.237488 5.727864,753.201782 6.000166,742.166138 
	C8.103738,740.485474 10.578467,739.110229 12.252685,737.076172 
	C26.834532,719.360229 41.291950,701.541626 55.748631,683.722961 
	C69.787346,666.419556 83.717636,649.027771 97.812469,631.770325 
	C113.376999,612.713318 129.146606,593.823669 144.692352,574.751465 
	C158.381775,557.956726 171.814224,540.952576 185.492294,524.148499 
	C198.107315,508.650360 210.965271,493.350067 223.592209,477.861542 
	C236.001617,462.639954 248.185104,447.234192 260.596466,432.014191 
	C273.225403,416.527374 286.027008,401.181458 298.721893,385.748260 
	C304.700928,378.479553 310.631866,371.170868 316.532715,363.838562 
	C318.572205,361.304260 320.163788,358.323639 322.529236,356.173004 
	C323.745636,355.067108 326.213654,355.337860 328.474762,354.993225 
	C330.186493,355.994904 331.528595,357.814606 332.894684,357.832764 
	C337.291809,357.891296 341.697784,357.285339 346.550201,356.884613 
	C349.497131,356.889099 351.994232,356.992981 354.491302,356.993073 
	C524.966614,357.000732 695.441956,357.000061 866.499512,357.411133 
	C868.380615,358.267212 869.677979,359.095276 870.978516,359.100220 
	C892.335266,359.181427 913.692810,359.210205 935.048767,359.059052 
	C936.704163,359.047302 938.349426,357.608765 939.999390,356.833374 
	C953.982483,356.833405 967.965637,356.833405 981.682007,356.833405 
	C984.347412,361.356262 986.007080,366.013092 991.121826,367.821045 
	C992.263794,368.224701 993.166504,369.513672 994.002258,370.539337 
	C997.872559,375.288635 1001.510864,380.238434 1005.560425,384.826782 
	C1009.301758,389.065826 1013.618225,392.795044 1017.394714,397.005829 
	C1022.148193,402.305939 1026.517212,407.949585 1031.228516,413.289307 
	C1034.860474,417.405701 1038.864868,421.192291 1042.523071,425.286835 
	C1047.485596,430.841339 1052.277832,436.547882 1057.136230,442.195068 
	C1057.673950,442.819946 1058.138062,443.508728 1058.685303,444.124420 
	C1064.047119,450.158112 1069.331665,456.263916 1074.817627,462.182892 
	C1078.889404,466.576050 1083.407104,470.561859 1087.398071,475.022644 
	C1091.923340,480.080597 1096.020508,485.519257 1100.440430,490.675049 
	C1101.705322,492.150391 1103.657837,493.034851 1104.928833,494.506561 
	C1109.474976,499.770599 1113.749634,505.271240 1118.348389,510.487061 
	C1121.978027,514.603760 1126.060303,518.320190 1129.713013,522.417969 
	C1134.668579,527.977539 1139.365479,533.767151 1144.267090,539.376038 
	C1145.437256,540.715088 1147.164062,541.571167 1148.316895,542.920898 
	C1152.728271,548.085388 1156.937134,553.423706 1161.380981,558.559021 
	C1162.870483,560.280212 1165.060669,561.396667 1166.542114,563.122986 
	C1170.962280,568.274048 1175.041382,573.721863 1179.538696,578.801514 
	C1183.286743,583.035034 1187.593262,586.772339 1191.370239,590.982727 
	C1196.124268,596.282532 1200.500122,601.920288 1205.211060,607.260437 
	C1208.843018,611.377258 1212.835938,615.174255 1216.495850,619.267639 
	C1221.461060,624.821045 1226.264526,630.519348 1231.128906,636.162659 
	C1231.666138,636.786011 1232.114746,637.486633 1232.660889,638.101257 
	C1238.022583,644.135010 1243.308960,650.239014 1248.795166,656.157776 
	C1252.867065,660.550903 1257.381470,664.539673 1261.373535,668.999695 
	C1265.899902,674.056824 1270.002197,679.491333 1274.424072,684.645752 
	C1275.689453,686.120605 1277.633545,687.011719 1278.904785,688.483032 
	C1283.452271,693.746094 1287.721924,699.251892 1292.333984,704.455750 
	C1296.082764,708.685730 1300.326294,712.477600 1304.073853,716.708557 
	C1309.893921,723.279236 1315.563599,729.990234 1321.052002,736.837952 
	C1321.704590,737.652039 1320.824707,739.694458 1320.592773,741.708679 
	C1323.619751,741.879578 1326.848999,742.061829 1330.947510,742.293213 
	C1330.947510,753.911987 1330.947510,765.489563 1330.890625,777.532715 
M231.970795,525.701721 
	C231.663437,526.170349 231.356079,526.638977 230.486328,526.932373 
	C225.798645,528.204102 223.932709,531.763428 222.974930,536.682434 
	C222.685104,537.138489 222.395294,537.594543 221.515564,537.936157 
	C215.667587,541.024475 211.414093,545.403076 209.970795,552.701599 
	C209.663437,553.170288 209.356079,553.638977 208.486328,553.932373 
	C203.798645,555.204102 201.932709,558.763428 200.974930,563.682434 
	C200.685120,564.138489 200.395309,564.594543 199.515564,564.936157 
	C193.667587,568.024475 189.414093,572.403076 187.916626,579.814575 
	C184.646240,583.893250 181.375854,587.971924 177.515564,591.936157 
	C171.667587,595.024475 167.414093,599.403076 165.970795,606.701599 
	C165.663437,607.170288 165.356079,607.638977 164.486328,607.932373 
	C159.798645,609.204102 157.932709,612.763428 156.974930,617.682434 
	C156.685104,618.138489 156.395294,618.594543 155.515564,618.936157 
	C149.667587,622.024475 145.414093,626.403076 143.970779,633.701599 
	C143.663422,634.170288 143.356079,634.638977 142.486328,634.932373 
	C137.798645,636.204102 135.932709,639.763428 134.970810,644.701721 
	C134.663452,645.170349 134.356094,645.639038 133.486328,645.932373 
	C128.798630,647.204041 126.932739,650.763428 125.917549,655.815552 
	C124.294624,657.912903 122.671700,660.010315 120.486351,661.932373 
	C115.798508,663.203979 113.932808,666.763489 112.970787,671.701721 
	C112.663445,672.170349 112.356094,672.639038 111.486351,672.932373 
	C106.798508,674.203979 104.932816,677.763489 103.918373,682.813354 
	C102.314095,684.892395 100.709816,686.971497 98.513634,688.926636 
	C93.148018,689.650879 91.839310,693.674194 90.970787,698.701599 
	C90.663445,699.170288 90.356102,699.638977 89.486351,699.932373 
	C84.798508,701.203979 82.932808,704.763489 81.974915,709.682312 
	C81.685127,710.138367 81.395340,710.594482 80.515640,710.936096 
	C74.667618,714.024414 70.414040,718.402954 68.970779,725.701599 
	C68.663437,726.170288 68.356094,726.638977 67.486351,726.932373 
	C62.798649,728.204041 60.932732,731.763428 59.910496,736.828857 
	C58.527962,738.115662 57.145428,739.402405 55.762897,740.689209 
	C56.048248,741.112549 56.333603,741.535828 56.618954,741.959167 
	C144.040527,741.959167 231.462097,741.959167 319.528931,741.609009 
	C320.352325,738.557312 321.891663,735.506531 321.895447,732.453857 
	C322.020660,631.137817 322.000244,529.821655 321.989807,428.505463 
	C321.989624,426.508850 322.173737,424.426849 321.673157,422.543854 
	C321.303497,421.153320 319.957916,420.022278 319.047150,418.775635 
	C318.045624,419.888489 317.044128,421.001373 315.975708,422.679688 
	C315.688721,423.133759 315.401733,423.587860 314.491089,424.257935 
	C313.674927,425.210144 312.858795,426.162354 311.860809,427.535156 
	C311.677124,427.798706 311.428955,427.967316 310.511902,428.333221 
	C309.688812,429.593597 308.865692,430.853973 307.778229,432.667786 
	C307.201721,433.481110 306.625214,434.294403 305.486328,434.932465 
	C300.798492,436.204010 298.932770,439.763458 297.974945,444.682465 
	C297.685120,445.138519 297.395264,445.594574 296.515533,445.936157 
	C290.667480,449.024414 286.414062,453.403046 284.970825,460.701660 
	C284.663452,461.170349 284.356079,461.639008 283.486328,461.932465 
	C278.798492,463.204010 276.932770,466.763458 275.975006,471.682465 
	C275.685150,472.138519 275.395294,472.594574 274.515533,472.936157 
	C268.667480,476.024414 264.414062,480.403046 262.970825,487.701660 
	C262.663452,488.170319 262.356079,488.639008 261.486328,488.932465 
	C256.798492,490.204010 254.932739,493.763458 253.970795,498.701691 
	C253.663422,499.170349 253.356064,499.639008 252.486313,499.932465 
	C247.798569,501.204071 245.932739,504.763458 244.917526,509.815582 
	C243.294601,511.912933 241.671677,514.010315 239.486328,515.932373 
	C234.798645,517.204102 232.932709,520.763428 231.970795,525.701721 
M980.971191,741.963867 
	C1079.292847,741.963867 1177.614502,741.963867 1275.936157,741.963867 
	C1276.096924,741.518372 1276.257568,741.072815 1276.418335,740.627319 
	C1274.061157,738.032715 1271.702271,735.439819 1269.347290,732.843201 
	C1264.961060,728.006775 1260.485840,723.247070 1256.221313,718.305542 
	C1252.850098,714.398926 1249.942871,710.081055 1246.463257,706.281311 
	C1241.512695,700.875366 1236.218506,695.784485 1231.097290,690.533447 
	C1230.651855,690.076599 1230.463623,689.377625 1230.048584,688.880615 
	C1226.740479,684.919617 1223.542480,680.854919 1220.047852,677.064392 
	C1215.069702,671.664673 1209.665771,666.649475 1204.811523,661.145630 
	C1198.271484,653.730530 1192.252686,645.854614 1185.684570,638.465942 
	C1180.818481,632.992065 1175.272949,628.126831 1170.315674,622.728394 
	C1161.989746,613.661621 1153.904053,604.374573 1145.692505,595.202393 
	C1139.619629,588.419189 1133.500366,581.677307 1127.414551,574.905640 
	C1121.662476,568.505310 1115.836548,562.168152 1110.214844,555.655090 
	C1106.193481,550.996277 1102.663574,545.904602 1098.537598,541.347229 
	C1093.619141,535.914856 1088.140015,530.991821 1083.187134,525.588440 
	C1075.094360,516.759460 1067.252197,507.701202 1059.263428,498.776337 
	C1052.969238,491.744568 1046.601440,484.778534 1040.288330,477.763580 
	C1034.643433,471.490997 1028.930908,465.275269 1023.433411,458.875397 
	C1019.529480,454.330658 1016.132751,449.343384 1012.145203,444.879211 
	C1007.931458,440.161865 1003.192871,435.917633 998.855957,431.304688 
	C994.825439,427.017670 991.038208,422.502747 987.111877,418.116760 
	C985.208008,415.990082 983.230896,413.928894 981.286987,411.838043 
	C980.858521,412.119751 980.430054,412.401489 980.001587,412.683197 
	C980.001587,414.982727 980.001648,417.282288 980.001648,419.581818 
	C980.001648,524.223633 980.002747,628.865479 979.994507,733.507263 
	C979.994263,736.004089 979.889465,738.500916 979.137207,740.726196 
	C969.360596,738.257751 959.603821,737.587708 949.298035,740.441589 
	C949.198242,738.118530 949.011536,735.795410 949.010925,733.472351 
	C948.983398,620.687256 948.971924,507.902100 948.608582,394.471588 
	C945.225647,393.647827 941.843140,392.105133 938.459717,392.103119 
	C745.922791,391.987579 553.385803,391.999969 360.848816,392.003754 
	C359.017303,392.003784 357.089233,391.711029 355.382446,392.186890 
	C353.798553,392.628448 352.450836,393.917358 350.365845,395.433289 
	C350.244537,397.252502 350.017334,399.071655 350.017059,400.890900 
	C350.000244,512.510681 350.000641,624.130493 350.013611,735.750305 
	C350.013824,737.681458 350.186340,739.612610 350.282532,741.629456 
	C445.362000,741.629456 539.890747,741.629456 634.998230,741.629456 
	C634.998230,739.141541 634.998230,737.018066 634.998230,734.894592 
	C634.998230,623.441345 634.998840,511.988159 634.993591,400.534943 
	C634.993530,398.703583 634.922668,396.872253 635.643250,395.246674 
	C645.638733,398.224701 655.733154,397.224792 665.947449,396.928802 
	C665.947449,511.773193 665.947449,626.617554 665.947449,742.000000 
	C669.071716,742.000000 671.366333,742.000000 673.661011,742.000000 
	C750.604858,742.000000 827.548706,742.005920 904.492554,741.994934 
	C919.646973,741.992798 934.801453,741.925232 950.491882,742.429260 
	C959.980774,742.581848 969.469482,742.745422 978.958984,742.844055 
	C979.316650,742.847778 979.680908,742.219421 980.971191,741.963867 
z"/>
<path fill="#C00000" opacity="1.000000" stroke="none" 
	d="
M939.999390,356.375519 
	C938.349426,357.608765 936.704163,359.047302 935.048767,359.059052 
	C913.692810,359.210205 892.335266,359.181427 870.978516,359.100220 
	C869.677979,359.095276 868.380615,358.267212 866.957764,357.411224 
	C866.889404,354.837555 866.993530,352.674835 866.993713,350.512085 
	C867.001770,255.719971 867.000671,160.927856 867.000732,66.135750 
	C867.000732,63.999123 867.000732,61.862492 867.000732,59.364716 
	C942.758850,59.364716 1018.099182,59.364716 1093.719604,59.364716 
	C1093.719604,87.824631 1093.719604,116.061661 1093.719604,144.791840 
	C1042.657837,144.791840 991.759033,144.791840 939.999329,144.791840 
	C939.999329,215.493164 939.999329,285.705414 939.999390,356.375519 
z"/>
<path fill="#595959" opacity="1.000000" stroke="none" 
	d="
M5.585713,742.188232 
	C5.727864,753.201782 5.455560,764.237488 5.050382,775.672485 
	C4.611674,773.029114 4.101561,769.990540 4.041670,766.943054 
	C3.908660,760.174927 3.933465,753.401184 4.055042,746.632629 
	C4.081632,745.152344 4.781474,743.684082 5.585713,742.188232 
z"/>
<path fill="#595959" opacity="1.000000" stroke="none" 
	d="
M4.761813,777.000610 
	C4.958506,777.089905 4.959427,777.294922 4.959232,777.807617 
	C4.827424,777.782227 4.696732,777.449219 4.761813,777.000610 
z"/>
<path fill="#595959" opacity="1.000000" stroke="none" 
	d="
M948.783569,394.794312 
	C938.808716,395.077789 928.658875,395.005768 918.508972,395.004608 
	C836.800476,394.995300 755.092041,394.996368 673.383545,395.014709 
	C671.067200,395.015228 668.750793,395.243042 666.133789,395.681061 
	C655.733154,397.224792 645.638733,398.224701 635.264038,395.143799 
	C543.566040,395.027039 452.247223,395.013672 360.928436,394.997223 
	C357.929169,394.996674 354.929871,394.964264 351.464844,394.889954 
	C352.450836,393.917358 353.798553,392.628448 355.382446,392.186890 
	C357.089233,391.711029 359.017303,392.003784 360.848816,392.003754 
	C553.385803,391.999969 745.922791,391.987579 938.459717,392.103119 
	C941.843140,392.105133 945.225647,393.647827 948.783569,394.794312 
z"/>
<path fill="#595959" opacity="1.000000" stroke="none" 
	d="
M319.206299,741.784058 
	C318.922150,740.294067 318.994232,738.629028 318.994324,736.963928 
	C318.999664,633.651001 319.011841,530.338074 318.887573,427.025238 
	C318.885559,425.337189 321.102875,421.947388 316.375427,421.953857 
	C317.044128,421.001373 318.045624,419.888489 319.047150,418.775635 
	C319.957916,420.022278 321.303497,421.153320 321.673157,422.543854 
	C322.173737,424.426849 321.989624,426.508850 321.989807,428.505463 
	C322.000244,529.821655 322.020660,631.137817 321.895447,732.453857 
	C321.891663,735.506531 320.352325,738.557312 319.206299,741.784058 
z"/>
<path fill="#595959" opacity="1.000000" stroke="none" 
	d="
M979.485352,740.861938 
	C979.833496,740.997742 979.963623,741.435547 980.002808,741.660583 
	C979.680908,742.219421 979.316650,742.847778 978.958984,742.844055 
	C969.469482,742.745422 959.980774,742.581848 950.223877,742.158569 
	C949.955872,741.887878 949.948425,741.467041 949.920654,741.258423 
	C959.603821,737.587708 969.360596,738.257751 979.485352,740.861938 
z"/>
<path fill="#595959" opacity="1.000000" stroke="none" 
	d="
M296.810486,445.993408 
	C293.282806,450.628784 289.460205,455.206970 285.340149,459.949524 
	C286.414062,453.403046 290.667480,449.024414 296.810486,445.993408 
z"/>
<path fill="#595959" opacity="1.000000" stroke="none" 
	d="
M274.810486,472.993408 
	C271.282837,477.628815 267.460236,482.206970 263.340179,486.949524 
	C264.414062,480.403046 268.667480,476.024414 274.810486,472.993408 
z"/>
<path fill="#595959" opacity="1.000000" stroke="none" 
	d="
M80.810623,710.993286 
	C77.282959,715.628723 73.460304,720.206909 69.340210,724.949463 
	C70.414040,718.402954 74.667618,714.024414 80.810623,710.993286 
z"/>
<path fill="#595959" opacity="1.000000" stroke="none" 
	d="
M221.810516,537.993408 
	C218.282852,542.628723 214.460236,547.206909 210.340164,551.949463 
	C211.414093,545.403076 215.667587,541.024475 221.810516,537.993408 
z"/>
<path fill="#595959" opacity="1.000000" stroke="none" 
	d="
M199.810532,564.993408 
	C196.282867,569.628723 192.460251,574.206909 188.340179,578.949463 
	C189.414093,572.403076 193.667587,568.024475 199.810532,564.993408 
z"/>
<path fill="#595959" opacity="1.000000" stroke="none" 
	d="
M177.810516,591.993408 
	C174.282852,596.628723 170.460220,601.206848 166.340164,605.949463 
	C167.414093,599.403076 171.667587,595.024475 177.810516,591.993408 
z"/>
<path fill="#595959" opacity="1.000000" stroke="none" 
	d="
M155.810532,618.993408 
	C152.282867,623.628723 148.460251,628.206909 144.340179,632.949463 
	C145.414093,626.403076 149.667587,622.024475 155.810532,618.993408 
z"/>
<path fill="#595959" opacity="1.000000" stroke="none" 
	d="
M98.809601,688.988586 
	C96.615959,691.962341 94.126350,694.874146 91.339737,697.949890 
	C91.839310,693.674194 93.148018,689.650879 98.809601,688.988586 
z"/>
<path fill="#595959" opacity="1.000000" stroke="none" 
	d="
M252.767517,500.020081 
	C250.577408,503.001068 248.106094,505.894440 245.338760,508.950867 
	C245.932739,504.763458 247.798569,501.204071 252.767517,500.020081 
z"/>
<path fill="#595959" opacity="1.000000" stroke="none" 
	d="
M67.767563,727.020020 
	C65.577446,730.001038 63.106125,732.894409 60.338787,735.950867 
	C60.932732,731.763428 62.798649,728.204041 67.767563,727.020020 
z"/>
<path fill="#595959" opacity="1.000000" stroke="none" 
	d="
M89.767548,700.020020 
	C87.577423,703.001038 85.106102,705.894470 82.338760,708.950928 
	C82.932808,704.763489 84.798508,701.203979 89.767548,700.020020 
z"/>
<path fill="#595959" opacity="1.000000" stroke="none" 
	d="
M111.767563,673.020020 
	C109.577438,676.001038 107.106110,678.894470 104.338760,681.950928 
	C104.932816,677.763489 106.798508,674.203979 111.767563,673.020020 
z"/>
<path fill="#595959" opacity="1.000000" stroke="none" 
	d="
M120.767548,662.020020 
	C118.577415,665.001038 116.106087,667.894409 113.338760,670.950928 
	C113.932808,666.763489 115.798508,663.203979 120.767548,662.020020 
z"/>
<path fill="#595959" opacity="1.000000" stroke="none" 
	d="
M133.767532,646.020020 
	C131.577408,649.001038 129.106094,651.894409 126.338753,654.950867 
	C126.932739,650.763428 128.798630,647.204041 133.767532,646.020020 
z"/>
<path fill="#595959" opacity="1.000000" stroke="none" 
	d="
M142.767548,635.020020 
	C140.577438,638.001038 138.106110,640.894409 135.338760,643.950867 
	C135.932709,639.763428 137.798645,636.204102 142.767548,635.020020 
z"/>
<path fill="#595959" opacity="1.000000" stroke="none" 
	d="
M164.767532,608.020020 
	C162.577408,611.001038 160.106079,613.894409 157.338745,616.950867 
	C157.932709,612.763428 159.798645,609.204102 164.767532,608.020020 
z"/>
<path fill="#595959" opacity="1.000000" stroke="none" 
	d="
M208.767548,554.020020 
	C206.577454,557.001099 204.106125,559.894470 201.338760,562.950928 
	C201.932709,558.763428 203.798645,555.204102 208.767548,554.020020 
z"/>
<path fill="#595959" opacity="1.000000" stroke="none" 
	d="
M230.767548,527.020020 
	C228.577423,530.001038 226.106094,532.894409 223.338745,535.950867 
	C223.932709,531.763428 225.798645,528.204102 230.767548,527.020020 
z"/>
<path fill="#595959" opacity="1.000000" stroke="none" 
	d="
M239.767532,516.020020 
	C237.577408,519.001038 235.106079,521.894409 232.338745,524.950867 
	C232.932709,520.763428 234.798645,517.204102 239.767532,516.020020 
z"/>
<path fill="#595959" opacity="1.000000" stroke="none" 
	d="
M261.767517,489.020081 
	C259.577423,492.001099 257.106110,494.894470 254.338776,497.950928 
	C254.932739,493.763458 256.798492,490.204010 261.767517,489.020081 
z"/>
<path fill="#595959" opacity="1.000000" stroke="none" 
	d="
M283.767517,462.020081 
	C281.577393,465.001068 279.106110,467.894440 276.338776,470.950867 
	C276.932770,466.763458 278.798492,463.204010 283.767517,462.020081 
z"/>
<path fill="#595959" opacity="1.000000" stroke="none" 
	d="
M305.767517,435.020081 
	C303.577423,438.001068 301.106110,440.894440 298.338776,443.950867 
	C298.932770,439.763458 300.798492,436.204010 305.767517,435.020081 
z"/>
<path fill="#595959" opacity="1.000000" stroke="none" 
	d="
M310.814087,428.187103 
	C310.285858,429.292725 309.455383,430.544495 308.333740,431.955261 
	C308.865692,430.853973 309.688812,429.593597 310.814087,428.187103 
z"/>
<path fill="#595959" opacity="1.000000" stroke="none" 
	d="
M314.802917,424.149963 
	C314.276154,424.968323 313.437531,425.894714 312.320801,426.967834 
	C312.858795,426.162354 313.674927,425.210144 314.802917,424.149963 
z"/>
</svg>