<svg version="1.1" id="Layer_1" xmlns="http://www.w3.org/2000/svg" xmlns:xlink="http://www.w3.org/1999/xlink" x="0px" y="0px"
	 width="100%" viewBox="0 0 1155 169" enable-background="new 0 0 1155 169" xml:space="preserve">
<path fill="#000000" opacity="1.000000" stroke="none" 
	d="
M802.000000,170.000000 
	C534.666687,170.000000 267.833344,170.000000 1.000000,170.000000 
	C1.000000,113.666664 1.000000,57.333332 1.000000,1.000000 
	C386.000000,1.000000 771.000000,1.000000 1156.000000,1.000000 
	C1156.000000,57.333332 1156.000000,113.666664 1156.000000,170.000000 
	C1038.166626,170.000000 920.333313,170.000000 802.000000,170.000000 
M5.000206,119.500000 
	C5.000206,135.113403 5.000206,150.726807 5.000206,166.573868 
	C387.610657,166.573868 769.574890,166.573868 1151.588623,166.573868 
	C1151.588623,111.926865 1151.588623,57.708485 1151.588623,3.337623 
	C769.330688,3.337623 387.484314,3.337623 5.000206,3.337623 
	C5.000206,41.948822 5.000206,80.224411 5.000206,119.500000 
z"/>
<path fill="#595959" opacity="1.000000" stroke="none" 
	d="
M5.000206,119.000000 
	C5.000206,80.224411 5.000206,41.948822 5.000206,3.337623 
	C387.484314,3.337623 769.330688,3.337623 1151.588623,3.337623 
	C1151.588623,57.708485 1151.588623,111.926865 1151.588623,166.573868 
	C769.574890,166.573868 387.610657,166.573868 5.000206,166.573868 
	C5.000206,150.726807 5.000206,135.113403 5.000206,119.000000 
M782.500488,21.489758 
	C529.438171,21.489758 276.375824,21.489758 23.191647,21.489758 
	C23.191647,64.198601 23.191647,105.999016 23.191647,148.154785 
	C393.445129,148.154785 763.507141,148.154785 1133.712646,148.154785 
	C1133.712646,136.584259 1133.712646,125.331627 1133.712646,113.489738 
	C1131.129761,113.489738 1128.830078,113.489761 1126.530273,113.489731 
	C1072.865845,113.489174 1019.201355,113.486031 965.536865,113.494453 
	C962.325745,113.494957 959.337891,113.981331 959.380188,108.893494 
	C959.420105,104.088684 962.173340,104.504150 965.247375,104.504745 
	C1019.078552,104.515182 1072.909668,104.511131 1126.740845,104.510231 
	C1129.031738,104.510193 1131.322632,104.510223 1133.693481,104.510223 
	C1133.693481,76.562950 1133.693481,49.310673 1133.693481,21.489841 
	C1016.758789,21.489841 900.129639,21.489841 782.500488,21.489758 
z"/>
<path fill="#D0CECE" opacity="1.000000" stroke="none" 
	d="
M783.000488,21.489799 
	C900.129639,21.489841 1016.758789,21.489841 1133.693481,21.489841 
	C1133.693481,49.310673 1133.693481,76.562950 1133.693481,104.510223 
	C1131.322632,104.510223 1129.031738,104.510193 1126.740845,104.510231 
	C1072.909668,104.511131 1019.078552,104.515182 965.247375,104.504745 
	C962.173340,104.504150 959.420105,104.088684 959.380188,108.893494 
	C959.337891,113.981331 962.325745,113.494957 965.536865,113.494453 
	C1019.201355,113.486031 1072.865845,113.489174 1126.530273,113.489731 
	C1128.830078,113.489761 1131.129761,113.489738 1133.712646,113.489738 
	C1133.712646,125.331627 1133.712646,136.584259 1133.712646,148.154785 
	C763.507141,148.154785 393.445129,148.154785 23.191647,148.154785 
	C23.191647,105.999016 23.191647,64.198601 23.191647,21.489758 
	C276.375824,21.489758 529.438171,21.489758 783.000488,21.489799 
M398.499634,119.489449 
	C409.235840,119.489449 419.972076,119.489449 430.788727,119.489449 
	C430.788727,116.097809 430.788727,113.665703 430.788727,110.879204 
	C369.566742,110.879204 308.554718,110.879204 247.343018,110.879204 
	C247.343018,113.811516 247.343018,116.370361 247.343018,119.489532 
	C297.620544,119.489532 347.560089,119.489532 398.499634,119.489449 
M179.500366,50.510548 
	C152.340103,50.511707 125.179840,50.517704 98.019577,50.506950 
	C95.125366,50.505802 92.456161,50.125515 92.403275,54.619816 
	C92.353851,58.819645 94.121735,59.543667 97.762169,59.538849 
	C155.581772,59.462299 213.401489,59.487820 271.221191,59.466972 
	C272.660614,59.466454 274.100006,59.203571 275.691895,59.048164 
	C275.691895,56.137825 275.691895,53.582722 275.691895,50.510468 
	C243.759064,50.510468 212.129715,50.510468 179.500366,50.510548 
M594.500183,50.510548 
	C542.173035,50.511143 489.845825,50.505901 437.518646,50.528206 
	C434.667236,50.529423 431.444885,49.625885 431.404785,54.622173 
	C431.371033,58.823559 433.127563,59.543446 436.765076,59.538654 
	C494.591492,59.462437 552.418030,59.487816 610.244568,59.467400 
	C611.687683,59.466892 613.130737,59.209400 614.698792,59.059845 
	C614.698792,56.153179 614.698792,53.597561 614.698792,50.510468 
	C608.106018,50.510468 601.803040,50.510468 594.500183,50.510548 
M851.499512,59.489452 
	C893.553894,59.489452 935.608276,59.489452 977.778076,59.489452 
	C977.778076,56.069546 977.778076,53.639561 977.778076,50.511086 
	C975.463867,50.511086 973.346863,50.511089 971.229858,50.511089 
	C914.743164,50.511089 858.256470,50.510822 801.769775,50.512688 
	C800.436890,50.512730 798.892822,50.117989 797.825256,50.656620 
	C796.523987,51.313160 794.969604,52.613396 794.673523,53.899609 
	C793.823914,57.591942 794.959778,59.640736 799.512756,59.578152 
	C816.505493,59.344559 833.503479,59.487717 851.499512,59.489452 
M666.499512,119.489449 
	C703.554993,119.489449 740.610474,119.489449 777.776855,119.489449 
	C777.776855,116.066750 777.776855,113.636795 777.776855,110.511093 
	C775.451050,110.511093 773.338684,110.511093 771.226318,110.511093 
	C714.739624,110.511086 658.252991,110.510811 601.766296,110.512688 
	C600.433411,110.512733 598.888733,110.117676 597.821838,110.656876 
	C596.521240,111.314186 594.979309,112.611015 594.667297,113.903076 
	C593.636047,118.172653 595.558411,119.621941 600.015808,119.579872 
	C621.841980,119.373894 643.671265,119.488342 666.499512,119.489449 
z"/>
<path fill="#595959" opacity="1.000000" stroke="none" 
	d="
M397.999634,119.489487 
	C347.560089,119.489532 297.620544,119.489532 247.343018,119.489532 
	C247.343018,116.370361 247.343018,113.811516 247.343018,110.879204 
	C308.554718,110.879204 369.566742,110.879204 430.788727,110.879204 
	C430.788727,113.665703 430.788727,116.097809 430.788727,119.489449 
	C419.972076,119.489449 409.235840,119.489449 397.999634,119.489487 
z"/>
<path fill="#595959" opacity="1.000000" stroke="none" 
	d="
M180.000366,50.510506 
	C212.129715,50.510468 243.759064,50.510468 275.691895,50.510468 
	C275.691895,53.582722 275.691895,56.137825 275.691895,59.048164 
	C274.100006,59.203571 272.660614,59.466454 271.221191,59.466972 
	C213.401489,59.487820 155.581772,59.462299 97.762169,59.538849 
	C94.121735,59.543667 92.353851,58.819645 92.403275,54.619816 
	C92.456161,50.125515 95.125366,50.505802 98.019577,50.506950 
	C125.179840,50.517704 152.340103,50.511707 180.000366,50.510506 
z"/>
<path fill="#595959" opacity="1.000000" stroke="none" 
	d="
M595.000122,50.510506 
	C601.803040,50.510468 608.106018,50.510468 614.698792,50.510468 
	C614.698792,53.597561 614.698792,56.153179 614.698792,59.059845 
	C613.130737,59.209400 611.687683,59.466892 610.244568,59.467400 
	C552.418030,59.487816 494.591492,59.462437 436.765076,59.538654 
	C433.127563,59.543446 431.371033,58.823559 431.404785,54.622173 
	C431.444885,49.625885 434.667236,50.529423 437.518646,50.528206 
	C489.845825,50.505901 542.173035,50.511143 595.000122,50.510506 
z"/>
<path fill="#595959" opacity="1.000000" stroke="none" 
	d="
M850.999512,59.489494 
	C833.503479,59.487717 816.505493,59.344559 799.512756,59.578152 
	C794.959778,59.640736 793.823914,57.591942 794.673523,53.899609 
	C794.969604,52.613396 796.523987,51.313160 797.825256,50.656620 
	C798.892822,50.117989 800.436890,50.512730 801.769775,50.512688 
	C858.256470,50.510822 914.743164,50.511089 971.229858,50.511089 
	C973.346863,50.511089 975.463867,50.511086 977.778076,50.511086 
	C977.778076,53.639561 977.778076,56.069546 977.778076,59.489452 
	C935.608276,59.489452 893.553894,59.489452 850.999512,59.489494 
z"/>
<path fill="#595959" opacity="1.000000" stroke="none" 
	d="
M665.999512,119.489487 
	C643.671265,119.488342 621.841980,119.373894 600.015808,119.579872 
	C595.558411,119.621941 593.636047,118.172653 594.667297,113.903076 
	C594.979309,112.611015 596.521240,111.314186 597.821838,110.656876 
	C598.888733,110.117676 600.433411,110.512733 601.766296,110.512688 
	C658.252991,110.510811 714.739624,110.511086 771.226318,110.511093 
	C773.338684,110.511093 775.451050,110.511093 777.776855,110.511093 
	C777.776855,113.636795 777.776855,116.066750 777.776855,119.489449 
	C740.610474,119.489449 703.554993,119.489449 665.999512,119.489487 
z"/>
</svg>