<svg version="1.1" id="Layer_1" xmlns="http://www.w3.org/2000/svg" xmlns:xlink="http://www.w3.org/1999/xlink" x="0px" y="0px"
	 width="100%" viewBox="0 0 954 384" enable-background="new 0 0 954 384" xml:space="preserve">
<path fill="#D53B48" opacity="1.000000" stroke="none" 
	d="
M310.621338,110.663147 
	C345.643066,106.553719 380.149323,106.129585 414.245728,114.271896 
	C443.835663,121.338058 470.156281,134.444519 490.490387,157.876022 
	C505.237488,174.869507 524.707825,183.257523 546.072876,188.009583 
	C578.746399,195.276947 611.515259,193.805801 644.226013,188.406357 
	C723.670593,175.292725 795.269165,143.351974 860.923950,97.400673 
	C872.487061,89.307724 883.584473,80.549454 895.389099,71.730782 
	C899.759460,76.948494 904.299438,82.386574 908.859314,87.807953 
	C913.442566,93.256996 918.045532,98.689476 922.940369,104.485054 
	C918.129150,108.484962 913.791565,112.327698 909.214294,115.859787 
	C865.356201,149.703766 817.912964,177.346893 766.598877,198.318771 
	C724.342224,215.588882 680.765991,228.094681 635.414307,233.615082 
	C601.382324,237.757584 567.302673,237.803726 533.704834,229.725128 
	C504.123138,222.612183 477.811676,209.513977 457.472839,186.091217 
	C442.722931,169.104797 423.248199,160.729935 401.881287,155.981583 
	C369.204590,148.719833 336.437653,150.203217 303.727966,155.602585 
	C224.279083,168.717163 152.717728,200.723984 87.009552,246.600479 
	C81.146103,250.694244 75.419228,254.989471 69.721939,259.313690 
	C64.174774,263.523987 58.747124,267.891754 52.821457,272.539886 
	C43.613934,261.588226 34.479370,250.723328 24.791149,239.199905 
	C35.904568,230.707413 46.393150,222.301041 57.278645,214.444611 
	C95.913177,186.560791 137.342407,163.665268 181.466187,145.673676 
	C222.938873,128.763062 265.662048,116.439499 310.621338,110.663147 
z"/>
</svg>